<svg width="512" height="512" viewBox="0 0 512 512" fill="none" xmlns="http://www.w3.org/2000/svg">
<path d="M44.304 512C32.0107 512 21.552 507.691 12.928 499.072C4.30934 490.448 0 479.989 0 467.696V44.304C0 32.0107 4.30934 21.552 12.928 12.928C21.552 4.30931 32.0107 0 44.304 0H467.696C479.989 0 490.448 4.30931 499.072 12.928C507.691 21.552 512 32.0107 512 44.304V467.696C512 479.989 507.691 490.448 499.072 499.072C490.448 507.691 479.989 512 467.696 512H44.304ZM44.304 487.384H467.696C472.619 487.384 477.131 485.333 481.232 481.232C485.333 477.131 487.384 472.619 487.384 467.696V44.304C487.384 39.3813 485.333 34.8694 481.232 30.768C477.131 26.6667 472.619 24.616 467.696 24.616H44.304C39.3813 24.616 34.8693 26.6667 30.768 30.768C26.6667 34.8694 24.616 39.3813 24.616 44.304V467.696C24.616 472.619 26.6667 477.131 30.768 481.232C34.8693 485.333 39.3813 487.384 44.304 487.384ZM124.152 214.232C121.875 216.579 120.736 219.507 120.736 223.016V388.864C120.736 392.368 121.925 395.296 124.304 397.648C126.683 399.995 129.648 401.168 133.2 401.168C136.747 401.168 139.659 399.995 141.936 397.648C144.213 395.296 145.352 392.368 145.352 388.864V223.016C145.352 219.507 144.163 216.579 141.784 214.232C139.411 211.88 136.448 210.704 132.896 210.704C129.344 210.704 126.429 211.88 124.152 214.232ZM247.104 114.352C244.832 116.704 243.696 119.632 243.696 123.136V388.864C243.696 392.368 244.883 395.296 247.256 397.648C249.635 399.995 252.6 401.168 256.152 401.168C259.704 401.168 262.619 399.995 264.896 397.648C267.168 395.296 268.304 392.368 268.304 388.864V123.136C268.304 119.632 267.117 116.704 264.744 114.352C262.365 112.005 259.4 110.832 255.848 110.832C252.296 110.832 249.381 112.005 247.104 114.352ZM370.064 313.056C367.787 315.605 366.648 318.432 366.648 321.536V388.864C366.648 392.368 367.837 395.296 370.216 397.648C372.589 399.995 375.552 401.168 379.104 401.168C382.656 401.168 385.571 399.995 387.848 397.648C390.125 395.296 391.264 392.368 391.264 388.864V321.536C391.264 318.432 390.075 315.605 387.696 313.056C385.317 310.507 382.352 309.232 378.8 309.232C375.253 309.232 372.341 310.507 370.064 313.056Z" fill="black"/>
</svg>
