<svg width="931" height="512" viewBox="0 0 931 512" fill="none" xmlns="http://www.w3.org/2000/svg">
<path d="M465.203 378.333L825.583 17.8011C837.841 5.53813 852.346 -0.388991 869.098 0.0197763C885.85 0.428544 900.355 6.76443 912.613 19.0274C924.871 31.2904 931 45.8016 931 62.5611C931 79.3205 924.871 93.8317 912.613 106.095L535.073 482.569C525.267 492.379 514.235 499.737 501.977 504.642C489.719 509.547 477.461 512 465.203 512C452.946 512 440.688 509.547 428.43 504.642C416.172 499.737 405.14 492.379 395.334 482.569L17.7936 104.868C5.5358 92.6054 -0.388857 78.2986 0.0197364 61.9479C0.42833 45.5972 6.76157 31.2904 19.0194 19.0274C31.2772 6.76439 45.7823 0.63289 62.5346 0.632891C79.2869 0.632892 93.792 6.76439 106.05 19.0274L465.203 378.333Z" fill="currentColor"/>
</svg>
