<svg width="512" height="576" viewBox="0 0 512 576" fill="none" xmlns="http://www.w3.org/2000/svg">
<path d="M54.4452 576C39.2307 576 26.3529 570.727 15.8118 560.18C5.27059 549.634 0 536.749 0 521.527V118.212C0 102.99 5.27059 90.1052 15.8118 79.5587C26.3529 69.0121 39.2307 63.7388 54.4452 63.7388H96.1431V23.1723C96.1431 16.5681 98.3542 11.0538 102.776 6.62925C107.199 2.20974 112.71 0 119.311 0C125.917 0 131.428 2.20974 135.846 6.62925C140.268 11.0538 142.479 16.5681 142.479 23.1723V63.7388H370.68V22.5998C370.68 16.1864 372.841 10.8152 377.163 6.48612C381.49 2.16203 386.859 0 393.269 0C399.679 0 405.045 2.16203 409.367 6.48612C413.693 10.8152 415.857 16.1864 415.857 22.5998V63.7388H457.555C472.769 63.7388 485.647 69.0121 496.188 79.5587C506.729 90.1052 512 102.99 512 118.212V521.527C512 536.749 506.729 549.634 496.188 560.18C485.647 570.727 472.769 576 457.555 576H54.4452ZM54.4452 530.8H457.555C459.874 530.8 461.997 529.834 463.925 527.9C465.857 525.972 466.824 523.847 466.824 521.527V238.744H45.1765V521.527C45.1765 523.847 46.1428 525.972 48.0753 527.9C50.0028 529.834 52.1261 530.8 54.4452 530.8ZM45.1765 193.544H466.824V118.212C466.824 115.892 465.857 113.767 463.925 111.839C461.997 109.905 459.874 108.938 457.555 108.938H54.4452C52.1261 108.938 50.0028 109.905 48.0753 111.839C46.1428 113.767 45.1765 115.892 45.1765 118.212V193.544ZM256 352.323C248.626 352.323 242.342 349.724 237.146 344.526C231.956 339.333 229.361 333.045 229.361 325.662C229.361 318.285 231.956 311.997 237.146 306.799C242.342 301.606 248.626 299.01 256 299.01C263.374 299.01 269.658 301.606 274.854 306.799C280.044 311.997 282.639 318.285 282.639 325.662C282.639 333.045 280.044 339.333 274.854 344.526C269.658 349.724 263.374 352.323 256 352.323ZM116.676 344.526C111.485 339.333 108.89 333.045 108.89 325.662C108.89 318.285 111.485 311.997 116.676 306.799C121.871 301.606 128.156 299.01 135.529 299.01C142.903 299.01 149.188 301.606 154.383 306.799C159.573 311.997 162.168 318.285 162.168 325.662C162.168 333.045 159.573 339.333 154.383 344.526C149.188 349.724 142.903 352.323 135.529 352.323C128.156 352.323 121.871 349.724 116.676 344.526ZM376.471 352.323C369.097 352.323 362.812 349.724 357.617 344.526C352.427 339.333 349.832 333.045 349.832 325.662C349.832 318.285 352.427 311.997 357.617 306.799C362.812 301.606 369.097 299.01 376.471 299.01C383.844 299.01 390.129 301.606 395.324 306.799C400.514 311.997 403.11 318.285 403.11 325.662C403.11 333.045 400.514 339.333 395.324 344.526C390.129 349.724 383.844 352.323 376.471 352.323ZM256 470.534C248.626 470.534 242.342 467.936 237.146 462.738C231.956 457.545 229.361 451.259 229.361 443.882C229.361 436.499 231.956 430.211 237.146 425.019C242.342 419.821 248.626 417.222 256 417.222C263.374 417.222 269.658 419.821 274.854 425.019C280.044 430.211 282.639 436.499 282.639 443.882C282.639 451.259 280.044 457.545 274.854 462.738C269.658 467.936 263.374 470.534 256 470.534ZM116.676 462.738C111.485 457.545 108.89 451.259 108.89 443.882C108.89 436.499 111.485 430.211 116.676 425.019C121.871 419.821 128.156 417.222 135.529 417.222C142.903 417.222 149.188 419.821 154.383 425.019C159.573 430.211 162.168 436.499 162.168 443.882C162.168 451.259 159.573 457.545 154.383 462.738C149.188 467.936 142.903 470.534 135.529 470.534C128.156 470.534 121.871 467.936 116.676 462.738ZM376.471 470.534C369.097 470.534 362.812 467.936 357.617 462.738C352.427 457.545 349.832 451.259 349.832 443.882C349.832 436.499 352.427 430.211 357.617 425.019C362.812 419.821 369.097 417.222 376.471 417.222C383.844 417.222 390.129 419.821 395.324 425.019C400.514 430.211 403.11 436.499 403.11 443.882C403.11 451.259 400.514 457.545 395.324 462.738C390.129 467.936 383.844 470.534 376.471 470.534Z" fill="black"/>
</svg>
