<svg width="455" height="512" viewBox="0 0 455 512" fill="none" xmlns="http://www.w3.org/2000/svg">
<path d="M48.3839 512C34.8633 512 23.4191 507.313 14.0515 497.938C4.68382 488.563 0 477.11 0 463.58V105.077C0 91.5463 4.68382 80.0935 14.0515 70.7188C23.4191 61.3441 34.8633 56.6567 48.3839 56.6567H85.4396V20.5976C85.4396 14.7272 87.4046 9.82559 91.3346 5.89267C95.2645 1.96422 100.162 0 106.028 0C111.899 0 116.797 1.96422 120.722 5.89267C124.652 9.82559 126.617 14.7272 126.617 20.5976V56.6567H329.413V20.0887C329.413 14.388 331.334 9.61354 335.174 5.76544C339.02 1.92181 343.79 0 349.487 0C355.183 0 359.952 1.92181 363.793 5.76544C367.638 9.61354 369.56 14.388 369.56 20.0887V56.6567H406.616C420.137 56.6567 431.581 61.3441 440.949 70.7188C450.316 80.0935 455 91.5463 455 105.077V463.58C455 477.11 450.316 488.563 440.949 497.938C431.581 507.313 420.137 512 406.616 512H48.3839ZM48.3839 471.823H406.616C408.677 471.823 410.564 470.963 412.277 469.245C413.994 467.53 414.853 465.642 414.853 463.58V212.217H40.1471V463.58C40.1471 465.642 41.0058 467.53 42.7232 469.245C44.4361 470.963 46.323 471.823 48.3839 471.823ZM40.1471 172.039H414.853V105.077C414.853 103.015 413.994 101.126 412.277 99.4121C410.564 97.6934 408.677 96.8341 406.616 96.8341H48.3839C46.323 96.8341 44.4361 97.6934 42.7232 99.4121C41.0058 101.126 40.1471 103.015 40.1471 105.077V172.039ZM227.5 313.176C220.947 313.176 215.362 310.866 210.745 306.245C206.133 301.629 203.827 296.04 203.827 289.478C203.827 282.92 206.133 277.331 210.745 272.71C215.362 268.094 220.947 265.787 227.5 265.787C234.053 265.787 239.638 268.094 244.255 272.71C248.867 277.331 251.173 282.92 251.173 289.478C251.173 296.04 248.867 301.629 244.255 306.245C239.638 310.866 234.053 313.176 227.5 313.176ZM103.686 306.245C99.074 301.629 96.7678 296.04 96.7678 289.478C96.7678 282.92 99.074 277.331 103.686 272.71C108.303 268.094 113.888 265.787 120.441 265.787C126.994 265.787 132.579 268.094 137.196 272.71C141.808 277.331 144.115 282.92 144.115 289.478C144.115 296.04 141.808 301.629 137.196 306.245C132.579 310.866 126.994 313.176 120.441 313.176C113.888 313.176 108.303 310.866 103.686 306.245ZM334.559 313.176C328.006 313.176 322.421 310.866 317.804 306.245C313.192 301.629 310.885 296.04 310.885 289.478C310.885 282.92 313.192 277.331 317.804 272.71C322.421 268.094 328.006 265.787 334.559 265.787C341.112 265.787 346.697 268.094 351.314 272.71C355.926 277.331 358.232 282.92 358.232 289.478C358.232 296.04 355.926 301.629 351.314 306.245C346.697 310.866 341.112 313.176 334.559 313.176ZM227.5 418.253C220.947 418.253 215.362 415.943 210.745 411.322C206.133 406.706 203.827 401.119 203.827 394.562C203.827 387.999 206.133 382.41 210.745 377.794C215.362 373.174 220.947 370.864 227.5 370.864C234.053 370.864 239.638 373.174 244.255 377.794C248.867 382.41 251.173 387.999 251.173 394.562C251.173 401.119 248.867 406.706 244.255 411.322C239.638 415.943 234.053 418.253 227.5 418.253ZM103.686 411.322C99.074 406.706 96.7678 401.119 96.7678 394.562C96.7678 387.999 99.074 382.41 103.686 377.794C108.303 373.174 113.888 370.864 120.441 370.864C126.994 370.864 132.579 373.174 137.196 377.794C141.808 382.41 144.115 387.999 144.115 394.562C144.115 401.119 141.808 406.706 137.196 411.322C132.579 415.943 126.994 418.253 120.441 418.253C113.888 418.253 108.303 415.943 103.686 411.322ZM334.559 418.253C328.006 418.253 322.421 415.943 317.804 411.322C313.192 406.706 310.885 401.119 310.885 394.562C310.885 387.999 313.192 382.41 317.804 377.794C322.421 373.174 328.006 370.864 334.559 370.864C341.112 370.864 346.697 373.174 351.314 377.794C355.926 382.41 358.232 387.999 358.232 394.562C358.232 401.119 355.926 406.706 351.314 411.322C346.697 415.943 341.112 418.253 334.559 418.253Z" fill="black"/>
</svg>
