<svg width="500" height="369" viewBox="0 0 500 369" fill="none" xmlns="http://www.w3.org/2000/svg">
<path d="M165.741 287.412L442.593 10.1985C449.383 3.3995 457.253 0 466.204 0C475.154 0 483.025 3.3995 489.815 10.1985C496.605 16.9975 500 24.8781 500 33.8405C500 42.8028 496.605 50.6834 489.815 57.4824L189.815 358.801C183.025 365.6 175.154 369 166.204 369C157.253 369 149.383 365.6 142.593 358.801L10.1852 226.221C3.39506 219.422 0 211.541 0 202.579C0 193.617 3.39506 185.736 10.1852 178.937C16.9753 172.138 24.8457 168.739 33.7963 168.739C42.7469 168.739 50.6173 172.138 57.4074 178.937L165.741 287.412Z" fill="white"/>
</svg>
