<svg width="512" height="364" viewBox="0 0 512 364" fill="none" xmlns="http://www.w3.org/2000/svg">
<path d="M172.157 303.236L467.949 7.80079C473.039 2.71073 478.997 0.111548 485.823 0.00324898C492.648 -0.10505 498.717 2.49413 504.03 7.80079C509.343 13.1075 512 19.2007 512 26.0806C512 32.9661 509.343 39.0622 504.03 44.3689L193.823 354.732C187.631 360.911 180.409 364 172.157 364C163.905 364 156.683 360.911 150.491 354.732L7.53441 211.948C2.4439 206.858 -0.0671186 200.816 0.00136358 193.822C0.0641389 186.834 2.75206 180.686 8.06514 175.38C13.3782 170.073 19.4788 167.42 26.367 167.42C33.2609 167.42 39.3644 170.073 44.6774 175.38L172.157 303.236Z" fill="black"/>
</svg>
