<svg width="314" height="512" viewBox="0 0 314 512" fill="none" xmlns="http://www.w3.org/2000/svg">
<path d="M314 354.203C314 397.965 298.774 435.204 268.323 465.92C237.876 496.64 200.812 512 157.131 512C113.45 512 76.3417 496.64 45.805 465.92C15.2683 435.204 0 397.965 0 354.203V111.933C0 80.8399 10.7956 54.4112 32.3868 32.6468C53.9736 10.8823 80.3114 0 111.4 0C142.489 0 168.83 10.8823 190.421 32.6468C212.012 54.4112 222.808 80.8399 222.808 111.933V341.248C222.808 359.487 216.456 375.058 203.751 387.961C191.043 400.865 175.559 407.316 157.3 407.316C139.036 407.316 123.453 400.909 110.552 388.096C97.65 375.283 91.1991 359.667 91.1991 341.248V124.894C91.1991 119.168 93.1346 114.367 97.0056 110.491C100.881 106.62 105.684 104.684 111.414 104.684C117.14 104.684 121.938 106.62 125.809 110.491C129.675 114.367 131.609 119.168 131.609 124.894V341.248C131.609 348.47 134.036 354.551 138.89 359.491C143.745 364.432 149.782 366.902 157.003 366.902C164.22 366.902 170.255 364.432 175.11 359.491C179.964 354.551 182.391 348.47 182.391 341.248V111.677C182.113 91.776 175.186 74.9249 161.611 61.1234C148.035 47.3218 131.308 40.4211 111.427 40.4211C91.5426 40.4211 74.7362 47.3645 61.0082 61.2514C47.2802 75.1427 40.4162 92.0365 40.4162 111.933V354.203C40.1377 386.782 51.3982 414.489 74.1974 437.322C96.9966 460.16 124.673 471.579 157.226 471.579C189.316 471.579 216.595 460.16 239.062 437.322C261.524 414.489 273.031 386.782 273.584 354.203V124.894C273.584 119.168 275.522 114.367 279.397 110.491C283.272 106.62 288.075 104.684 293.805 104.684C299.531 104.684 304.329 106.62 308.2 110.491C312.067 114.367 314 119.168 314 124.894V354.203Z" fill="currentColor"/>
</svg>
