<svg width="512" height="512" viewBox="0 0 512 512" fill="none" xmlns="http://www.w3.org/2000/svg">
<path d="M256 297.195L50.023 503.172C44.1379 509.057 37.272 512 29.4253 512C21.5785 512 14.7126 509.057 8.82759 503.172C2.94253 497.287 0 490.421 0 482.575C0 474.728 2.94253 467.862 8.82759 461.977L214.805 256L8.82759 50.023C2.94253 44.1379 0 37.272 0 29.4253C0 21.5785 2.94253 14.7126 8.82759 8.82759C14.7126 2.94253 21.5785 0 29.4253 0C37.272 0 44.1379 2.94253 50.023 8.82759L256 214.805L461.977 8.82759C467.862 2.94253 474.728 0 482.575 0C490.421 0 497.287 2.94253 503.172 8.82759C509.057 14.7126 512 21.5785 512 29.4253C512 37.272 509.057 44.1379 503.172 50.023L297.195 256L503.172 461.977C509.057 467.862 512 474.728 512 482.575C512 490.421 509.057 497.287 503.172 503.172C497.287 509.057 490.421 512 482.575 512C474.728 512 467.862 509.057 461.977 503.172L256 297.195Z" fill="black"/>
</svg>
