<svg xmlns="http://www.w3.org/2000/svg" width="400" height="400" viewBox="0 0 400 400">
<g>
<path d="M 78.75 348.91 C68.21,346.43 58.67,338.49 53.63,328.00 L 50.50 321.50 L 50.19 234.50 C49.91,153.14 50.00,147.28 51.64,144.17 C53.84,140.02 57.65,137.99 63.20,138.03 C67.89,138.07 70.36,139.48 73.16,143.73 C74.89,146.36 74.99,150.91 75.00,231.00 C75.01,313.04 75.06,315.59 76.96,318.70 C81.00,325.33 76.22,325.00 168.55,325.00 C243.90,325.00 252.54,325.16 255.64,326.63 C259.88,328.64 262.01,332.54 261.97,338.20 C261.93,342.89 260.52,345.36 256.27,348.16 C253.64,349.89 249.16,349.98 168.00,349.89 C120.97,349.84 80.81,349.40 78.75,348.91 ZM 128.00 298.58 C116.83,295.44 108.59,288.49 103.59,278.00 L 100.50 271.50 L 100.50 175.00 L 100.50 78.50 L 103.61 72.00 C108.91,60.91 118.10,53.61 130.00,51.06 C134.07,50.18 159.65,49.95 228.50,50.19 L 321.50 50.50 L 328.00 53.63 C339.18,59.00 346.38,68.07 348.94,80.00 C349.82,84.07 350.05,109.65 349.81,178.50 L 349.50 271.50 L 346.41 278.00 C342.50,286.20 336.63,292.07 328.16,296.24 L 321.54 299.50 L 227.02 299.67 C153.43,299.81 131.50,299.57 128.00,298.58 ZM 318.09 273.45 C319.74,272.60 321.97,270.46 323.04,268.70 C324.94,265.59 324.99,263.00 324.99,175.00 C324.99,87.00 324.94,84.41 323.04,81.30 C318.99,74.65 324.48,75.00 224.80,75.00 C137.00,75.01 134.41,75.06 131.30,76.96 C124.65,81.01 125.00,75.54 125.00,175.00 C125.00,274.46 124.65,268.99 131.30,273.04 C134.41,274.94 137.00,274.99 224.80,275.00 C304.37,275.00 315.46,274.82 318.09,273.45 Z" fill="rgba(0,0,0,1)"/>
</g>
</svg>