<svg width="83" height="512" viewBox="0 0 83 512" fill="none" xmlns="http://www.w3.org/2000/svg">
<path d="M41.4055 512C29.9692 512 20.2079 507.952 12.1216 499.855C4.04053 491.753 0 482.016 0 470.646C0 459.276 4.07203 449.571 12.2161 441.532C20.3601 433.498 30.1529 429.48 41.5945 429.48C53.0308 429.48 62.7921 433.529 70.8784 441.626C78.9595 449.723 83 459.459 83 470.834C83 482.204 78.928 491.909 70.7839 499.949C62.6399 507.983 52.8471 512 41.4055 512ZM41.3582 358.402C31.0718 358.402 22.3134 354.773 15.083 347.517C7.85262 340.266 4.23743 331.545 4.23743 321.355V37.039C4.23743 26.8539 7.8999 18.1332 15.2248 10.8768C22.5497 3.62556 31.3554 0 41.6418 0C51.9282 0 60.6865 3.62556 67.917 10.8768C75.1474 18.1332 78.7626 26.8539 78.7626 37.039V321.355C78.7626 331.545 75.1001 340.266 67.7752 347.517C60.4503 354.773 51.6446 358.402 41.3582 358.402Z" fill="#EF4444"/>
</svg>
