<svg width="512" height="512" viewBox="0 0 512 512" fill="none" xmlns="http://www.w3.org/2000/svg">
<path d="M256 512C181.211 512 119.845 502.472 71.904 483.416C23.968 464.36 0 439.837 0 409.848V96C0 69.4133 24.9547 46.768 74.864 28.064C124.768 9.35468 185.147 0 256 0C326.853 0 387.232 9.35468 437.136 28.064C487.045 46.768 512 69.4133 512 96V409.848C512 439.837 488.032 464.36 440.096 483.416C392.155 502.472 330.789 512 256 512ZM256 152.984C301.045 152.984 346.984 146.533 393.816 133.632C440.648 120.731 470.381 106.093 483.016 89.72C470.259 73.064 440.669 58.0506 394.248 44.68C347.827 31.304 301.744 24.616 256 24.616C210.299 24.616 163.92 31.0373 116.864 43.88C69.808 56.7173 40.0427 71.1787 27.568 87.264C39.632 104.699 68.8213 120.011 115.136 133.2C161.456 146.389 208.411 152.984 256 152.984ZM255.816 319.88C277.805 319.88 299.795 318.68 321.784 316.28C343.773 313.88 364.728 310.381 384.648 305.784C404.563 301.192 423.341 295.531 440.984 288.8C458.627 282.069 474.093 274.643 487.384 266.52V122.216C473.56 130.749 457.931 138.379 440.496 145.104C423.056 151.835 404.245 157.499 384.064 162.096C363.877 166.688 342.955 170.216 321.296 172.68C299.632 175.139 277.805 176.368 255.816 176.368C233.005 176.368 210.501 175.035 188.304 172.368C166.112 169.701 145.056 166.072 125.136 161.48C105.221 156.883 86.7813 151.323 69.816 144.8C52.8507 138.277 37.784 130.749 24.616 122.216V266.52C37.3733 274.643 52.3067 281.968 69.416 288.496C86.5253 295.019 105.037 300.68 124.952 305.48C144.872 310.28 165.827 313.88 187.816 316.28C209.805 318.68 232.472 319.88 255.816 319.88ZM256 487.384C284.064 487.384 310.875 485.629 336.432 482.12C361.989 478.616 384.973 473.744 405.384 467.504C425.795 461.269 443.149 453.824 457.448 445.168C471.747 436.512 481.725 427.179 487.384 417.168V291.32C474.093 299.853 458.627 307.352 440.984 313.816C423.341 320.275 404.563 325.803 384.648 330.4C364.728 334.997 343.805 338.496 321.88 340.896C299.949 343.296 277.928 344.496 255.816 344.496C232.472 344.496 209.805 343.296 187.816 340.896C165.827 338.496 144.872 334.997 124.952 330.4C105.037 325.803 86.6267 320.171 69.72 313.504C52.8187 306.837 37.784 299.443 24.616 291.32V417.352C30.152 427.651 40.04 437.056 54.28 445.568C68.5147 454.08 85.8667 461.424 106.336 467.6C126.811 473.776 149.827 478.616 175.384 482.12C200.941 485.629 227.813 487.384 256 487.384Z" fill="black"/>
</svg>
