<svg width="455" height="512" viewBox="0 0 455 512" fill="none" xmlns="http://www.w3.org/2000/svg">
<path d="M85.1684 512C70.0877 512 57.1783 506.633 46.4403 495.898C35.7023 485.164 30.3333 472.258 30.3333 457.182V72.3068H22.75C16.3042 72.3068 10.9023 70.126 6.54442 65.7645C2.18148 61.4029 0 56.0002 0 49.5565C0 43.1076 2.18148 37.7075 6.54442 33.356C10.9023 28.9995 16.3042 26.8213 22.75 26.8213H136.5C136.5 19.397 139.116 13.0695 144.349 7.83869C149.576 2.61291 155.903 0 163.33 0H291.67C299.097 0 305.424 2.61291 310.651 7.83869C315.884 13.0695 318.5 19.397 318.5 26.8213H432.25C438.696 26.8213 444.098 29.0021 448.456 33.3636C452.819 37.7252 455 43.1278 455 49.5716C455 56.0205 452.819 61.4206 448.456 65.7721C444.098 70.1286 438.696 72.3068 432.25 72.3068H424.667V457.182C424.667 472.258 419.298 485.164 408.56 495.898C397.822 506.633 384.912 512 369.832 512H85.1684ZM379.167 72.3068H75.8333V457.182C75.8333 459.906 76.7079 462.143 78.4572 463.891C80.2064 465.64 82.4435 466.515 85.1684 466.515H369.832C372.557 466.515 374.794 465.64 376.543 463.891C378.292 462.143 379.167 459.906 379.167 457.182V72.3068ZM187.718 399.332C192.071 394.971 194.247 389.568 194.247 383.124V155.697C194.247 149.253 192.066 143.85 187.703 139.489C183.345 135.132 177.94 132.954 171.49 132.954C165.044 132.954 159.642 135.132 155.284 139.489C150.931 143.85 148.755 149.253 148.755 155.697V383.124C148.755 389.568 150.934 394.971 155.292 399.332C159.654 403.689 165.061 405.867 171.512 405.867C177.958 405.867 183.36 403.689 187.718 399.332ZM299.716 399.332C304.069 394.971 306.245 389.568 306.245 383.124V155.697C306.245 149.253 304.066 143.85 299.709 139.489C295.346 135.132 289.939 132.954 283.488 132.954C277.042 132.954 271.64 135.132 267.282 139.489C262.929 143.85 260.753 149.253 260.753 155.697V383.124C260.753 389.568 262.934 394.971 267.297 399.332C271.655 403.689 277.06 405.867 283.51 405.867C289.956 405.867 295.358 403.689 299.716 399.332Z" fill="black"/>
</svg>
