<svg width="512" height="265" viewBox="0 0 512 265" fill="none" xmlns="http://www.w3.org/2000/svg">
<path d="M5.46914 155.186C1.77399 151.485 -0.0487207 147.155 0.000989812 142.197C0.0465578 137.239 1.99769 132.831 5.8544 128.972C9.7111 125.37 14.0773 123.504 18.9531 123.376C23.8247 123.251 28.1889 125.117 32.0456 128.972L124.588 221.574L130.802 215.357C133.221 216.505 135.762 217.931 138.426 219.634C141.086 221.342 143.706 223.487 146.287 226.07C150.143 229.925 152.007 234.292 151.879 239.171C151.751 244.05 149.758 248.419 145.901 252.278L139.93 258.26C135.435 262.5 130.193 264.683 124.203 264.807C118.213 264.936 112.97 262.753 108.475 258.26L5.46914 155.186ZM264.635 221.189L480.204 5.47877C483.904 1.78121 488.23 -0.0447645 493.185 0.000833181C498.139 0.0505761 502.545 2.00297 506.402 5.85805C510.002 9.71727 511.866 14.0864 511.994 18.9653C512.118 23.8443 510.254 28.2134 506.402 32.0726L280.362 258.26C275.867 262.753 270.625 265 264.635 265C258.645 265 253.402 262.753 248.908 258.26L145.901 155.186C142.463 151.742 140.702 147.476 140.62 142.39C140.541 137.304 142.301 132.831 145.901 128.972C149.758 125.117 154.188 123.189 159.193 123.189C164.193 123.189 168.621 125.117 172.478 128.972L264.635 221.189ZM365.584 32.4519L269.127 128.972C265.685 132.416 261.422 134.178 256.339 134.257C251.256 134.34 246.789 132.578 242.936 128.972C239.079 125.117 237.151 120.685 237.151 115.678C237.151 110.671 239.079 106.239 242.936 102.384L339.393 5.85805C342.836 2.4175 347.096 0.655771 352.175 0.572866C357.258 0.494106 361.728 2.25583 365.584 5.85805C369.441 9.71727 371.369 14.1506 371.369 19.1581C371.369 24.1614 369.441 28.5926 365.584 32.4519Z" fill="black"/>
</svg>
