<svg width="512" height="512" viewBox="0 0 512 512" fill="none" xmlns="http://www.w3.org/2000/svg">
<path d="M254.905 512C220.041 512 187.131 505.263 156.174 491.79C125.212 478.312 98.1807 460.023 75.0791 436.921C51.9775 413.819 33.6877 386.697 20.2098 355.556C6.73659 324.414 0 291.228 0 256C0 220.079 6.85511 186.548 20.5653 155.406C34.2803 124.264 53.0157 97.1686 76.7716 74.1191C100.532 51.0744 128.429 32.96 160.462 19.776C192.5 6.592 226.662 0 262.948 0C296.024 0 327.569 5.46132 357.582 16.384C387.591 27.3067 414.002 42.6311 436.814 62.3573C459.622 82.0883 477.855 105.51 491.513 132.622C505.171 159.735 512 189.355 512 221.483C512 263.931 500.075 298.513 476.224 325.227C452.373 351.936 417.986 365.291 373.063 365.291H322.46C308.456 365.291 296.367 370.342 286.194 380.444C276.02 390.547 270.933 402.546 270.933 416.441C270.933 431.791 274.46 443.24 281.515 450.788C288.574 458.34 292.103 467.129 292.103 477.156C292.103 488.239 288.948 496.818 282.638 502.891C276.328 508.964 267.084 512 254.905 512ZM112.74 258.076C117.845 252.971 120.398 247.137 120.398 240.576C120.398 234.01 117.845 228.174 112.74 223.068C107.634 217.963 101.798 215.41 95.232 215.41C88.6708 215.41 82.8373 217.963 77.7316 223.068C72.6258 228.174 70.0729 234.01 70.0729 240.576C70.0729 247.137 72.6258 252.971 77.7316 258.076C82.8373 263.182 88.6708 265.735 95.232 265.735C101.798 265.735 107.634 263.182 112.74 258.076ZM200.149 141.02C205.255 135.915 207.808 130.079 207.808 123.513C207.808 116.952 205.255 111.118 200.149 106.012C195.044 100.907 189.21 98.3538 182.649 98.3538C176.083 98.3538 170.247 100.907 165.141 106.012C160.036 111.118 157.483 116.952 157.483 123.513C157.483 130.079 160.036 135.915 165.141 141.02C170.247 146.126 176.083 148.679 182.649 148.679C189.21 148.679 195.044 146.126 200.149 141.02ZM346.859 141.02C351.964 135.915 354.517 130.079 354.517 123.513C354.517 116.952 351.964 111.118 346.859 106.012C341.753 100.907 335.917 98.3538 329.351 98.3538C322.79 98.3538 316.956 100.907 311.851 106.012C306.745 111.118 304.192 116.952 304.192 123.513C304.192 130.079 306.745 135.915 311.851 141.02C316.956 146.126 322.79 148.679 329.351 148.679C335.917 148.679 341.753 146.126 346.859 141.02ZM435.641 258.076C440.742 252.971 443.292 247.137 443.292 240.576C443.292 234.01 440.742 228.174 435.641 223.068C430.535 217.963 424.699 215.41 418.133 215.41C411.567 215.41 405.732 217.963 400.626 223.068C395.525 228.174 392.974 234.01 392.974 240.576C392.974 247.137 395.525 252.971 400.626 258.076C405.732 263.182 411.567 265.735 418.133 265.735C424.699 265.735 430.535 263.182 435.641 258.076ZM254.905 490.119C260.12 490.119 263.976 489.052 266.475 486.919C268.973 484.786 270.222 481.531 270.222 477.156C270.222 470.519 266.695 464.173 259.641 458.119C252.582 452.065 249.052 440.05 249.052 422.073C249.052 400.631 256.073 382.161 270.116 366.663C284.153 351.161 301.528 343.41 322.24 343.41H373.063C410.913 343.41 439.886 332.224 459.982 309.852C480.073 287.481 490.119 258.024 490.119 221.483C490.119 161.46 467.145 113.188 421.198 76.6649C375.246 40.1422 322.496 21.8809 262.948 21.8809C195.193 21.8809 138.076 44.499 91.5982 89.7351C45.12 134.976 21.8809 190.398 21.8809 256C21.8809 320.654 44.6459 375.839 90.176 421.554C135.706 467.264 190.616 490.119 254.905 490.119Z" fill="black"/>
</svg>
