<svg width="512" height="512" viewBox="0 0 512 512" fill="none" xmlns="http://www.w3.org/2000/svg">
<path d="M123.08 256L185.232 193.848C187.568 191.544 188.84 188.557 189.048 184.888C189.251 181.219 188.08 178.112 185.536 175.568C182.992 173.024 180.056 171.752 176.728 171.752C173.4 171.752 170.245 172.923 167.264 175.264L102.704 240.432C100.037 242.688 98.1707 245.109 97.104 247.696C96.0373 250.283 95.504 253.115 95.504 256.192C95.504 259.264 96.0373 262.032 97.104 264.496C98.1707 266.955 100.037 269.312 102.704 271.568L168.68 337.536C170.781 339.877 173.613 341.149 177.176 341.352C180.739 341.56 183.792 340.304 186.336 337.584C188.88 334.864 190.152 331.765 190.152 328.288C190.152 324.816 188.984 321.909 186.648 319.568L123.08 256ZM388.92 256L325.352 319.568C323.016 321.499 321.848 324.288 321.848 327.936C321.848 331.589 323.12 334.789 325.664 337.536C328.208 340.288 331.157 341.664 334.512 341.664C337.872 341.664 340.808 340.288 343.32 337.536L410.064 271.368C412.219 269.245 413.829 266.891 414.896 264.304C415.963 261.717 416.496 258.885 416.496 255.808C416.496 252.736 415.963 249.968 414.896 247.504C413.829 245.045 412.219 242.755 410.064 240.632L343.32 174.464C342.419 173.435 341.189 172.592 339.632 171.936C338.075 171.28 336.515 170.952 334.952 170.952C333.395 170.952 331.779 171.179 330.104 171.632C328.429 172.08 326.936 172.971 325.624 174.304C323.107 177.333 321.848 180.528 321.848 183.888C321.848 187.243 323.016 190.091 325.352 192.432L388.92 256ZM44.304 512C32.0107 512 21.552 507.691 12.928 499.072C4.30934 490.448 0 479.989 0 467.696V44.304C0 32.0107 4.30934 21.552 12.928 12.928C21.552 4.30931 32.0107 0 44.304 0H467.696C479.989 0 490.448 4.30931 499.072 12.928C507.691 21.552 512 32.0107 512 44.304V467.696C512 479.989 507.691 490.448 499.072 499.072C490.448 507.691 479.989 512 467.696 512H44.304ZM44.304 487.384H467.696C472.619 487.384 477.131 485.333 481.232 481.232C485.333 477.131 487.384 472.619 487.384 467.696V44.304C487.384 39.3813 485.333 34.8694 481.232 30.768C477.131 26.6667 472.619 24.616 467.696 24.616H44.304C39.3813 24.616 34.8693 26.6667 30.768 30.768C26.6667 34.8694 24.616 39.3813 24.616 44.304V467.696C24.616 472.619 26.6667 477.131 30.768 481.232C34.8693 485.333 39.3813 487.384 44.304 487.384Z" fill="black"/>
</svg>
