<svg width="512" height="512" viewBox="0 0 512 512" fill="none" xmlns="http://www.w3.org/2000/svg">
<path d="M45.1765 466.824H83.1699L391.469 158.524L353.476 120.531L45.1765 428.83V466.824ZM27.2264 512C19.5112 512 13.046 509.39 7.83058 504.169C2.61019 498.954 0 492.489 0 484.774V432.595C0 425.251 1.41051 418.251 4.23153 411.595C7.04753 404.939 10.9277 399.139 15.872 394.195L397.267 12.9732C401.82 8.837 406.847 5.64204 412.348 3.38824C417.855 1.12941 423.627 0 429.666 0C435.704 0 441.552 1.0717 447.209 3.21507C452.872 5.35845 457.884 8.76673 462.246 13.44L499.027 50.6805C503.7 55.0425 507.031 60.0621 509.018 65.7393C511.006 71.4165 512 77.0936 512 82.7708C512 88.8295 510.966 94.6096 508.898 100.111C506.83 105.618 503.539 110.647 499.027 115.2L117.805 496.128C112.861 501.072 107.061 504.952 100.405 507.768C93.7487 510.59 86.7489 512 79.4052 512H27.2264ZM372.141 139.859L353.476 120.531L391.469 158.524L372.141 139.859Z" fill="black"/>
</svg>
