<svg width="512" height="512" viewBox="0 0 512 512" fill="none" xmlns="http://www.w3.org/2000/svg">
<path d="M64.7906 474.157H143.059C148.515 474.157 153.033 475.947 156.612 479.526C160.191 483.105 161.98 487.622 161.98 493.079C161.98 498.535 160.191 503.053 156.612 506.632C153.033 510.21 148.515 512 143.059 512H23.552C16.7454 512 11.1184 509.776 6.67106 505.329C2.22369 500.882 0 495.255 0 488.448V368.941C0 363.485 1.78949 358.967 5.36847 355.388C8.94745 351.809 13.4651 350.02 18.9214 350.02C24.3777 350.02 28.8954 351.809 32.4744 355.388C36.0533 358.967 37.8428 363.485 37.8428 368.941V447.209L134.182 350.871C137.811 347.241 142.286 345.379 147.607 345.284C152.927 345.183 157.468 347.013 161.227 350.773C164.987 354.532 166.867 359.025 166.867 364.25C166.867 369.476 164.954 373.998 161.129 377.818L64.7906 474.157ZM447.209 474.157L351.179 378.127C347.55 374.498 345.738 370.056 345.743 364.8C345.753 359.544 347.668 355.004 351.488 351.179C355.313 347.354 359.805 345.442 364.966 345.442C370.126 345.442 374.616 347.354 378.436 351.179L474.157 447.209V368.941C474.157 363.485 475.947 358.967 479.526 355.388C483.105 351.809 487.622 350.02 493.079 350.02C498.535 350.02 503.053 351.809 506.632 355.388C510.21 358.967 512 363.485 512 368.941V488.448C512 495.255 509.776 500.882 505.329 505.329C500.882 509.776 495.255 512 488.448 512H368.941C363.485 512 358.967 510.21 355.388 506.632C351.809 503.053 350.02 498.535 350.02 493.079C350.02 487.622 351.809 483.105 355.388 479.526C358.967 475.947 363.485 474.157 368.941 474.157H447.209ZM37.8428 64.7906V143.059C37.8428 148.515 36.0533 153.033 32.4744 156.612C28.8954 160.191 24.3777 161.98 18.9214 161.98C13.4651 161.98 8.94745 160.191 5.36847 156.612C1.78949 153.033 0 148.515 0 143.059V23.552C0 16.7454 2.22369 11.1184 6.67106 6.67105C11.1184 2.22368 16.7454 0 23.552 0H143.059C148.515 0 153.033 1.78949 156.612 5.36847C160.191 8.94745 161.98 13.4651 161.98 18.9214C161.98 24.3777 160.191 28.8954 156.612 32.4744C153.033 36.0533 148.515 37.8428 143.059 37.8428H64.7906L160.821 133.873C164.45 137.502 166.312 141.894 166.408 147.049C166.508 152.2 164.646 156.687 160.821 160.512C156.996 164.332 152.503 166.242 147.343 166.242C142.183 166.242 137.693 164.332 133.873 160.512L37.8428 64.7906ZM474.157 64.7906L378.127 160.821C374.498 164.45 370.106 166.262 364.951 166.257C359.8 166.247 355.313 164.332 351.488 160.512C347.668 156.687 345.758 152.195 345.758 147.034C345.758 141.874 347.668 137.384 351.488 133.564L447.209 37.8428H368.941C363.485 37.8428 358.967 36.0533 355.388 32.4744C351.809 28.8954 350.02 24.3777 350.02 18.9214C350.02 13.4651 351.809 8.94745 355.388 5.36847C358.967 1.78949 363.485 0 368.941 0H488.448C495.255 0 500.882 2.22368 505.329 6.67105C509.776 11.1184 512 16.7454 512 23.552V143.059C512 148.515 510.21 153.033 506.632 156.612C503.053 160.191 498.535 161.98 493.079 161.98C487.622 161.98 483.105 160.191 479.526 156.612C475.947 153.033 474.157 148.515 474.157 143.059V64.7906Z" fill="black"/>
</svg>
