<svg width="512" height="523" viewBox="0 0 512 523" fill="none" xmlns="http://www.w3.org/2000/svg">
<path d="M234.555 523C225.795 523 218.466 520.048 212.57 514.144C206.668 508.246 203.717 500.915 203.717 492.152V290.335L5.64141 38.4841C-0.818479 30.5577 -1.73053 22.1636 2.90525 13.3016C7.54685 4.43389 14.7765 0 24.5941 0H487.406C497.224 0 504.453 4.43389 509.095 13.3016C513.731 22.1636 512.818 30.5577 506.359 38.4841L308.283 290.335V492.152C308.283 500.915 305.332 508.246 299.43 514.144C293.534 520.048 286.205 523 277.445 523H234.555ZM256 285.636L446.451 43.81H65.5494L256 285.636Z" fill="black"/>
</svg>
