<svg width="512" height="512" viewBox="0 0 512 512" fill="none" xmlns="http://www.w3.org/2000/svg">
<path d="M270.403 378.186C274.275 374.315 276.211 369.516 276.211 363.789V249.263C276.211 243.537 274.273 238.736 270.397 234.86C266.521 230.988 261.72 229.053 255.993 229.053C250.262 229.053 245.464 230.988 241.597 234.86C237.725 238.736 235.789 243.537 235.789 249.263V363.789C235.789 369.516 237.727 374.315 241.603 378.186C245.479 382.062 250.28 384 256.007 384C261.738 384 266.536 382.062 270.403 378.186ZM271.441 176.674C275.658 172.501 277.767 167.332 277.767 161.165C277.767 154.999 275.681 149.83 271.508 145.657C267.336 141.489 262.166 139.405 256 139.405C249.834 139.405 244.664 141.489 240.492 145.657C236.319 149.83 234.233 154.999 234.233 161.165C234.233 167.332 236.342 172.501 240.559 176.674C244.772 180.846 249.919 182.932 256 182.932C262.081 182.932 267.228 180.846 271.441 176.674ZM256.047 512C220.638 512 187.356 505.281 156.2 491.843C125.045 478.406 97.9447 460.169 74.9002 437.133C51.8557 414.098 33.6101 387.009 20.1634 355.867C6.72112 324.725 0 291.452 0 256.047C0 220.638 6.71888 187.356 20.1566 156.2C33.5944 125.045 51.831 97.9447 74.8665 74.9002C97.902 51.8557 124.991 33.6101 156.133 20.1634C187.275 6.72112 220.548 0 255.953 0C291.362 0 324.644 6.71887 355.8 20.1566C386.955 33.5944 414.055 51.831 437.1 74.8665C460.144 97.902 478.39 124.991 491.837 156.133C505.279 187.275 512 220.548 512 255.953C512 291.362 505.281 324.644 491.843 355.8C478.406 386.955 460.169 414.055 437.133 437.1C414.098 460.144 387.009 478.39 355.867 491.837C324.725 505.279 291.452 512 256.047 512ZM256 471.579C316.182 471.579 367.158 450.695 408.926 408.926C450.695 367.158 471.579 316.182 471.579 256C471.579 195.818 450.695 144.842 408.926 103.074C367.158 61.3053 316.182 40.4211 256 40.4211C195.818 40.4211 144.842 61.3053 103.074 103.074C61.3053 144.842 40.4211 195.818 40.4211 256C40.4211 316.182 61.3053 367.158 103.074 408.926C144.842 450.695 195.818 471.579 256 471.579Z" fill="black"/>
</svg>
