<svg width="512" height="512" viewBox="0 0 512 512" fill="none" xmlns="http://www.w3.org/2000/svg">
<path d="M275.451 375.843C280.712 370.599 283.342 364.105 283.342 356.36V258.252C283.342 250.503 280.712 244.009 275.451 238.769C270.191 233.53 263.707 230.91 256 230.91C248.293 230.91 241.81 233.53 236.549 238.769C231.288 244.009 228.658 250.503 228.658 258.252V356.36C228.658 364.105 231.288 370.599 236.549 375.843C241.81 381.082 248.293 383.702 256 383.702C263.707 383.702 270.191 381.082 275.451 375.843ZM275.978 175.655C281.385 170.269 284.088 163.598 284.088 155.64C284.088 147.682 281.397 141.01 276.016 135.624C270.63 130.242 263.958 127.552 256 127.552C248.042 127.552 241.37 130.242 235.984 135.624C230.603 141.01 227.912 147.682 227.912 155.64C227.912 163.598 230.615 170.269 236.022 175.655C241.433 181.037 248.092 183.728 256 183.728C263.908 183.728 270.567 181.037 275.978 175.655ZM256 512C220.493 512 187.178 505.284 156.054 491.853C124.925 478.421 97.8491 460.195 74.8248 437.175C51.8047 414.151 33.5788 387.075 20.1473 355.946C6.71577 324.822 0 291.507 0 256C0 220.493 6.71577 187.178 20.1473 156.054C33.5788 124.925 51.8047 97.8491 74.8248 74.8248C97.8491 51.8047 124.925 33.5788 156.054 20.1473C187.178 6.71577 220.493 0 256 0C291.507 0 324.822 6.71577 355.946 20.1473C387.075 33.5788 414.151 51.8047 437.175 74.8248C460.195 97.8491 478.421 124.925 491.853 156.054C505.284 187.178 512 220.493 512 256C512 291.507 505.284 324.822 491.853 355.946C478.421 387.075 460.195 414.151 437.175 437.175C414.151 460.195 387.075 478.421 355.946 491.853C324.822 505.284 291.507 512 256 512Z" fill="black"/>
</svg>
