<svg width="512" height="472" viewBox="0 0 512 472" fill="none" xmlns="http://www.w3.org/2000/svg">
<path d="M48.7141 472C35.1012 472 23.5789 467.28 14.1474 457.84C4.71579 448.4 0 436.867 0 423.242V143.158C0 129.533 4.71579 118 14.1474 108.56C23.5789 99.12 35.1012 94.4 48.7141 94.4H161.684V48.7576C161.684 35.1325 166.4 23.6 175.832 14.16C185.263 4.72 196.785 0 210.398 0H301.602C315.215 0 326.737 4.72 336.168 14.16C345.6 23.6 350.316 35.1325 350.316 48.7576V94.4H463.286C476.899 94.4 488.421 99.12 497.853 108.56C507.284 118 512 129.533 512 143.158V423.242C512 436.867 507.284 448.4 497.853 457.84C488.421 467.28 476.899 472 463.286 472H48.7141ZM202.105 94.4H309.895V48.7576C309.895 46.6808 309.03 44.7793 307.301 43.0531C305.576 41.3225 303.677 40.4571 301.602 40.4571H210.398C208.323 40.4571 206.424 41.3225 204.699 43.0531C202.97 44.7793 202.105 46.6808 202.105 48.7576V94.4ZM471.579 316.914H323.368V339.732C323.368 346.686 321.044 352.487 316.396 357.135C311.752 361.788 305.956 364.114 299.008 364.114H212.992C206.044 364.114 200.248 361.788 195.604 357.135C190.956 352.487 188.632 346.686 188.632 339.732V316.914H40.4211V423.242C40.4211 425.319 41.2856 427.221 43.0147 428.947C44.7394 430.678 46.6392 431.543 48.7141 431.543H463.286C465.361 431.543 467.261 430.678 468.985 428.947C470.714 427.221 471.579 425.319 471.579 423.242V316.914ZM229.053 323.657H282.947V269.714H229.053V323.657ZM40.4211 276.457H188.632V253.639C188.632 246.685 190.956 240.884 195.604 236.236C200.248 231.583 206.044 229.257 212.992 229.257H299.008C305.956 229.257 311.752 231.583 316.396 236.236C321.044 240.884 323.368 246.685 323.368 253.639V276.457H471.579V143.158C471.579 141.081 470.714 139.179 468.985 137.453C467.261 135.722 465.361 134.857 463.286 134.857H48.7141C46.6392 134.857 44.7394 135.722 43.0147 137.453C41.2856 139.179 40.4211 141.081 40.4211 143.158V276.457Z" fill="black"/>
</svg>
