<svg width="512" height="458" viewBox="0 0 512 458" fill="none" xmlns="http://www.w3.org/2000/svg">
<path d="M40.4211 417.588H157.278V202.059H40.4211V417.588ZM197.699 417.588H314.301V40.4118H197.699V417.588ZM354.722 417.588H471.579V255.941H354.722V417.588ZM0 409.297V210.35C0 196.956 4.76968 185.49 14.3091 175.953C23.8484 166.416 35.3168 161.647 48.7141 161.647H157.278V48.7029C157.278 35.3087 162.048 23.8429 171.587 14.3058C181.127 4.76858 192.595 0 205.992 0H306.008C319.405 0 330.873 4.76858 340.413 14.3058C349.952 23.8429 354.722 35.3087 354.722 48.7029V215.529H463.286C476.683 215.529 488.152 220.298 497.691 229.835C507.23 239.372 512 250.838 512 264.232V409.297C512 422.691 507.23 434.157 497.691 443.694C488.152 453.231 476.683 458 463.286 458H48.7141C35.3168 458 23.8484 453.231 14.3091 443.694C4.76968 434.157 0 422.691 0 409.297Z" fill="black"/>
</svg>
