<svg width="512" height="625" viewBox="0 0 512 625" fill="none" xmlns="http://www.w3.org/2000/svg">
<path d="M256 576.643C322.352 517.284 373.127 460.349 408.326 405.838C443.526 351.326 461.126 303.582 461.126 262.605C461.126 200.817 441.482 150.023 402.196 110.221C362.91 70.4189 314.178 50.5179 256 50.5179C197.822 50.5179 149.09 70.4189 109.804 110.221C70.5176 150.023 50.8744 200.817 50.8744 262.605C50.8744 303.582 68.4741 351.326 103.674 405.838C138.873 460.349 189.648 517.284 256 576.643ZM236.176 621.585C229.562 619.303 223.582 615.773 218.234 610.994C187.8 582.964 159.319 554.098 132.791 524.396C106.268 494.7 83.2136 465.013 63.6269 435.333C44.0346 405.654 28.5321 376.238 17.1192 347.084C5.70641 317.924 0 289.765 0 262.605C0 184.391 25.3157 121.069 75.947 72.6417C126.584 24.2139 186.602 0 256 0C325.398 0 385.416 24.2139 436.053 72.6417C486.684 121.069 512 184.391 512 262.605C512 289.765 506.294 317.868 494.881 346.914C483.468 375.967 468.022 405.386 448.543 435.172C429.058 464.959 406.054 494.647 379.532 524.235C353.009 553.83 324.528 582.639 294.088 610.663C288.741 615.442 282.709 619.026 275.994 621.416C269.273 623.805 262.608 625 256 625C249.392 625 242.784 623.862 236.176 621.585ZM299.337 299.464C311.32 287.494 317.312 273.058 317.312 256.157C317.312 239.255 311.32 224.817 299.337 212.841C287.358 200.871 272.913 194.886 256 194.886C239.087 194.886 224.642 200.871 212.664 212.841C200.68 224.817 194.688 239.255 194.688 256.157C194.688 273.058 200.68 287.494 212.664 299.464C224.642 311.434 239.087 317.419 256 317.419C272.913 317.419 287.358 311.434 299.337 299.464Z" fill="#000000"/>
</svg>
