<svg width="137" height="56" viewBox="0 0 137 56" fill="none" xmlns="http://www.w3.org/2000/svg">
<path d="M100.823 0.209961C77.4319 50.7632 56.552 46.8055 0.052002 52.71C68.552 48.21 75.052 44.71 95.552 24.21L100.823 43.71V0.209961Z" fill="#2563EB" stroke="#2563EB"/>
<path d="M0.122314 29.4055V26.7549H14.0485V29.4055H8.65357V44.2094H5.5172V29.4055H0.122314Z" fill="white"/>
<path d="M16.7331 44.2094V26.7549H23.2786C24.6195 26.7549 25.7445 27.0049 26.6536 27.5049C27.5683 28.0049 28.2587 28.6924 28.7246 29.5674C29.1962 30.4367 29.432 31.4253 29.432 32.5333C29.432 33.6526 29.1962 34.6469 28.7246 35.5162C28.253 36.3856 27.557 37.0702 26.6365 37.5702C25.7161 38.0645 24.5825 38.3117 23.236 38.3117H18.8979V35.7123H22.8098C23.5939 35.7123 24.236 35.5759 24.736 35.3032C25.236 35.0305 25.6053 34.6555 25.8439 34.1782C26.0882 33.7009 26.2104 33.1526 26.2104 32.5333C26.2104 31.914 26.0882 31.3685 25.8439 30.8969C25.6053 30.4253 25.2331 30.0589 24.7274 29.7975C24.2274 29.5305 23.5825 29.3969 22.7928 29.3969H19.895V44.2094H16.7331Z" fill="white"/>
<path d="M32.4746 44.2094H29.0996L35.2445 26.7549H39.1479L45.3013 44.2094H41.9263L37.2644 30.3344H37.128L32.4746 44.2094ZM32.5854 37.3657H41.7899V39.9055H32.5854V37.3657Z" fill="white"/>
<path d="M47.6003 26.7549H51.4696L56.6514 39.4026H56.856L62.0378 26.7549H65.9071V44.2094H62.873V32.218H62.7111L57.8872 44.1583H55.6202L50.7963 32.1924H50.6344V44.2094H47.6003V26.7549Z" fill="white"/>
<path d="M83.5918 26.7549V44.2094H80.4554V29.3799H72.819V44.2094H69.6827V26.7549H83.5918Z" fill="white"/>
<path d="M104.764 26.7549H107.901V38.6526H108.063L116.27 26.7549H119.108V44.2094H115.946V32.3202H115.801L107.568 44.2094H104.764V26.7549Z" fill="white"/>
<path d="M122.553 44.2094V26.7549H125.715V34.1441H133.803V26.7549H136.974V44.2094H133.803V36.7947H125.715V44.2094H122.553Z" fill="white"/>
<path d="M86.2434 44.2098V41.5848L86.7377 41.5593C87.4082 41.5195 87.9394 41.278 88.3315 40.8348C88.7292 40.3917 89.0218 39.6786 89.2093 38.6956C89.4025 37.7127 89.5303 36.3945 89.5928 34.7411L89.8826 26.7553C94.7351 21.4294 97.6499 17.0448 101.32 10.71V44.2098H98.2264V22.21C96.1599 24.7187 94.9651 26.1324 92.8315 28.3547L92.5588 35.7212C92.4792 37.6303 92.269 39.2127 91.9281 40.4684C91.5928 41.724 91.0417 42.6615 90.2747 43.2809C89.5133 43.9002 88.4536 44.2098 87.0957 44.2098H86.2434Z" fill="white"/>
</svg>
