<svg width="512" height="377" viewBox="0 0 512 377" fill="none" xmlns="http://www.w3.org/2000/svg">
<path d="M45.229 377C32.8932 377 22.2711 372.545 13.3626 363.636C4.45421 354.727 0 344.104 0 331.767V45.233C0 32.8961 4.45421 22.273 13.3626 13.3638C22.2711 4.4546 32.8932 0 45.229 0H466.771C479.435 0 490.139 4.4546 498.883 13.3638C507.628 22.273 512 32.8961 512 45.233V331.767C512 344.104 507.628 354.727 498.883 363.636C490.139 372.545 479.435 377 466.771 377H45.229ZM475.429 80.6682L268.209 202.834C266.095 203.918 264.116 204.811 262.273 205.514C260.435 206.218 258.344 206.569 256 206.569C253.656 206.569 251.682 206.218 250.078 205.514C248.47 204.811 246.604 203.918 244.48 202.834L36.5714 80.6682V331.767C36.5714 334.294 37.3826 336.369 39.0048 337.992C40.6271 339.614 42.7018 340.425 45.229 340.425H466.771C469.298 340.425 471.373 339.614 472.995 337.992C474.617 336.369 475.429 334.294 475.429 331.767V80.6682ZM256 162.476L470.4 36.5746H42.3033L256 162.476ZM36.5714 71.5948V77.3764V49.7204V50.2057V49.3124V77.4397V71.6511V340.425V71.5948Z" fill="black"/>
</svg>
