<svg width="512" height="512" viewBox="0 0 512 512" fill="none" xmlns="http://www.w3.org/2000/svg">
<path d="M126.156 412.29L31.8146 506.658C28.2493 510.224 23.9343 512.005 18.8698 512C13.8103 511.995 9.40162 510.113 5.64393 506.354C1.88624 502.596 0.00740318 498.181 0.00740318 493.11C0.00740318 488.039 1.88624 483.627 5.64393 479.873L99.6823 385.808H22.7902C17.5137 385.808 13.0977 384.02 9.54217 380.444C5.98173 376.868 4.20152 372.428 4.20152 367.125C4.20152 361.823 5.98173 357.413 9.54217 353.896C13.0977 350.379 17.5137 348.62 22.7902 348.62H140.196C146.799 348.62 152.305 350.828 156.713 355.242C161.127 359.652 163.334 365.16 163.334 371.765V489.203C163.334 494.481 161.546 498.899 157.971 502.455C154.396 506.017 149.957 507.797 144.656 507.797C139.355 507.797 134.946 506.017 131.43 502.455C127.914 498.899 126.156 494.481 126.156 489.203V412.29ZM385.245 412.29V489.203C385.245 494.481 383.457 498.899 379.882 502.455C376.307 506.017 371.868 507.797 366.567 507.797C361.266 507.797 356.857 506.017 353.341 502.455C349.825 498.899 348.067 494.481 348.067 489.203V371.765C348.067 365.16 350.274 359.652 354.687 355.242C359.096 350.828 364.602 348.62 371.205 348.62H488.611C493.887 348.62 498.303 350.408 501.859 353.985C505.419 357.561 507.199 362 507.199 367.303C507.199 372.606 505.419 377.016 501.859 380.533C498.303 384.05 493.887 385.808 488.611 385.808H411.719L506.06 480.176C509.626 483.743 511.455 488.059 511.549 493.125C511.647 498.186 509.818 502.596 506.06 506.354C502.307 510.113 497.894 511.993 492.82 511.993C487.75 511.993 483.339 510.113 479.586 506.354L385.245 412.29ZM99.6823 126.647L5.34065 32.2788C1.77529 28.7124 -0.00492113 24.3469 1.02169e-05 19.1823C0.00494157 14.0128 1.88624 9.55113 5.64393 5.79732C9.40162 2.03857 13.8152 0.159201 18.8846 0.159201C23.954 0.159201 28.3651 2.03857 32.1179 5.79732L126.156 100.166V23.2518C126.156 17.9738 127.944 13.5565 131.519 10C135.094 6.43857 139.533 4.65787 144.834 4.65787C150.135 4.65787 154.544 6.43857 158.06 10C161.576 13.5565 163.334 17.9738 163.334 23.2518V140.69C163.334 147.295 161.127 152.803 156.713 157.213C152.305 161.628 146.799 163.835 140.196 163.835H22.7902C17.5137 163.835 13.0977 162.047 9.54217 158.471C5.98173 154.894 4.20152 150.455 4.20152 145.152C4.20152 139.849 5.98173 135.44 9.54217 131.923C13.0977 128.406 17.5137 126.647 22.7902 126.647H99.6823ZM411.719 126.647H488.611C493.887 126.647 498.303 128.435 501.859 132.011C505.419 135.588 507.199 140.027 507.199 145.33C507.199 150.632 505.419 155.042 501.859 158.559C498.303 162.076 493.887 163.835 488.611 163.835H371.205C364.602 163.835 359.096 161.628 354.687 157.213C350.274 152.803 348.067 147.295 348.067 140.69V23.2518C348.067 17.9738 349.855 13.5565 353.43 10C357.005 6.43857 361.443 4.65787 366.745 4.65787C372.046 4.65787 376.454 6.43857 379.97 10C383.487 13.5565 385.245 17.9738 385.245 23.2518V100.166L479.89 5.49398C483.455 1.9276 487.851 0.0975708 493.078 0.00384872C498.306 -0.0948061 502.766 1.70316 506.46 5.39778C510.153 9.09241 512 13.5072 512 18.6422C512 23.7772 510.121 28.2216 506.363 31.9754L411.719 126.647Z" fill="black"/>
</svg>
