<svg width="390" height="512" viewBox="0 0 390 512" fill="none" xmlns="http://www.w3.org/2000/svg">
<path d="M11.7836 439.167C8.44536 439.167 5.64803 438.027 3.3916 435.748C1.13053 433.469 0 430.645 0 427.275C0 423.91 1.13053 421.122 3.3916 418.913C5.64803 416.703 8.44536 415.599 11.7836 415.599H45.0032V189.878C45.0032 153.465 56.4432 121.248 79.3232 93.2264C102.203 65.2097 131.476 47.9755 167.143 41.5237V27.8495C167.143 20.112 169.845 13.5372 175.249 8.12509C180.654 2.70836 187.216 0 194.937 0C202.658 0 209.242 2.70836 214.688 8.12509C220.134 13.5372 222.857 20.112 222.857 27.8495V41.5237C258.524 47.9755 287.797 65.2097 310.677 93.2264C333.557 121.248 344.997 153.465 344.997 189.878V415.599H378.216C381.555 415.599 384.352 416.738 386.608 419.017C388.869 421.296 390 424.121 390 427.491C390 430.86 388.869 433.648 386.608 435.852C384.352 438.062 381.555 439.167 378.216 439.167H11.7836ZM194.902 512C182.501 512 171.918 507.595 163.152 498.785C154.382 489.976 149.997 479.386 149.997 467.016H240.003C240.003 479.479 235.586 490.092 226.75 498.855C217.919 507.618 207.304 512 194.902 512ZM68.5704 415.599H321.43V189.878C321.43 154.908 309.103 125.1 284.449 100.453C259.791 75.8065 229.975 63.483 195 63.483C160.025 63.483 130.209 75.8065 105.551 100.453C80.8971 125.1 68.5704 154.908 68.5704 189.878V415.599Z" fill="white"/>
</svg>
