<svg width="512" height="511" viewBox="0 0 512 511" fill="none" xmlns="http://www.w3.org/2000/svg">
<path d="M468.764 510.801C409.88 505.944 353.277 490.407 298.955 464.19C244.638 437.972 195.458 402.802 151.415 358.678C107.377 314.549 72.5151 265.52 46.8278 211.59C21.1406 157.666 5.5976 101.272 0.198849 42.4103C-0.8809 30.9854 2.43662 21.0608 10.1514 12.6364C17.8608 4.21214 27.5003 0 39.0698 0H123.663C133.461 0 141.892 2.93854 148.953 8.81558C156.015 14.6872 160.936 22.356 163.716 31.8219L180.665 99.5698C181.95 106.791 181.545 113.847 179.451 120.739C177.351 127.63 173.933 133.235 169.199 137.552L94.3881 210.351C106.427 232.931 119.778 254.186 134.441 274.116C149.099 294.041 165.163 312.676 182.633 330.021C199.882 347.258 218.516 363.225 238.535 377.92C258.553 392.615 280.17 405.983 303.384 418.023L380.122 343.111C384.652 338.378 389.845 335.221 395.703 333.64C401.555 332.064 408.096 331.816 415.325 332.895L480.166 347.159C489.965 349.857 497.72 354.838 503.432 362.102C509.144 369.366 512 378.001 512 388.007V471.945C512 483.51 507.651 493.146 498.954 500.852C490.257 508.564 480.193 511.881 468.764 510.801ZM75.4466 169.253L136.498 110.717C137.535 109.886 138.21 108.744 138.523 107.293C138.836 105.841 138.785 104.492 138.369 103.245L124.157 47.0731C123.741 45.4163 123.015 44.1723 121.978 43.3412C120.942 42.5101 119.592 42.0946 117.929 42.0946H47.9778C46.7306 42.0946 45.6914 42.5101 44.86 43.3412C44.034 44.1723 43.621 45.2112 43.621 46.4578C45.2784 66.9654 48.9009 87.4191 54.4886 107.819C60.0709 128.224 67.0569 148.702 75.4466 169.253ZM345.924 437.759C365.289 446.275 385.537 452.743 406.668 457.163C427.804 461.578 447.423 464.824 465.525 466.901C466.772 466.901 467.811 466.486 468.643 465.655C469.474 464.824 469.89 463.785 469.89 462.538V392.799C469.89 391.137 469.474 389.787 468.643 388.751C467.811 387.715 466.567 386.989 464.909 386.574L412.272 375.176C411.025 374.76 409.934 374.709 409 375.022C408.066 375.335 407.078 376.01 406.036 377.046L345.924 437.759Z" fill="black"/>
</svg>
