<svg width="512" height="512" viewBox="0 0 512 512" fill="none" xmlns="http://www.w3.org/2000/svg">
<path d="M231.257 280.743H24.7434C17.7329 280.743 11.858 278.357 7.11876 273.585C2.37292 268.82 0 262.915 0 255.872C0 248.822 2.37292 242.957 7.11876 238.277C11.858 233.597 17.7329 231.257 24.7434 231.257H231.257V24.7434C231.257 17.7329 233.643 11.858 238.415 7.11875C243.18 2.3729 249.085 0 256.128 0C263.178 0 269.043 2.3729 273.723 7.11875C278.403 11.858 280.743 17.7329 280.743 24.7434V231.257H487.257C494.267 231.257 500.142 233.643 504.881 238.415C509.627 243.18 512 249.085 512 256.128C512 263.178 509.627 269.043 504.881 273.723C500.142 278.403 494.267 280.743 487.257 280.743H280.743V487.257C280.743 494.267 278.357 500.142 273.585 504.881C268.82 509.627 262.915 512 255.872 512C248.822 512 242.957 509.627 238.277 504.881C233.597 500.142 231.257 494.267 231.257 487.257V280.743Z" fill="black"/>
</svg>
