<svg width="512" height="512" viewBox="0 0 512 512" fill="none" xmlns="http://www.w3.org/2000/svg">
<path d="M88.1422 416.491C114.169 398.49 140.651 384.332 167.588 374.016C194.524 363.705 223.995 358.549 256 358.549C288.005 358.549 317.495 363.705 344.469 374.016C371.444 384.332 397.945 398.49 423.972 416.491C443.892 395.134 459.532 370.987 470.891 344.05C482.25 317.113 487.929 287.763 487.929 256C487.929 191.346 465.439 136.526 420.459 91.5413C375.474 46.5612 320.654 24.0711 256 24.0711C191.346 24.0711 136.526 46.5612 91.5413 91.5413C46.5612 136.526 24.0711 191.346 24.0711 256C24.0711 287.763 29.7671 317.113 41.1591 344.05C52.5559 370.987 68.2169 395.134 88.1422 416.491ZM195.762 277.76C179.492 261.49 171.356 241.413 171.356 217.529C171.356 193.64 179.492 173.561 195.762 157.291C212.037 141.02 232.116 132.885 256 132.885C279.884 132.885 299.963 141.02 316.238 157.291C332.508 173.561 340.644 193.64 340.644 217.529C340.644 241.413 332.508 261.49 316.238 277.76C299.963 294.03 279.884 302.165 256 302.165C232.116 302.165 212.037 294.03 195.762 277.76ZM256 512C220.373 512 187.048 505.354 156.025 492.061C125.001 478.767 97.8892 460.518 74.688 437.312C51.4821 414.111 33.2326 386.999 19.9396 355.975C6.64651 324.952 0 291.627 0 256C0 220.297 6.64651 186.954 19.9396 155.968C33.2326 124.983 51.4821 97.8892 74.688 74.688C97.8892 51.4821 125.001 33.2326 156.025 19.9395C187.048 6.6465 220.373 0 256 0C291.703 0 325.047 6.6465 356.032 19.9395C387.018 33.2326 414.111 51.4821 437.312 74.688C460.518 97.8892 478.767 124.983 492.061 155.968C505.354 186.954 512 220.297 512 256C512 291.627 505.354 324.952 492.061 355.975C478.767 386.999 460.518 414.111 437.312 437.312C414.111 460.518 387.018 478.767 356.032 492.061C325.047 505.354 291.703 512 256 512ZM335.133 474.119C361.282 464.913 384.524 451.454 404.857 433.742C384.524 417.903 361.752 405.421 336.54 396.295C311.329 387.174 284.482 382.613 256 382.613C227.518 382.613 200.581 387.084 175.189 396.025C149.793 404.966 127.232 417.538 107.506 433.742C127.597 451.454 150.718 464.913 176.868 474.119C203.013 483.326 229.39 487.929 256 487.929C282.61 487.929 308.987 483.326 335.133 474.119ZM299.25 260.779C310.798 249.23 316.572 234.814 316.572 217.529C316.572 200.244 310.798 185.828 299.25 174.279C287.701 162.731 273.285 156.956 256 156.956C238.715 156.956 224.299 162.731 212.75 174.279C201.202 185.828 195.428 200.244 195.428 217.529C195.428 234.814 201.202 249.23 212.75 260.779C224.299 272.327 238.715 278.101 256 278.101C273.285 278.101 287.701 272.327 299.25 260.779Z" fill="white"/>
</svg>
