<svg width="512" height="513" viewBox="0 0 512 513" fill="none" xmlns="http://www.w3.org/2000/svg">
<path d="M185.51 371.642C133.707 371.642 89.8364 353.646 53.8988 317.653C17.9663 281.655 0 237.711 0 185.821C0 133.931 17.9663 89.9871 53.8988 53.9892C89.8364 17.9964 133.707 0 185.51 0C237.313 0 281.183 17.9964 317.121 53.9892C353.054 89.9871 371.02 133.931 371.02 185.821C371.02 207.522 367.385 228.248 360.114 247.999C352.839 267.751 343.134 284.929 330.999 299.535L505.551 474.379C509.752 478.582 511.901 483.869 511.997 490.241C512.093 496.612 509.944 501.998 505.551 506.399C501.157 510.8 495.828 513 489.564 513C483.305 513 477.978 510.8 473.584 506.399L299.033 331.555C283.866 344.099 266.423 353.917 246.704 361.007C226.986 368.097 206.588 371.642 185.51 371.642ZM185.51 326.07C224.597 326.07 257.704 312.482 284.829 285.306C311.959 258.136 325.524 224.974 325.524 185.821C325.524 146.668 311.959 113.506 284.829 86.3356C257.704 59.16 224.597 45.5721 185.51 45.5721C146.422 45.5721 113.316 59.16 86.1911 86.3356C59.0609 113.506 45.4958 146.668 45.4958 185.821C45.4958 224.974 59.0609 258.136 86.1911 285.306C113.316 312.482 146.422 326.07 185.51 326.07Z" fill="#000000"/>
</svg>
