<svg width="398" height="512" viewBox="0 0 398 512" fill="none" xmlns="http://www.w3.org/2000/svg">
<path d="M39.3594 512C28.7271 512 19.5091 508.096 11.7055 500.288C3.90182 492.48 0 483.257 0 472.619V212.132C0 201.209 3.90182 191.915 11.7055 184.249C19.5091 176.578 28.7271 172.743 39.3594 172.743H88.5692V110.492C88.5692 79.7108 99.2939 53.6012 120.743 32.1635C142.193 10.7212 168.316 0 199.114 0C229.907 0 255.992 10.7212 277.37 32.1635C298.744 53.6012 309.431 79.7108 309.431 110.492V172.743H358.641C369.273 172.743 378.491 176.578 386.295 184.249C394.098 191.915 398 201.209 398 212.132V472.619C398 483.257 394.098 492.48 386.295 500.288C378.491 508.096 369.273 512 358.641 512H39.3594ZM39.3594 490.119H358.641C363.739 490.119 367.93 488.479 371.213 485.198C374.492 481.913 376.131 477.72 376.131 472.619V212.132C376.131 207.026 374.492 202.833 371.213 199.552C367.93 196.267 363.739 194.624 358.641 194.624H39.3594C34.2612 194.624 30.0703 196.267 26.7868 199.552C23.5081 202.833 21.8687 207.026 21.8687 212.132V472.619C21.8687 477.72 23.5081 481.913 26.7868 485.198C30.0703 488.479 34.2612 490.119 39.3594 490.119ZM228.438 371.89C236.549 363.816 240.605 354.086 240.605 342.699C240.605 331.762 236.512 322.034 228.324 313.515C220.132 305 210.317 300.743 198.879 300.743C187.441 300.743 177.669 305 169.562 313.515C161.451 322.034 157.395 331.88 157.395 343.054C157.395 354.233 161.488 363.852 169.676 371.911C177.868 379.97 187.683 384 199.121 384C210.559 384 220.331 379.963 228.438 371.89ZM110.431 172.743H287.569V110.492C287.569 85.8785 278.97 64.9576 261.77 47.7298C244.571 30.4972 223.685 21.8809 199.114 21.8809C174.547 21.8809 153.626 30.4972 136.351 47.7298C119.071 64.9576 110.431 85.8785 110.431 110.492V172.743Z" fill="black"/>
</svg>
