<svg width="512" height="512" viewBox="0 0 512 512" fill="none" xmlns="http://www.w3.org/2000/svg">
<path d="M155.803 491.816C124.656 478.361 97.518 460.111 74.3882 437.066C51.2584 414.022 33.0779 386.859 19.8467 355.577C6.61559 324.291 0 290.78 0 255.043C0 219.302 6.61559 185.928 19.8467 154.92C33.0779 123.913 51.2584 96.8893 74.3882 73.8493C97.518 50.8048 124.656 32.7365 155.803 19.6446C186.95 6.54819 220.349 0 256 0C291.651 0 325.05 6.54819 356.197 19.6446C387.344 32.7365 414.482 50.8048 437.612 73.8493C460.742 96.8893 478.922 123.913 492.153 154.92C505.384 185.928 512 219.302 512 255.043C512 290.78 505.384 324.291 492.153 355.577C478.922 386.859 460.742 414.022 437.612 437.066C414.482 460.111 387.344 478.361 356.197 491.816C325.05 505.272 291.651 512 256 512C220.349 512 186.95 505.272 155.803 491.816ZM256 482.769C272.757 464.701 286.54 445.096 297.351 423.956C308.166 402.812 317.029 378.04 323.941 349.642H188.477C195.281 377.627 204.09 402.353 214.905 423.822C225.72 445.294 239.418 464.943 256 482.769ZM213.248 477.278C200.637 460.903 189.469 441.843 179.746 420.096C170.018 398.345 162.374 374.86 156.813 349.642H49.5427C66.7801 384.467 88.4413 411.967 114.526 432.142C140.611 452.321 173.519 467.366 213.248 477.278ZM299.426 476.867C334.7 468.954 366.588 453.976 395.089 431.933C423.59 409.894 446.046 382.464 462.457 349.642H355.604C348.899 374.932 340.797 398.365 331.298 419.941C321.794 441.512 311.17 460.488 299.426 476.867ZM39.6935 319.07H151.215C149.522 306.769 148.435 295.444 147.955 285.096C147.469 274.749 147.227 264.686 147.227 254.909C147.227 244.026 147.537 233.732 148.157 224.027C148.781 214.317 149.94 203.814 151.633 192.519H39.6935C36.3789 202.952 34.03 213.039 32.6467 222.781C31.2679 232.522 30.5785 243.231 30.5785 254.909C30.5785 266.761 31.2679 277.765 32.6467 287.919C34.03 298.078 36.3789 308.462 39.6935 319.07ZM182.622 319.07H329.795C331.763 305.493 333.058 293.935 333.683 284.396C334.302 274.861 334.612 265.032 334.612 254.909C334.612 245.239 334.302 235.816 333.683 226.641C333.058 217.47 331.763 206.096 329.795 192.519H182.622C180.651 206.096 179.355 217.47 178.735 226.641C178.111 235.816 177.799 245.239 177.799 254.909C177.799 265.032 178.111 274.861 178.735 284.396C179.355 293.935 180.651 305.493 182.622 319.07ZM360.367 319.07H472.307C475.621 308.462 477.97 298.078 479.353 287.919C480.732 277.765 481.421 266.761 481.421 254.909C481.421 243.231 480.732 232.522 479.353 222.781C477.97 213.039 475.621 202.952 472.307 192.519H361.041C362.563 207.376 363.635 219.475 364.254 228.817C364.879 238.163 365.191 246.86 365.191 254.909C365.191 264.965 364.809 274.845 364.045 284.551C363.286 294.261 362.06 305.767 360.367 319.07ZM355.187 161.947H462.457C446.599 127.499 424.634 99.3841 396.564 77.6017C368.494 55.8192 335.89 41.4383 298.752 34.459C311.363 51.4223 322.376 70.4674 331.79 91.5941C341.203 112.721 349.002 136.172 355.187 161.947ZM188.477 161.947H324.615C318.637 136.585 309.767 112.66 298.004 90.1726C286.237 67.6805 272.236 47.6429 256 30.0598C240.766 44.0859 227.905 61.4108 217.418 82.0345C206.931 102.658 197.284 129.296 188.477 161.947ZM49.5427 161.947H157.231C162.859 137.003 170.269 114.079 179.463 93.1773C188.652 72.2751 199.689 52.8416 212.574 34.8766C175.436 42.0267 143.082 56.311 115.51 77.7297C87.9427 99.1529 65.9537 127.225 49.5427 161.947Z" fill="black"/>
</svg>
