<svg width="512" height="353" viewBox="0 0 512 353" fill="none" xmlns="http://www.w3.org/2000/svg">
<path d="M23.6561 353C16.8919 353 11.2581 350.694 6.75488 346.082C2.25163 341.475 0 335.776 0 328.984C0 322.188 2.25163 316.54 6.75488 312.04C11.2581 307.545 16.8919 305.297 23.6561 305.297H150.355C157.12 305.297 162.781 307.601 167.341 312.208C171.9 316.815 174.179 322.542 174.179 329.39C174.179 336.242 171.9 341.891 167.341 346.334C162.781 350.778 157.12 353 150.355 353H23.6561ZM23.6561 200.271C16.8919 200.271 11.2581 197.965 6.75488 193.353C2.25163 188.746 0 183.047 0 176.255C0 169.459 2.25163 163.811 6.75488 159.311C11.2581 154.811 16.8919 152.561 23.6561 152.561H319.185C325.95 152.561 331.609 154.895 336.163 159.563C340.723 164.226 343.002 169.953 343.002 176.745C343.002 183.541 340.723 189.161 336.163 193.605C331.609 198.049 325.95 200.271 319.185 200.271H23.6561ZM23.6561 47.5349C16.8919 47.5349 11.2581 45.2313 6.75488 40.6241C2.25163 36.017 0 30.3176 0 23.5259C0 16.7295 2.28892 11.1094 6.86676 6.66567C11.4446 2.2219 17.097 0 23.8239 0H488.176C494.94 0 500.602 2.30357 505.161 6.91072C509.72 11.5225 512 17.2243 512 24.016C512 30.8124 509.683 36.4324 505.049 40.8762C500.416 45.3153 494.735 47.5349 488.008 47.5349H23.6561Z" fill="black"/>
</svg>
