<svg width="512" height="512" viewBox="0 0 512 512" fill="none" xmlns="http://www.w3.org/2000/svg">
<path d="M276.211 247.815V141.474C276.211 135.747 274.273 130.946 270.397 127.07C266.521 123.199 261.72 121.263 255.993 121.263C250.262 121.263 245.464 123.199 241.597 127.07C237.725 130.946 235.789 135.747 235.789 141.474V254.033C235.789 257.204 236.378 260.276 237.555 263.249C238.727 266.222 240.575 268.971 243.099 271.495L335.394 363.789C339.121 367.522 343.81 369.43 349.46 369.516C355.11 369.601 359.887 367.692 363.789 363.789C367.692 359.887 369.644 355.153 369.644 349.588C369.644 344.028 367.692 339.297 363.789 335.394L276.211 247.815ZM256.047 512C220.638 512 187.356 505.281 156.2 491.843C125.045 478.406 97.9447 460.169 74.9002 437.133C51.8557 414.098 33.6101 387.009 20.1634 355.867C6.72112 324.725 0 291.452 0 256.047C0 220.638 6.71888 187.356 20.1566 156.2C33.5944 125.045 51.831 97.9447 74.8665 74.9002C97.902 51.8557 124.991 33.6101 156.133 20.1634C187.275 6.72112 220.548 0 255.953 0C291.362 0 324.644 6.71887 355.8 20.1566C386.955 33.5944 414.055 51.831 437.1 74.8665C460.144 97.902 478.39 124.991 491.837 156.133C505.279 187.275 512 220.548 512 255.953C512 291.362 505.281 324.644 491.843 355.8C478.406 386.955 460.169 414.055 437.133 437.1C414.098 460.144 387.009 478.39 355.867 491.837C324.725 505.279 291.452 512 256.047 512ZM256 471.579C315.733 471.579 366.597 450.582 408.589 408.589C450.582 366.597 471.579 315.733 471.579 256C471.579 196.267 450.582 145.404 408.589 103.411C366.597 61.4175 315.733 40.4211 256 40.4211C196.267 40.4211 145.404 61.4175 103.411 103.411C61.4175 145.404 40.4211 196.267 40.4211 256C40.4211 315.733 61.4175 366.597 103.411 408.589C145.404 450.582 196.267 471.579 256 471.579Z" fill="black"/>
</svg>
