<svg width="60" height="60" viewBox="0 0 60 60" fill="none" xmlns="http://www.w3.org/2000/svg">
<path d="M24.3748 4.4262C25.7078 -1.47522 34.1164 -1.47522 35.4495 4.4262V4.4262C36.3134 8.25091 40.7025 10.0689 44.0179 7.97534V7.97534C49.1334 4.74501 55.0792 10.6908 51.8489 15.8063V15.8063C49.7553 19.1217 51.5733 23.5108 55.398 24.3748V24.3748C61.2994 25.7078 61.2994 34.1164 55.398 35.4495V35.4495C51.5733 36.3134 49.7553 40.7025 51.8489 44.0179V44.0179C55.0792 49.1334 49.1334 55.0792 44.0179 51.8489V51.8489C40.7025 49.7553 36.3134 51.5733 35.4495 55.398V55.398C34.1164 61.2994 25.7078 61.2994 24.3748 55.398V55.398C23.5108 51.5733 19.1217 49.7553 15.8063 51.8489V51.8489C10.6908 55.0792 4.74501 49.1334 7.97534 44.0179V44.0179C10.0689 40.7025 8.25091 36.3134 4.4262 35.4495V35.4495C-1.47522 34.1164 -1.47522 25.7078 4.4262 24.3748V24.3748C8.25091 23.5108 10.0689 19.1217 7.97534 15.8063V15.8063C4.74501 10.6908 10.6908 4.74501 15.8063 7.97534V7.97534C19.1217 10.0689 23.5108 8.25091 24.3748 4.4262V4.4262Z" fill="#2563EB"/>
<path d="M25.7256 36.1204L40.5173 21.3288C40.795 21.051 41.1238 20.9121 41.5035 20.9121C41.8832 20.9121 42.212 21.051 42.4898 21.3288C42.7675 21.6066 42.9064 21.9375 42.9064 22.3217C42.9064 22.7059 42.7675 23.0368 42.4898 23.3146L26.6981 39.1204C26.4203 39.3982 26.0962 39.5371 25.7256 39.5371C25.3553 39.5371 25.0313 39.3982 24.7535 39.1204L17.3089 31.6759C17.0312 31.3981 16.8992 31.0671 16.9131 30.6829C16.927 30.2985 17.0728 29.9674 17.3506 29.6896C17.6284 29.4118 17.9595 29.2729 18.3439 29.2729C18.7281 29.2729 19.0591 29.4118 19.3369 29.6896L25.7256 36.1204Z" fill="white"/>
</svg>
