<svg width="1024" height="1024" version="1.1" xmlns="http://www.w3.org/2000/svg" desc="Created with imagetracer.js version 1.2.6" ><path fill="rgb(0,0,0)" stroke="rgb(0,0,0)" stroke-width="1" opacity="0" d="M 0 0 L 1024 0 L 1024 1024 L 0 1024 L 0 0 Z M 118 384 L 118 386 L 112 386 Q 113 390 108 388 L 108 390 L 104 390 L 102 394 L 100 394 L 100 396 L 98 396 L 98 398 L 96 398 L 96 400 L 94 400 L 94 402 L 92 402 L 92 406 L 88 408 L 88 414 L 86 414 L 86 438 L 88 438 L 88 444 Q 92 443 90 448 L 92 448 L 92 452 L 94 452 L 94 456 L 96 456 L 96 460 L 100 462 Q 98 467 102 466 L 102 470 L 106 472 L 106 476 L 110 478 Q 109 483 112 483 L 112 486 L 116 488 L 116 492 L 120 494 L 120 498 L 124 500 L 124 502 L 126 502 L 126 506 L 130 508 L 130 512 L 134 514 L 134 516 L 136 516 L 136 520 L 140 522 L 140 524 L 142 524 L 142 528 L 146 530 L 146 532 L 148 532 L 148 534 L 150 534 L 150 538 L 154 540 L 154 542 L 156 542 L 156 544 L 158 544 L 158 546 L 160 546 L 160 550 L 164 552 L 164 554 L 166 554 L 166 556 L 168 556 L 168 558 L 170 558 L 170 560 L 172 560 L 172 564 L 176 566 L 176 568 L 178 568 L 178 570 L 180 570 L 180 572 L 178 572 L 176 576 L 174 576 L 174 578 L 172 578 L 172 580 L 170 580 L 170 582 L 168 582 L 168 584 L 166 584 L 166 586 L 164 586 L 164 588 L 162 588 L 162 590 L 160 590 L 160 592 L 158 592 L 158 594 L 156 594 L 156 596 L 154 596 L 154 598 L 152 598 L 152 600 L 150 600 L 150 602 L 148 602 L 148 604 L 146 604 L 146 606 L 144 606 L 144 608 L 142 608 L 142 610 L 140 610 L 140 612 L 138 612 L 138 614 L 136 614 L 136 616 L 134 616 L 134 618 L 132 618 L 132 620 L 130 620 L 130 622 L 128 622 L 128 624 L 126 624 L 126 626 L 124 626 L 124 628 L 122 628 L 122 630 L 120 630 L 120 632 L 118 632 L 118 634 L 116 634 L 116 636 L 114 636 L 114 638 L 112 638 L 112 640 L 110 640 L 110 642 L 108 642 L 108 644 L 106 644 Q 107 649 104 649 L 104 654 L 102 655 L 102 662 L 100 662 L 100 672 L 102 672 L 102 680 L 104 680 L 104 686 Q 107 685 106 690 L 110 692 L 110 694 L 112 694 L 112 696 L 114 696 L 114 698 L 116 698 L 116 700 L 118 700 L 118 702 L 120 702 L 120 704 Q 125 703 125 706 L 128 706 L 128 708 L 134 708 L 134 710 L 152 710 L 152 708 L 160 708 Q 159 704 164 706 L 166 702 L 170 702 L 170 700 L 172 700 L 174 696 L 176 696 L 176 694 L 178 694 L 178 692 L 180 692 L 180 690 L 182 690 L 182 688 L 184 688 L 184 686 L 186 686 L 186 684 L 188 684 L 188 682 L 190 682 L 190 680 L 192 680 L 192 678 L 194 678 L 194 676 L 196 676 L 196 674 L 198 674 L 198 672 L 200 672 L 200 670 L 202 670 L 202 668 L 204 668 L 204 666 L 206 666 L 206 664 L 208 664 L 208 662 L 210 662 L 210 660 L 212 660 L 212 658 L 214 658 L 214 656 L 216 656 L 216 654 L 218 654 L 218 652 L 220 652 L 220 650 L 222 650 L 222 648 L 224 648 L 224 646 L 226 646 L 226 644 L 228 644 L 228 642 L 230 642 L 230 640 L 232 640 L 232 638 L 234 638 L 234 636 L 236 636 L 236 634 L 238 634 L 238 632 L 240 632 L 240 630 L 242 630 L 242 628 L 246 630 L 246 632 L 248 632 L 248 634 L 252 634 L 254 638 L 256 638 L 256 640 L 260 640 L 262 644 L 264 644 L 264 646 L 268 646 L 270 650 L 274 650 L 276 654 L 280 654 L 282 658 Q 287 657 287 660 L 290 660 L 292 664 Q 297 663 297 666 L 300 666 L 302 670 Q 307 669 307 672 L 310 672 L 310 674 L 314 674 L 314 676 L 318 676 L 320 680 L 326 680 Q 325 684 330 682 L 330 684 L 334 684 L 334 686 L 338 686 L 338 688 L 342 688 L 342 690 L 346 690 L 346 692 L 350 692 L 350 698 L 348 698 L 348 704 L 346 704 L 346 710 L 344 710 L 344 716 L 342 716 L 342 722 L 340 723 L 340 728 Q 336 727 338 732 L 336 732 L 336 738 L 334 738 L 334 744 L 332 744 L 332 750 L 330 750 L 330 756 L 328 756 L 328 762 L 326 763 L 326 768 L 324 768 Q 325 773 322 773 L 322 780 L 320 780 L 320 800 L 322 800 L 322 806 Q 325 805 324 810 L 328 812 L 328 816 L 332 818 L 332 820 L 334 820 L 334 822 L 336 822 L 336 824 L 340 824 L 342 828 Q 347 826 346 830 L 352 830 L 352 832 L 372 832 L 372 830 L 378 830 Q 377 826 382 828 L 382 826 L 386 826 L 386 824 L 390 824 L 392 820 L 394 820 L 394 818 L 396 818 L 396 814 L 400 812 Q 399 807 402 808 L 402 804 L 404 804 L 404 798 L 406 798 L 406 792 L 408 792 L 408 786 L 410 786 L 410 780 Q 414 781 412 776 L 414 776 L 414 770 L 416 770 L 416 764 L 418 764 L 418 758 L 420 758 L 420 752 L 422 752 L 422 746 L 424 746 L 424 740 L 426 740 L 426 734 Q 430 735 428 730 L 430 730 L 430 724 L 432 724 L 432 718 L 440 718 L 441 720 L 450 720 L 451 722 L 466 722 L 467 724 L 492 724 L 492 726 L 532 726 L 533 724 L 558 724 L 559 722 L 574 722 L 575 720 L 586 720 L 586 718 L 592 718 L 592 724 L 594 724 L 594 730 L 596 731 L 596 736 Q 600 735 598 740 L 600 740 L 600 746 L 602 746 L 602 752 L 604 752 L 604 758 L 606 758 L 606 764 L 608 764 L 608 770 L 610 771 L 610 776 Q 614 775 612 780 L 614 780 L 614 786 L 616 786 L 616 792 L 618 792 L 618 798 L 620 798 L 620 804 Q 624 803 622 808 L 624 808 L 624 812 L 628 814 L 628 818 L 632 820 L 632 822 L 634 822 L 634 824 Q 639 823 639 826 L 642 826 L 642 828 L 646 828 L 646 830 L 652 830 L 652 832 L 672 832 L 672 830 L 678 830 Q 677 827 682 828 L 684 824 L 688 824 L 690 820 L 692 820 L 692 818 L 694 818 L 694 816 L 696 816 L 696 812 L 700 810 Q 698 805 702 806 L 702 800 L 704 800 L 704 781 L 702 780 L 702 774 L 700 774 L 700 768 L 698 768 L 698 762 L 696 762 L 696 756 L 694 756 L 694 750 L 692 750 L 692 744 L 690 744 L 690 738 L 688 738 L 688 732 Q 684 733 686 728 L 684 728 L 684 722 L 682 722 L 682 716 L 680 716 L 680 710 L 678 710 L 678 704 L 676 704 L 676 698 L 674 698 L 674 692 Q 679 693 679 690 L 682 690 L 682 688 L 686 688 L 686 686 L 690 686 L 690 684 L 694 684 L 694 682 L 700 682 Q 699 679 704 680 L 706 676 Q 711 677 711 674 L 714 674 L 714 672 L 718 672 L 718 670 L 722 670 L 724 666 Q 729 667 729 664 L 732 664 L 734 660 Q 739 661 739 658 L 742 658 L 744 654 L 748 654 L 750 650 L 754 650 L 756 646 L 760 646 L 762 642 L 764 642 L 764 640 L 768 640 L 770 636 L 772 636 L 772 634 L 776 634 L 778 630 L 780 630 L 780 628 L 782 628 L 784 632 L 786 632 L 786 634 L 788 634 L 788 636 L 790 636 L 790 638 L 792 638 L 792 640 L 794 640 L 794 642 L 796 642 L 796 644 L 798 644 L 798 646 L 800 646 L 800 648 L 802 648 L 802 650 L 804 650 L 804 652 L 806 652 L 806 654 L 808 654 L 808 656 L 810 656 L 810 658 L 812 658 L 812 660 L 814 660 L 814 662 L 816 662 L 816 664 L 818 664 L 818 666 L 820 666 L 820 668 L 822 668 L 822 670 L 824 670 L 824 672 L 826 672 L 826 674 L 828 674 L 828 676 L 830 676 L 830 678 L 832 678 L 832 680 L 834 680 L 834 682 L 836 682 L 836 684 L 838 684 L 838 686 L 840 686 L 840 688 L 842 688 L 842 690 L 844 690 L 844 692 L 846 692 L 846 694 L 848 694 L 848 696 L 850 696 L 850 698 L 852 698 L 852 700 L 854 700 L 854 702 L 858 702 L 860 706 Q 865 704 864 708 L 872 708 L 872 710 L 890 710 L 890 708 L 896 708 Q 895 704 900 706 L 900 704 L 904 704 L 906 700 L 908 700 L 908 698 L 910 698 L 910 696 L 912 696 L 912 694 L 914 694 L 914 692 L 916 692 L 916 690 L 918 690 Q 917 685 920 686 L 920 680 L 922 680 L 922 672 L 924 672 L 924 663 L 922 662 L 922 655 L 920 654 L 920 649 Q 917 649 918 644 L 916 644 L 914 640 L 912 640 L 912 638 L 910 638 L 910 636 L 908 636 L 908 634 L 906 634 L 906 632 L 904 632 L 904 630 L 902 630 L 902 628 L 900 628 L 900 626 L 898 626 L 898 624 L 896 624 L 896 622 L 894 622 L 894 620 L 892 620 L 892 618 L 890 618 L 890 616 L 888 616 L 888 614 L 886 614 L 886 612 L 884 612 L 884 610 L 882 610 L 882 608 L 880 608 L 880 606 L 878 606 L 878 604 L 876 604 L 876 602 L 874 602 L 874 600 L 872 600 L 872 598 L 870 598 L 870 596 L 868 596 L 868 594 L 866 594 L 866 592 L 864 592 L 864 590 L 862 590 L 862 588 L 860 588 L 860 586 L 858 586 L 858 584 L 856 584 L 856 582 L 854 582 L 854 580 L 852 580 L 852 578 L 850 578 L 850 576 L 848 576 L 848 574 L 846 574 L 846 572 L 844 572 L 846 568 L 848 568 L 848 566 L 850 566 L 850 562 L 854 560 L 854 558 L 856 558 L 856 556 L 858 556 L 858 554 L 860 554 L 860 552 L 862 552 L 862 550 L 864 550 L 864 546 L 868 544 L 868 542 L 870 542 L 870 540 L 872 540 L 872 538 L 874 538 L 874 534 L 878 532 L 878 530 L 880 530 L 880 528 L 882 528 L 882 524 L 886 522 L 886 520 L 888 520 L 888 516 L 892 514 L 892 512 L 894 512 L 894 508 L 898 506 L 898 502 L 902 500 L 902 498 L 904 498 L 904 494 L 908 492 L 908 488 L 912 486 Q 911 481 914 482 L 914 478 L 918 476 L 918 472 L 922 470 Q 921 465 924 466 L 924 462 L 928 460 Q 927 455 930 456 L 930 452 L 932 452 L 932 448 L 934 448 L 934 444 L 936 444 L 936 438 L 938 438 L 938 415 Q 935 415 936 410 L 934 410 L 934 406 L 932 406 L 932 402 L 928 400 L 928 398 L 926 398 L 926 396 L 924 396 L 924 394 L 922 394 L 922 392 L 920 392 L 920 390 Q 915 391 916 388 L 912 388 L 912 386 L 906 386 L 906 384 L 887 384 L 886 386 L 880 386 Q 881 390 876 388 L 876 390 L 872 390 L 870 394 L 868 394 L 868 396 L 866 396 L 866 398 L 864 398 L 864 400 L 862 400 L 862 402 L 860 402 L 860 406 L 856 408 Q 857 413 854 413 L 854 416 L 852 416 L 852 420 L 848 422 Q 849 427 846 427 L 846 430 L 842 432 L 842 436 L 838 438 L 838 442 L 834 444 L 834 448 L 830 450 L 830 454 L 826 456 L 826 460 L 822 462 L 822 464 L 820 464 L 820 468 L 816 470 L 816 472 L 814 472 L 814 476 L 810 478 L 810 480 L 808 480 L 808 482 L 806 482 L 806 486 L 802 488 L 802 490 L 800 490 L 800 492 L 798 492 L 798 494 L 796 494 L 796 498 L 794 498 L 794 500 L 790 502 L 790 504 L 788 504 L 788 506 L 786 506 L 786 508 L 784 508 L 784 510 L 782 510 L 782 512 L 780 512 L 780 514 L 778 514 L 778 516 L 776 516 L 776 518 L 774 518 L 774 522 L 770 524 L 770 526 L 768 526 L 768 528 L 766 528 L 766 530 L 762 530 L 760 534 L 758 534 L 758 536 L 756 536 L 756 538 L 754 538 L 754 540 L 752 540 L 752 542 L 750 542 L 750 544 L 748 544 L 748 546 L 746 546 L 746 548 L 744 548 L 744 550 L 740 550 L 738 554 L 736 554 L 736 556 L 734 556 L 734 558 L 732 558 L 732 560 L 728 560 L 726 564 L 724 564 L 724 566 L 720 566 L 718 570 L 716 570 L 716 572 L 712 572 L 710 576 L 706 576 L 704 580 L 700 580 L 698 584 L 694 584 L 692 588 L 688 588 L 686 592 Q 681 591 682 594 L 678 594 L 678 596 L 674 596 L 672 600 Q 667 599 668 602 L 664 602 L 664 604 L 660 604 L 660 606 L 656 606 L 656 608 L 652 608 L 652 610 L 646 610 Q 647 614 642 612 L 642 614 L 638 614 L 638 616 L 632 616 Q 633 620 628 618 L 628 620 L 622 620 L 622 622 L 616 622 L 616 624 L 610 624 L 610 626 L 603 626 L 602 628 L 596 628 L 596 630 L 589 630 L 588 632 L 579 632 L 578 634 L 569 634 L 568 636 L 555 636 L 554 638 L 537 638 L 536 640 L 489 640 L 488 638 L 471 638 L 470 636 L 457 636 L 456 634 L 446 634 L 446 632 L 437 632 L 436 630 L 429 630 L 428 628 L 422 628 L 422 626 L 415 626 L 414 624 L 408 624 L 408 622 L 402 622 L 402 620 L 396 620 Q 397 616 392 618 L 392 616 L 386 616 Q 387 612 382 614 L 382 612 L 378 612 L 378 610 L 374 610 L 374 608 L 368 608 Q 369 604 364 606 L 364 604 L 360 604 L 360 602 L 356 602 L 356 600 L 352 600 L 350 596 Q 345 597 346 594 L 342 594 L 342 592 L 338 592 L 336 588 L 332 588 L 330 584 L 326 584 L 324 580 L 320 580 L 318 576 L 314 576 L 312 572 L 308 572 L 306 568 L 304 568 L 304 566 L 300 566 L 298 562 L 296 562 L 296 560 L 294 560 L 294 558 L 290 558 L 288 554 L 286 554 L 286 552 L 284 552 L 284 550 L 280 550 L 278 546 L 276 546 L 276 544 L 274 544 L 274 542 L 272 542 L 272 540 L 270 540 L 270 538 L 268 538 L 268 536 L 266 536 L 266 534 L 264 534 L 264 532 L 262 532 L 262 530 L 260 530 L 260 528 L 256 528 L 254 524 L 252 524 L 252 520 L 250 520 L 250 518 L 246 516 L 246 514 L 244 514 L 244 512 L 242 512 L 242 510 L 240 510 L 240 508 L 238 508 L 238 506 L 236 506 L 236 504 L 234 504 L 234 502 L 232 502 L 232 500 L 230 500 L 230 498 L 228 498 L 228 494 L 224 492 L 224 490 L 222 490 L 222 488 L 220 488 L 220 486 L 218 486 L 218 482 L 214 480 L 214 478 L 212 478 L 212 476 L 210 476 L 210 472 L 206 470 L 206 468 L 204 468 L 204 464 L 200 462 L 200 460 L 198 460 L 198 456 L 194 454 L 194 450 L 190 448 L 190 444 L 186 442 L 186 438 L 182 436 L 182 432 L 178 430 Q 179 425 176 426 L 176 422 L 172 420 Q 173 415 170 416 L 170 412 L 168 412 L 168 408 L 164 406 L 164 402 L 160 400 L 160 398 L 158 398 L 158 396 L 156 396 L 156 394 L 154 394 L 154 392 L 152 392 L 152 390 Q 147 391 148 388 L 144 388 L 144 386 L 138 386 L 138 384 L 118 384 Z " /><path fill="rgb(0,0,0)" stroke="rgb(0,0,0)" stroke-width="1" opacity="0.8196078431372549" d="M 118 384 L 124 384 L 124 386 L 118 386 L 118 384 Z " /><path fill="rgb(0,0,0)" stroke="rgb(0,0,0)" stroke-width="1" opacity="0.8196078431372549" d="M 132 384 L 138 384 L 138 386 L 132 386 L 132 384 Z " /><path fill="rgb(0,0,0)" stroke="rgb(0,0,0)" stroke-width="1" opacity="0.8196078431372549" d="M 886 384 L 892 384 L 892 386 L 886 386 L 886 384 Z " /><path fill="rgb(0,0,0)" stroke="rgb(0,0,0)" stroke-width="1" opacity="0.8196078431372549" d="M 900 384 L 906 384 L 906 386 L 900 386 L 900 384 Z " /><path fill="rgb(0,0,0)" stroke="rgb(0,0,0)" stroke-width="1" opacity="0.8196078431372549" d="M 112 386 Q 115 385 114 388 Q 111 389 112 386 Z " /><path fill="rgb(0,0,0)" stroke="rgb(0,0,0)" stroke-width="1" opacity="0.8196078431372549" d="M 142 386 Q 145 385 144 388 Q 141 389 142 386 Z " /><path fill="rgb(0,0,0)" stroke="rgb(0,0,0)" stroke-width="1" opacity="0.8196078431372549" d="M 880 386 Q 883 385 882 388 Q 879 389 880 386 Z " /><path fill="rgb(0,0,0)" stroke="rgb(0,0,0)" stroke-width="1" opacity="0.8196078431372549" d="M 910 386 Q 913 385 912 388 Q 909 389 910 386 Z " /><path fill="rgb(0,0,0)" stroke="rgb(0,0,0)" stroke-width="1" opacity="0.8196078431372549" d="M 108 388 Q 111 387 110 390 Q 107 391 108 388 Z " /><path fill="rgb(0,0,0)" stroke="rgb(0,0,0)" stroke-width="1" opacity="0.8196078431372549" d="M 146 388 Q 149 387 148 390 Q 145 391 146 388 Z " /><path fill="rgb(0,0,0)" stroke="rgb(0,0,0)" stroke-width="1" opacity="0.8196078431372549" d="M 876 388 Q 879 387 878 390 Q 875 391 876 388 Z " /><path fill="rgb(0,0,0)" stroke="rgb(0,0,0)" stroke-width="1" opacity="0.8196078431372549" d="M 914 388 Q 917 387 916 390 Q 913 391 914 388 Z " /><path fill="rgb(0,0,0)" stroke="rgb(0,0,0)" stroke-width="1" opacity="0.8196078431372549" d="M 104 390 Q 107 389 106 392 L 102 394 L 104 390 Z " /><path fill="rgb(0,0,0)" stroke="rgb(0,0,0)" stroke-width="1" opacity="0.8196078431372549" d="M 150 390 L 152 390 L 154 394 L 152 394 L 150 390 Z " /><path fill="rgb(0,0,0)" stroke="rgb(0,0,0)" stroke-width="1" opacity="0.8196078431372549" d="M 872 390 Q 875 389 874 392 L 870 394 L 872 390 Z " /><path fill="rgb(0,0,0)" stroke="rgb(0,0,0)" stroke-width="1" opacity="0.8196078431372549" d="M 918 390 L 920 390 L 922 394 L 920 394 L 918 390 Z " /><path fill="rgb(0,0,0)" stroke="rgb(0,0,0)" stroke-width="1" opacity="0.8196078431372549" d="M 928 400 L 930 400 L 932 404 L 930 404 L 928 400 Z " /><path fill="rgb(0,0,0)" stroke="rgb(0,0,0)" stroke-width="1" opacity="0.8196078431372549" d="M 92 402 Q 95 401 94 404 Q 91 405 92 402 Z " /><path fill="rgb(0,0,0)" stroke="rgb(0,0,0)" stroke-width="1" opacity="0.8196078431372549" d="M 162 402 Q 165 401 164 404 Q 161 405 162 402 Z " /><path fill="rgb(0,0,0)" stroke="rgb(0,0,0)" stroke-width="1" opacity="0.8196078431372549" d="M 860 402 Q 863 401 862 404 Q 859 405 860 402 Z " /><path fill="rgb(0,0,0)" stroke="rgb(0,0,0)" stroke-width="1" opacity="0.8196078431372549" d="M 90 406 Q 93 405 92 408 L 90 408 Q 91.7 413.2 88 412 L 88 408 Q 91 409 90 406 Z " /><path fill="rgb(0,0,0)" stroke="rgb(0,0,0)" stroke-width="1" opacity="0.8196078431372549" d="M 164 406 L 166 406 L 168 410 L 166 410 L 164 406 Z " /><path fill="rgb(0,0,0)" stroke="rgb(0,0,0)" stroke-width="1" opacity="0.8196078431372549" d="M 858 406 Q 861 405 860 408 L 856 410 L 858 406 Z " /><path fill="rgb(0,0,0)" stroke="rgb(0,0,0)" stroke-width="1" opacity="0.8196078431372549" d="M 932 406 Q 935 405 934 408 Q 931 409 932 406 Z " /><path fill="rgb(0,0,0)" stroke="rgb(0,0,0)" stroke-width="1" opacity="0.8196078431372549" d="M 934 410 Q 937 409 936 412 Q 933 413 934 410 Z " /><path fill="rgb(0,0,0)" stroke="rgb(0,0,0)" stroke-width="1" opacity="0.8196078431372549" d="M 168 412 Q 171 411 170 414 Q 167 415 168 412 Z " /><path fill="rgb(0,0,0)" stroke="rgb(0,0,0)" stroke-width="1" opacity="0.8196078431372549" d="M 854 412 Q 857 411 856 414 Q 853 415 854 412 Z " /><path fill="rgb(0,0,0)" stroke="rgb(0,0,0)" stroke-width="1" opacity="0.8196078431372549" d="M 86 414 Q 89.7 412.8 88 418 Q 84.3 419.2 86 414 Z " /><path fill="rgb(0,0,0)" stroke="rgb(0,0,0)" stroke-width="1" opacity="0.8196078431372549" d="M 936 414 Q 939.7 412.8 938 418 Q 934.3 419.2 936 414 Z " /><path fill="rgb(0,0,0)" stroke="rgb(0,0,0)" stroke-width="1" opacity="0.8196078431372549" d="M 170 416 Q 173 415 172 418 Q 169 419 170 416 Z " /><path fill="rgb(0,0,0)" stroke="rgb(0,0,0)" stroke-width="1" opacity="0.8196078431372549" d="M 852 416 Q 855 415 854 418 Q 851 419 852 416 Z " /><path fill="rgb(0,0,0)" stroke="rgb(0,0,0)" stroke-width="1" opacity="0.8196078431372549" d="M 172 420 L 174 420 L 176 424 L 174 424 L 172 420 Z " /><path fill="rgb(0,0,0)" stroke="rgb(0,0,0)" stroke-width="1" opacity="0.8196078431372549" d="M 850 420 Q 853 419 852 422 L 848 424 L 850 420 Z " /><path fill="rgb(0,0,0)" stroke="rgb(0,0,0)" stroke-width="1" opacity="0.8196078431372549" d="M 176 426 Q 179 425 178 428 Q 175 429 176 426 Z " /><path fill="rgb(0,0,0)" stroke="rgb(0,0,0)" stroke-width="1" opacity="0.8196078431372549" d="M 846 426 Q 849 425 848 428 Q 845 429 846 426 Z " /><path fill="rgb(0,0,0)" stroke="rgb(0,0,0)" stroke-width="1" opacity="0.8196078431372549" d="M 178 430 L 180 430 L 182 434 L 180 434 L 178 430 Z " /><path fill="rgb(0,0,0)" stroke="rgb(0,0,0)" stroke-width="1" opacity="0.8196078431372549" d="M 844 430 Q 847 429 846 432 L 842 434 L 844 430 Z " /><path fill="rgb(0,0,0)" stroke="rgb(0,0,0)" stroke-width="1" opacity="0.8196078431372549" d="M 86 434 Q 89.7 432.8 88 438 Q 84.3 439.2 86 434 Z " /><path fill="rgb(0,0,0)" stroke="rgb(0,0,0)" stroke-width="1" opacity="0.8196078431372549" d="M 936 434 Q 939.7 432.8 938 438 Q 934.3 439.2 936 434 Z " /><path fill="rgb(0,0,0)" stroke="rgb(0,0,0)" stroke-width="1" opacity="0.8196078431372549" d="M 182 436 L 184 436 L 186 440 L 184 440 L 182 436 Z " /><path fill="rgb(0,0,0)" stroke="rgb(0,0,0)" stroke-width="1" opacity="0.8196078431372549" d="M 840 436 Q 843 435 842 438 L 838 440 L 840 436 Z " /><path fill="rgb(0,0,0)" stroke="rgb(0,0,0)" stroke-width="1" opacity="0.8196078431372549" d="M 88 442 Q 91 441 90 444 Q 87 445 88 442 Z " /><path fill="rgb(0,0,0)" stroke="rgb(0,0,0)" stroke-width="1" opacity="0.8196078431372549" d="M 186 442 L 188 442 L 190 446 L 188 446 L 186 442 Z " /><path fill="rgb(0,0,0)" stroke="rgb(0,0,0)" stroke-width="1" opacity="0.8196078431372549" d="M 836 442 Q 839 441 838 444 L 834 446 L 836 442 Z " /><path fill="rgb(0,0,0)" stroke="rgb(0,0,0)" stroke-width="1" opacity="0.8196078431372549" d="M 934 442 Q 937 441 936 444 Q 933 445 934 442 Z " /><path fill="rgb(0,0,0)" stroke="rgb(0,0,0)" stroke-width="1" opacity="0.8196078431372549" d="M 90 446 Q 93 445 92 448 Q 89 449 90 446 Z " /><path fill="rgb(0,0,0)" stroke="rgb(0,0,0)" stroke-width="1" opacity="0.8196078431372549" d="M 932 446 Q 935 445 934 448 Q 931 449 932 446 Z " /><path fill="rgb(0,0,0)" stroke="rgb(0,0,0)" stroke-width="1" opacity="0.8196078431372549" d="M 190 448 L 192 448 L 194 452 L 192 452 L 190 448 Z " /><path fill="rgb(0,0,0)" stroke="rgb(0,0,0)" stroke-width="1" opacity="0.8196078431372549" d="M 832 448 Q 835 447 834 450 L 830 452 L 832 448 Z " /><path fill="rgb(0,0,0)" stroke="rgb(0,0,0)" stroke-width="1" opacity="0.8196078431372549" d="M 92 450 Q 95 449 94 452 Q 91 453 92 450 Z " /><path fill="rgb(0,0,0)" stroke="rgb(0,0,0)" stroke-width="1" opacity="0.8196078431372549" d="M 930 450 Q 933 449 932 452 Q 929 453 930 450 Z " /><path fill="rgb(0,0,0)" stroke="rgb(0,0,0)" stroke-width="1" opacity="0.8196078431372549" d="M 94 454 Q 97 453 96 456 Q 93 457 94 454 Z " /><path fill="rgb(0,0,0)" stroke="rgb(0,0,0)" stroke-width="1" opacity="0.8196078431372549" d="M 194 454 L 196 454 L 198 458 L 196 458 L 194 454 Z " /><path fill="rgb(0,0,0)" stroke="rgb(0,0,0)" stroke-width="1" opacity="0.8196078431372549" d="M 828 454 Q 831 453 830 456 L 826 458 L 828 454 Z " /><path fill="rgb(0,0,0)" stroke="rgb(0,0,0)" stroke-width="1" opacity="0.8196078431372549" d="M 928 454 Q 931 453 930 456 Q 927 457 928 454 Z " /><path fill="rgb(0,0,0)" stroke="rgb(0,0,0)" stroke-width="1" opacity="0.8196078431372549" d="M 96 458 L 98 458 L 100 462 L 98 462 L 96 458 Z " /><path fill="rgb(0,0,0)" stroke="rgb(0,0,0)" stroke-width="1" opacity="0.8196078431372549" d="M 926 458 Q 929 457 928 460 L 924 462 L 926 458 Z " /><path fill="rgb(0,0,0)" stroke="rgb(0,0,0)" stroke-width="1" opacity="0.8196078431372549" d="M 200 462 L 202 462 L 204 466 L 202 466 L 200 462 Z " /><path fill="rgb(0,0,0)" stroke="rgb(0,0,0)" stroke-width="1" opacity="0.8196078431372549" d="M 822 462 Q 825 461 824 464 L 820 466 L 822 462 Z " /><path fill="rgb(0,0,0)" stroke="rgb(0,0,0)" stroke-width="1" opacity="0.8196078431372549" d="M 100 464 Q 103 463 102 466 Q 99 467 100 464 Z " /><path fill="rgb(0,0,0)" stroke="rgb(0,0,0)" stroke-width="1" opacity="0.8196078431372549" d="M 922 464 Q 925 463 924 466 Q 921 467 922 464 Z " /><path fill="rgb(0,0,0)" stroke="rgb(0,0,0)" stroke-width="1" opacity="0.8196078431372549" d="M 102 468 L 104 468 L 106 472 L 104 472 L 102 468 Z " /><path fill="rgb(0,0,0)" stroke="rgb(0,0,0)" stroke-width="1" opacity="0.8196078431372549" d="M 204 468 L 206 468 L 206 470 L 208 470 L 210 474 L 208 474 L 208 472 L 206 472 L 204 468 Z " /><path fill="rgb(0,0,0)" stroke="rgb(0,0,0)" stroke-width="1" opacity="0.8196078431372549" d="M 818 468 Q 821 467 820 470 L 818 470 L 818 472 L 814 474 L 814 472 L 816 472 L 818 468 Z " /><path fill="rgb(0,0,0)" stroke="rgb(0,0,0)" stroke-width="1" opacity="0.8196078431372549" d="M 920 468 Q 923 467 922 470 L 918 472 L 920 468 Z " /><path fill="rgb(0,0,0)" stroke="rgb(0,0,0)" stroke-width="1" opacity="0.8196078431372549" d="M 106 474 Q 109 473 108 476 Q 105 477 106 474 Z " /><path fill="rgb(0,0,0)" stroke="rgb(0,0,0)" stroke-width="1" opacity="0.8196078431372549" d="M 916 474 Q 919 473 918 476 Q 915 477 916 474 Z " /><path fill="rgb(0,0,0)" stroke="rgb(0,0,0)" stroke-width="1" opacity="0.8196078431372549" d="M 212 478 L 214 478 L 214 480 L 216 480 L 218 484 L 216 484 L 216 482 L 214 482 L 212 478 Z " /><path fill="rgb(0,0,0)" stroke="rgb(0,0,0)" stroke-width="1" opacity="0.8196078431372549" d="M 810 478 Q 813 477 812 480 L 810 480 L 810 482 L 806 484 L 806 482 L 808 482 L 810 478 Z " /><path fill="rgb(0,0,0)" stroke="rgb(0,0,0)" stroke-width="1" opacity="0.8196078431372549" d="M 110 480 Q 113 479 112 482 Q 109 483 110 480 Z " /><path fill="rgb(0,0,0)" stroke="rgb(0,0,0)" stroke-width="1" opacity="0.8196078431372549" d="M 912 480 Q 915 479 914 482 Q 911 483 912 480 Z " /><path fill="rgb(0,0,0)" stroke="rgb(0,0,0)" stroke-width="1" opacity="0.8196078431372549" d="M 112 484 L 114 484 L 116 488 L 114 488 L 112 484 Z " /><path fill="rgb(0,0,0)" stroke="rgb(0,0,0)" stroke-width="1" opacity="0.8196078431372549" d="M 910 484 Q 913 483 912 486 L 908 488 L 910 484 Z " /><path fill="rgb(0,0,0)" stroke="rgb(0,0,0)" stroke-width="1" opacity="0.8196078431372549" d="M 220 488 L 222 488 L 222 490 L 224 490 L 224 492 L 226 492 L 228 496 L 226 496 L 226 494 L 224 494 L 224 492 L 222 492 L 220 488 Z " /><path fill="rgb(0,0,0)" stroke="rgb(0,0,0)" stroke-width="1" opacity="0.8196078431372549" d="M 802 488 Q 805 487 804 490 L 802 490 L 802 492 L 800 492 L 800 494 L 796 496 L 796 494 L 798 494 L 798 492 L 800 492 L 802 488 Z " /><path fill="rgb(0,0,0)" stroke="rgb(0,0,0)" stroke-width="1" opacity="0.8196078431372549" d="M 116 490 L 118 490 L 120 494 L 118 494 L 116 490 Z " /><path fill="rgb(0,0,0)" stroke="rgb(0,0,0)" stroke-width="1" opacity="0.8196078431372549" d="M 906 490 Q 909 489 908 492 L 904 494 L 906 490 Z " /><path fill="rgb(0,0,0)" stroke="rgb(0,0,0)" stroke-width="1" opacity="0.8196078431372549" d="M 120 496 L 122 496 L 124 500 L 122 500 L 120 496 Z " /><path fill="rgb(0,0,0)" stroke="rgb(0,0,0)" stroke-width="1" opacity="0.8196078431372549" d="M 902 496 Q 905 495 904 498 L 900 500 L 902 496 Z " /><path fill="rgb(0,0,0)" stroke="rgb(0,0,0)" stroke-width="1" opacity="0.8196078431372549" d="M 232 502 L 234 502 L 234 504 L 236 504 L 236 506 L 238 506 L 238 508 L 240 508 L 240 510 L 242 510 L 242 512 L 244 512 L 244 514 L 246 514 L 246 516 L 248 516 L 248 518 L 252 520 L 252 522 L 250 522 L 250 520 L 248 520 L 248 518 L 246 518 L 246 516 L 244 516 L 244 514 L 242 514 L 242 512 L 240 512 L 240 510 L 238 510 L 238 508 L 236 508 L 234 504 L 232 504 L 232 502 Z " /><path fill="rgb(0,0,0)" stroke="rgb(0,0,0)" stroke-width="1" opacity="0.8196078431372549" d="M 790 502 Q 793 501 792 504 L 790 504 L 790 506 L 788 506 L 788 508 L 786 508 L 786 510 L 784 510 L 784 512 L 782 512 L 782 514 L 780 514 L 780 516 L 778 516 L 776 520 L 774 520 L 774 518 L 776 518 L 776 516 L 778 516 L 778 514 L 780 514 L 780 512 L 782 512 L 782 510 L 784 510 L 784 508 L 786 508 L 788 504 L 790 504 L 790 502 Z " /><path fill="rgb(0,0,0)" stroke="rgb(0,0,0)" stroke-width="1" opacity="0.8196078431372549" d="M 126 504 L 128 504 L 130 508 L 128 508 L 126 504 Z " /><path fill="rgb(0,0,0)" stroke="rgb(0,0,0)" stroke-width="1" opacity="0.8196078431372549" d="M 896 504 Q 899 503 898 506 L 894 508 L 896 504 Z " /><path fill="rgb(0,0,0)" stroke="rgb(0,0,0)" stroke-width="1" opacity="0.8196078431372549" d="M 130 510 L 132 510 L 134 514 L 132 514 L 130 510 Z " /><path fill="rgb(0,0,0)" stroke="rgb(0,0,0)" stroke-width="1" opacity="0.8196078431372549" d="M 892 510 Q 895 509 894 512 L 890 514 L 892 510 Z " /><path fill="rgb(0,0,0)" stroke="rgb(0,0,0)" stroke-width="1" opacity="0.8196078431372549" d="M 136 518 L 138 518 L 138 520 L 140 520 L 142 524 L 140 524 L 140 522 L 138 522 L 136 518 Z " /><path fill="rgb(0,0,0)" stroke="rgb(0,0,0)" stroke-width="1" opacity="0.8196078431372549" d="M 886 518 Q 889 517 888 520 L 884 522 L 886 518 Z " /><path fill="rgb(0,0,0)" stroke="rgb(0,0,0)" stroke-width="1" opacity="0.8196078431372549" d="M 142 526 L 144 526 L 144 528 L 146 528 L 148 532 L 146 532 L 146 530 L 144 530 L 142 526 Z " /><path fill="rgb(0,0,0)" stroke="rgb(0,0,0)" stroke-width="1" opacity="0.8196078431372549" d="M 880 526 Q 883 525 882 528 L 880 528 L 880 530 L 876 532 L 876 530 L 878 530 L 880 526 Z " /><path fill="rgb(0,0,0)" stroke="rgb(0,0,0)" stroke-width="1" opacity="0.8196078431372549" d="M 258 528 L 260 528 L 260 530 L 262 530 L 262 532 L 264 532 L 264 534 L 266 534 L 266 536 L 268 536 L 268 538 L 270 538 L 270 540 L 272 540 L 272 542 L 274 542 L 276 546 L 274 546 L 274 544 L 272 544 L 272 542 L 270 542 L 270 540 L 268 540 L 268 538 L 266 538 L 266 536 L 264 536 L 264 534 L 262 534 L 262 532 L 260 532 L 258 528 Z " /><path fill="rgb(0,0,0)" stroke="rgb(0,0,0)" stroke-width="1" opacity="0.8196078431372549" d="M 762 530 Q 765 529 764 532 L 762 532 L 762 534 L 760 534 L 760 536 L 758 536 L 758 538 L 756 538 L 756 540 L 754 540 L 754 542 L 752 542 L 752 544 L 748 546 L 748 544 L 750 544 L 750 542 L 752 542 L 752 540 L 754 540 L 754 538 L 756 538 L 756 536 L 758 536 L 758 534 L 760 534 L 762 530 Z " /><path fill="rgb(0,0,0)" stroke="rgb(0,0,0)" stroke-width="1" opacity="0.8196078431372549" d="M 150 536 L 152 536 L 152 538 L 154 538 L 156 542 L 154 542 L 154 540 L 152 540 L 150 536 Z " /><path fill="rgb(0,0,0)" stroke="rgb(0,0,0)" stroke-width="1" opacity="0.8196078431372549" d="M 872 536 Q 875 535 874 538 L 872 538 L 872 540 L 868 542 L 868 540 L 870 540 L 872 536 Z " /><path fill="rgb(0,0,0)" stroke="rgb(0,0,0)" stroke-width="1" opacity="0.8196078431372549" d="M 160 548 L 162 548 L 162 550 L 164 550 L 164 552 L 166 552 L 168 556 L 166 556 L 166 554 L 164 554 L 164 552 L 162 552 L 160 548 Z " /><path fill="rgb(0,0,0)" stroke="rgb(0,0,0)" stroke-width="1" opacity="0.8196078431372549" d="M 862 548 Q 865 547 864 550 L 862 550 L 862 552 L 860 552 L 860 554 L 856 556 L 856 554 L 858 554 L 858 552 L 860 552 L 862 548 Z " /><path fill="rgb(0,0,0)" stroke="rgb(0,0,0)" stroke-width="1" opacity="0.8196078431372549" d="M 282 550 L 284 550 L 284 552 L 286 552 L 288 556 L 286 556 L 286 554 L 284 554 L 282 550 Z " /><path fill="rgb(0,0,0)" stroke="rgb(0,0,0)" stroke-width="1" opacity="0.8196078431372549" d="M 740 550 Q 743 549 742 552 L 740 552 L 740 554 L 738 554 L 738 556 L 734 558 L 734 556 L 736 556 L 736 554 L 738 554 L 740 550 Z " /><path fill="rgb(0,0,0)" stroke="rgb(0,0,0)" stroke-width="1" opacity="0.8196078431372549" d="M 292 558 L 294 558 L 294 560 L 296 560 L 296 562 L 298 562 L 300 566 L 298 566 L 298 564 L 296 564 L 296 562 L 294 562 L 292 558 Z " /><path fill="rgb(0,0,0)" stroke="rgb(0,0,0)" stroke-width="1" opacity="0.8196078431372549" d="M 728 560 Q 731 559 730 562 L 728 562 L 728 564 L 724 566 L 724 564 L 726 564 L 728 560 Z " /><path fill="rgb(0,0,0)" stroke="rgb(0,0,0)" stroke-width="1" opacity="0.8196078431372549" d="M 172 562 L 174 562 L 174 564 L 176 564 L 176 566 L 178 566 L 180 570 L 178 570 L 178 568 L 176 568 L 176 566 L 174 566 L 172 562 Z " /><path fill="rgb(0,0,0)" stroke="rgb(0,0,0)" stroke-width="1" opacity="0.8196078431372549" d="M 848 564 Q 851 563 850 566 L 848 566 L 848 568 L 844 570 L 844 568 L 846 568 L 848 564 Z " /><path fill="rgb(0,0,0)" stroke="rgb(0,0,0)" stroke-width="1" opacity="0.8196078431372549" d="M 302 566 L 304 566 L 306 570 L 304 570 L 302 566 Z " /><path fill="rgb(0,0,0)" stroke="rgb(0,0,0)" stroke-width="1" opacity="0.8196078431372549" d="M 720 566 Q 723 565 722 568 L 718 570 L 720 566 Z " /><path fill="rgb(0,0,0)" stroke="rgb(0,0,0)" stroke-width="1" opacity="0.8196078431372549" d="M 310 572 L 312 572 L 314 576 L 312 576 L 310 572 Z " /><path fill="rgb(0,0,0)" stroke="rgb(0,0,0)" stroke-width="1" opacity="0.8196078431372549" d="M 712 572 Q 715 571 714 574 L 710 576 L 712 572 Z " /><path fill="rgb(0,0,0)" stroke="rgb(0,0,0)" stroke-width="1" opacity="0.8196078431372549" d="M 316 576 L 318 576 L 320 580 L 318 580 L 316 576 Z " /><path fill="rgb(0,0,0)" stroke="rgb(0,0,0)" stroke-width="1" opacity="0.8196078431372549" d="M 706 576 Q 709 575 708 578 L 704 580 L 706 576 Z " /><path fill="rgb(0,0,0)" stroke="rgb(0,0,0)" stroke-width="1" opacity="0.8196078431372549" d="M 322 580 L 324 580 L 326 584 L 324 584 L 322 580 Z " /><path fill="rgb(0,0,0)" stroke="rgb(0,0,0)" stroke-width="1" opacity="0.8196078431372549" d="M 700 580 Q 703 579 702 582 L 698 584 L 700 580 Z " /><path fill="rgb(0,0,0)" stroke="rgb(0,0,0)" stroke-width="1" opacity="0.8196078431372549" d="M 328 584 L 330 584 L 332 588 L 330 588 L 328 584 Z " /><path fill="rgb(0,0,0)" stroke="rgb(0,0,0)" stroke-width="1" opacity="0.8196078431372549" d="M 694 584 Q 697 583 696 586 L 692 588 L 694 584 Z " /><path fill="rgb(0,0,0)" stroke="rgb(0,0,0)" stroke-width="1" opacity="0.8196078431372549" d="M 334 588 L 336 588 L 338 592 L 336 592 L 334 588 Z " /><path fill="rgb(0,0,0)" stroke="rgb(0,0,0)" stroke-width="1" opacity="0.8196078431372549" d="M 688 588 Q 691 587 690 590 L 686 592 L 688 588 Z " /><path fill="rgb(0,0,0)" stroke="rgb(0,0,0)" stroke-width="1" opacity="0.8196078431372549" d="M 340 592 Q 343 591 342 594 Q 339 595 340 592 Z " /><path fill="rgb(0,0,0)" stroke="rgb(0,0,0)" stroke-width="1" opacity="0.8196078431372549" d="M 682 592 Q 685 591 684 594 Q 681 595 682 592 Z " /><path fill="rgb(0,0,0)" stroke="rgb(0,0,0)" stroke-width="1" opacity="0.8196078431372549" d="M 344 594 Q 347 593 346 596 Q 343 597 344 594 Z " /><path fill="rgb(0,0,0)" stroke="rgb(0,0,0)" stroke-width="1" opacity="0.8196078431372549" d="M 678 594 Q 681 593 680 596 Q 677 597 678 594 Z " /><path fill="rgb(0,0,0)" stroke="rgb(0,0,0)" stroke-width="1" opacity="0.8196078431372549" d="M 348 596 L 350 596 L 352 600 L 350 600 L 348 596 Z " /><path fill="rgb(0,0,0)" stroke="rgb(0,0,0)" stroke-width="1" opacity="0.8196078431372549" d="M 674 596 Q 677 595 676 598 L 672 600 L 674 596 Z " /><path fill="rgb(0,0,0)" stroke="rgb(0,0,0)" stroke-width="1" opacity="0.8196078431372549" d="M 354 600 Q 357 599 356 602 Q 353 603 354 600 Z " /><path fill="rgb(0,0,0)" stroke="rgb(0,0,0)" stroke-width="1" opacity="0.8196078431372549" d="M 668 600 Q 671 599 670 602 Q 667 603 668 600 Z " /><path fill="rgb(0,0,0)" stroke="rgb(0,0,0)" stroke-width="1" opacity="0.8196078431372549" d="M 358 602 Q 361 601 360 604 Q 357 605 358 602 Z " /><path fill="rgb(0,0,0)" stroke="rgb(0,0,0)" stroke-width="1" opacity="0.8196078431372549" d="M 664 602 Q 667 601 666 604 Q 663 605 664 602 Z " /><path fill="rgb(0,0,0)" stroke="rgb(0,0,0)" stroke-width="1" opacity="0.8196078431372549" d="M 362 604 Q 365 603 364 606 Q 361 607 362 604 Z " /><path fill="rgb(0,0,0)" stroke="rgb(0,0,0)" stroke-width="1" opacity="0.8196078431372549" d="M 660 604 Q 663 603 662 606 Q 659 607 660 604 Z " /><path fill="rgb(0,0,0)" stroke="rgb(0,0,0)" stroke-width="1" opacity="0.8196078431372549" d="M 366 606 Q 369 605 368 608 Q 365 609 366 606 Z " /><path fill="rgb(0,0,0)" stroke="rgb(0,0,0)" stroke-width="1" opacity="0.8196078431372549" d="M 656 606 Q 659 605 658 608 Q 655 609 656 606 Z " /><path fill="rgb(0,0,0)" stroke="rgb(0,0,0)" stroke-width="1" opacity="0.8196078431372549" d="M 370 608 L 374 608 L 374 610 Q 379.2 608.3 378 612 L 374 612 L 374 610 Q 368.8 611.7 370 608 Z " /><path fill="rgb(0,0,0)" stroke="rgb(0,0,0)" stroke-width="1" opacity="0.8196078431372549" d="M 652 608 Q 655 607 654 610 Q 651 611 652 608 Z " /><path fill="rgb(0,0,0)" stroke="rgb(0,0,0)" stroke-width="1" opacity="0.8196078431372549" d="M 646 610 Q 651.2 608.3 650 612 Q 644.8 613.7 646 610 Z " /><path fill="rgb(0,0,0)" stroke="rgb(0,0,0)" stroke-width="1" opacity="0.8196078431372549" d="M 380 612 Q 383 611 382 614 Q 379 615 380 612 Z " /><path fill="rgb(0,0,0)" stroke="rgb(0,0,0)" stroke-width="1" opacity="0.8196078431372549" d="M 642 612 Q 645 611 644 614 Q 641 615 642 612 Z " /><path fill="rgb(0,0,0)" stroke="rgb(0,0,0)" stroke-width="1" opacity="0.8196078431372549" d="M 384 614 Q 387 613 386 616 Q 383 617 384 614 Z " /><path fill="rgb(0,0,0)" stroke="rgb(0,0,0)" stroke-width="1" opacity="0.8196078431372549" d="M 638 614 Q 641 613 640 616 Q 637 617 638 614 Z " /><path fill="rgb(0,0,0)" stroke="rgb(0,0,0)" stroke-width="1" opacity="0.8196078431372549" d="M 390 616 Q 393 615 392 618 Q 389 619 390 616 Z " /><path fill="rgb(0,0,0)" stroke="rgb(0,0,0)" stroke-width="1" opacity="0.8196078431372549" d="M 632 616 Q 635 615 634 618 Q 631 619 632 616 Z " /><path fill="rgb(0,0,0)" stroke="rgb(0,0,0)" stroke-width="1" opacity="0.8196078431372549" d="M 394 618 Q 397 617 396 620 Q 393 621 394 618 Z " /><path fill="rgb(0,0,0)" stroke="rgb(0,0,0)" stroke-width="1" opacity="0.8196078431372549" d="M 628 618 Q 631 617 630 620 Q 627 621 628 618 Z " /><path fill="rgb(0,0,0)" stroke="rgb(0,0,0)" stroke-width="1" opacity="0.8196078431372549" d="M 400 620 Q 403 619 402 622 Q 399 623 400 620 Z " /><path fill="rgb(0,0,0)" stroke="rgb(0,0,0)" stroke-width="1" opacity="0.8196078431372549" d="M 622 620 Q 625 619 624 622 Q 621 623 622 620 Z " /><path fill="rgb(0,0,0)" stroke="rgb(0,0,0)" stroke-width="1" opacity="0.8196078431372549" d="M 406 622 Q 409 621 408 624 Q 405 625 406 622 Z " /><path fill="rgb(0,0,0)" stroke="rgb(0,0,0)" stroke-width="1" opacity="0.8196078431372549" d="M 616 622 Q 619 621 618 624 Q 615 625 616 622 Z " /><path fill="rgb(0,0,0)" stroke="rgb(0,0,0)" stroke-width="1" opacity="0.8196078431372549" d="M 412 624 Q 415 623 414 626 Q 411 627 412 624 Z " /><path fill="rgb(0,0,0)" stroke="rgb(0,0,0)" stroke-width="1" opacity="0.8196078431372549" d="M 610 624 Q 613 623 612 626 Q 609 627 610 624 Z " /><path fill="rgb(0,0,0)" stroke="rgb(0,0,0)" stroke-width="1" opacity="0.8196078431372549" d="M 418 626 Q 423.2 624.3 422 628 Q 416.8 629.7 418 626 Z " /><path fill="rgb(0,0,0)" stroke="rgb(0,0,0)" stroke-width="1" opacity="0.8196078431372549" d="M 602 626 Q 607.2 624.3 606 628 Q 600.8 629.7 602 626 Z " /><path fill="rgb(0,0,0)" stroke="rgb(0,0,0)" stroke-width="1" opacity="0.8196078431372549" d="M 240 628 Q 243 627 242 630 L 240 630 L 240 632 L 238 632 L 238 634 L 236 634 L 236 636 L 234 636 L 234 638 L 232 638 L 232 640 L 230 640 L 230 642 L 228 642 L 228 644 L 226 644 L 226 646 L 224 646 L 224 648 L 222 648 L 222 650 L 220 650 L 220 652 L 218 652 L 218 654 L 216 654 L 216 656 L 214 656 L 214 658 L 212 658 L 212 660 L 210 660 L 210 662 L 208 662 L 208 664 L 206 664 L 206 666 L 204 666 L 204 668 L 202 668 L 202 670 L 200 670 L 200 672 L 198 672 L 198 674 L 196 674 L 196 676 L 194 676 L 194 678 L 192 678 L 192 680 L 190 680 L 190 682 L 188 682 L 188 684 L 186 684 L 186 686 L 184 686 L 184 688 L 182 688 L 182 690 L 180 690 L 180 692 L 178 692 L 178 694 L 176 694 L 176 696 L 174 696 L 174 698 L 172 698 L 170 702 L 168 702 L 168 700 L 170 700 L 170 698 L 172 698 L 172 696 L 174 696 L 174 694 L 176 694 L 176 692 L 178 692 L 178 690 L 180 690 L 180 688 L 182 688 L 182 686 L 184 686 L 184 684 L 186 684 L 186 682 L 188 682 L 188 680 L 190 680 L 190 678 L 192 678 L 192 676 L 194 676 L 194 674 L 196 674 L 196 672 L 198 672 L 198 670 L 200 670 L 200 668 L 202 668 L 202 666 L 204 666 L 204 664 L 206 664 L 206 662 L 208 662 L 208 660 L 210 660 L 210 658 L 212 658 L 212 656 L 214 656 L 214 654 L 216 654 L 216 652 L 218 652 L 218 650 L 220 650 L 220 648 L 222 648 L 222 646 L 224 646 L 224 644 L 226 644 L 226 642 L 228 642 L 228 640 L 230 640 L 230 638 L 232 638 L 232 636 L 234 636 L 234 634 L 236 634 L 238 630 L 240 630 L 240 628 Z " /><path fill="rgb(0,0,0)" stroke="rgb(0,0,0)" stroke-width="1" opacity="0.8196078431372549" d="M 424 628 Q 429.2 626.3 428 630 Q 422.8 631.7 424 628 Z " /><path fill="rgb(0,0,0)" stroke="rgb(0,0,0)" stroke-width="1" opacity="0.8196078431372549" d="M 596 628 Q 601.2 626.3 600 630 Q 594.8 631.7 596 628 Z " /><path fill="rgb(0,0,0)" stroke="rgb(0,0,0)" stroke-width="1" opacity="0.8196078431372549" d="M 782 628 L 784 628 L 784 630 L 786 630 L 786 632 L 788 632 L 788 634 L 790 634 L 790 636 L 792 636 L 792 638 L 794 638 L 794 640 L 796 640 L 796 642 L 798 642 L 798 644 L 800 644 L 800 646 L 802 646 L 802 648 L 804 648 L 804 650 L 806 650 L 806 652 L 808 652 L 808 654 L 810 654 L 810 656 L 812 656 L 812 658 L 814 658 L 814 660 L 816 660 L 816 662 L 818 662 L 818 664 L 820 664 L 820 666 L 822 666 L 822 668 L 824 668 L 824 670 L 826 670 L 826 672 L 828 672 L 828 674 L 830 674 L 830 676 L 832 676 L 832 678 L 834 678 L 834 680 L 836 680 L 836 682 L 838 682 L 838 684 L 840 684 L 840 686 L 842 686 L 842 688 L 844 688 L 844 690 L 846 690 L 846 692 L 848 692 L 848 694 L 850 694 L 850 696 L 852 696 L 852 698 L 856 700 L 856 702 L 854 702 L 854 700 L 852 700 L 852 698 L 850 698 L 850 696 L 848 696 L 848 694 L 846 694 L 846 692 L 844 692 L 844 690 L 842 690 L 842 688 L 840 688 L 840 686 L 838 686 L 838 684 L 836 684 L 836 682 L 834 682 L 834 680 L 832 680 L 832 678 L 830 678 L 830 676 L 828 676 L 828 674 L 826 674 L 826 672 L 824 672 L 824 670 L 822 670 L 822 668 L 820 668 L 820 666 L 818 666 L 818 664 L 816 664 L 816 662 L 814 662 L 814 660 L 812 660 L 812 658 L 810 658 L 810 656 L 808 656 L 808 654 L 806 654 L 806 652 L 804 652 L 804 650 L 802 650 L 802 648 L 800 648 L 800 646 L 798 646 L 798 644 L 796 644 L 796 642 L 794 642 L 794 640 L 792 640 L 792 638 L 790 638 L 790 636 L 788 636 L 788 634 L 786 634 L 786 632 L 782 630 L 782 628 Z " /><path fill="rgb(0,0,0)" stroke="rgb(0,0,0)" stroke-width="1" opacity="0.8196078431372549" d="M 246 630 L 248 630 L 250 634 L 248 634 L 246 630 Z " /><path fill="rgb(0,0,0)" stroke="rgb(0,0,0)" stroke-width="1" opacity="0.8196078431372549" d="M 432 630 Q 437.2 628.3 436 632 Q 430.8 633.7 432 630 Z " /><path fill="rgb(0,0,0)" stroke="rgb(0,0,0)" stroke-width="1" opacity="0.8196078431372549" d="M 588 630 Q 593.2 628.3 592 632 Q 586.8 633.7 588 630 Z " /><path fill="rgb(0,0,0)" stroke="rgb(0,0,0)" stroke-width="1" opacity="0.8196078431372549" d="M 776 630 Q 779 629 778 632 L 774 634 L 776 630 Z " /><path fill="rgb(0,0,0)" stroke="rgb(0,0,0)" stroke-width="1" opacity="0.8196078431372549" d="M 440 632 L 446 632 L 446 634 L 440 634 L 440 632 Z " /><path fill="rgb(0,0,0)" stroke="rgb(0,0,0)" stroke-width="1" opacity="0.8196078431372549" d="M 578 632 L 584 632 L 584 634 L 578 634 L 578 632 Z " /><path fill="rgb(0,0,0)" stroke="rgb(0,0,0)" stroke-width="1" opacity="0.8196078431372549" d="M 450 634 L 456 634 L 456 636 L 450 636 L 450 634 Z " /><path fill="rgb(0,0,0)" stroke="rgb(0,0,0)" stroke-width="1" opacity="0.8196078431372549" d="M 568 634 L 574 634 L 574 636 L 568 636 L 568 634 Z " /><path fill="rgb(0,0,0)" stroke="rgb(0,0,0)" stroke-width="1" opacity="0.8196078431372549" d="M 254 636 L 256 636 L 258 640 L 256 640 L 254 636 Z " /><path fill="rgb(0,0,0)" stroke="rgb(0,0,0)" stroke-width="1" opacity="0.8196078431372549" d="M 462 636 L 469.5 636 L 470 638 L 462.5 638 L 462 636 Z " /><path fill="rgb(0,0,0)" stroke="rgb(0,0,0)" stroke-width="1" opacity="0.8196078431372549" d="M 554 636 L 561.5 636 L 562 638 L 554.5 638 L 554 636 Z " /><path fill="rgb(0,0,0)" stroke="rgb(0,0,0)" stroke-width="1" opacity="0.8196078431372549" d="M 768 636 Q 771 635 770 638 L 766 640 L 768 636 Z " /><path fill="rgb(0,0,0)" stroke="rgb(0,0,0)" stroke-width="1" opacity="0.8196078431372549" d="M 478 638 L 487.5 638 L 488 640 L 478.5 640 L 478 638 Z " /><path fill="rgb(0,0,0)" stroke="rgb(0,0,0)" stroke-width="1" opacity="0.8196078431372549" d="M 536 638 L 545.5 638 L 546 640 L 536.5 640 L 536 638 Z " /><path fill="rgb(0,0,0)" stroke="rgb(0,0,0)" stroke-width="1" opacity="0.8196078431372549" d="M 108 642 Q 111 641 110 644 L 106 646 L 108 642 Z " /><path fill="rgb(0,0,0)" stroke="rgb(0,0,0)" stroke-width="1" opacity="0.8196078431372549" d="M 262 642 L 264 642 L 266 646 L 264 646 L 262 642 Z " /><path fill="rgb(0,0,0)" stroke="rgb(0,0,0)" stroke-width="1" opacity="0.8196078431372549" d="M 760 642 Q 763 641 762 644 L 758 646 L 760 642 Z " /><path fill="rgb(0,0,0)" stroke="rgb(0,0,0)" stroke-width="1" opacity="0.8196078431372549" d="M 914 642 L 916 642 L 918 646 L 916 646 L 914 642 Z " /><path fill="rgb(0,0,0)" stroke="rgb(0,0,0)" stroke-width="1" opacity="0.8196078431372549" d="M 268 646 L 270 646 L 272 650 L 270 650 L 268 646 Z " /><path fill="rgb(0,0,0)" stroke="rgb(0,0,0)" stroke-width="1" opacity="0.8196078431372549" d="M 754 646 Q 757 645 756 648 L 752 650 L 754 646 Z " /><path fill="rgb(0,0,0)" stroke="rgb(0,0,0)" stroke-width="1" opacity="0.8196078431372549" d="M 104 648 Q 107 647 106 650 Q 103 651 104 648 Z " /><path fill="rgb(0,0,0)" stroke="rgb(0,0,0)" stroke-width="1" opacity="0.8196078431372549" d="M 918 648 Q 921 647 920 650 Q 917 651 918 648 Z " /><path fill="rgb(0,0,0)" stroke="rgb(0,0,0)" stroke-width="1" opacity="0.8196078431372549" d="M 274 650 L 276 650 L 278 654 L 276 654 L 274 650 Z " /><path fill="rgb(0,0,0)" stroke="rgb(0,0,0)" stroke-width="1" opacity="0.8196078431372549" d="M 748 650 Q 751 649 750 652 L 746 654 L 748 650 Z " /><path fill="rgb(0,0,0)" stroke="rgb(0,0,0)" stroke-width="1" opacity="0.8196078431372549" d="M 102 654 Q 105 653 104 656 Q 101 657 102 654 Z " /><path fill="rgb(0,0,0)" stroke="rgb(0,0,0)" stroke-width="1" opacity="0.8196078431372549" d="M 280 654 L 282 654 L 284 658 L 282 658 L 280 654 Z " /><path fill="rgb(0,0,0)" stroke="rgb(0,0,0)" stroke-width="1" opacity="0.8196078431372549" d="M 742 654 Q 745 653 744 656 L 740 658 L 742 654 Z " /><path fill="rgb(0,0,0)" stroke="rgb(0,0,0)" stroke-width="1" opacity="0.8196078431372549" d="M 920 654 Q 923.7 652.8 922 658 Q 918.3 659.2 920 654 Z " /><path fill="rgb(0,0,0)" stroke="rgb(0,0,0)" stroke-width="1" opacity="0.8196078431372549" d="M 286 658 Q 289 657 288 660 Q 285 661 286 658 Z " /><path fill="rgb(0,0,0)" stroke="rgb(0,0,0)" stroke-width="1" opacity="0.8196078431372549" d="M 736 658 Q 739 657 738 660 Q 735 661 736 658 Z " /><path fill="rgb(0,0,0)" stroke="rgb(0,0,0)" stroke-width="1" opacity="0.8196078431372549" d="M 732 660 Q 735 659 734 662 L 730 664 L 732 660 Z " /><path fill="rgb(0,0,0)" stroke="rgb(0,0,0)" stroke-width="1" opacity="0.8196078431372549" d="M 100 662 L 102 662.5 L 102 672 L 100 671.5 L 100 662 Z " /><path fill="rgb(0,0,0)" stroke="rgb(0,0,0)" stroke-width="1" opacity="0.8196078431372549" d="M 292 662 Q 295 661 294 664 Q 291 665 292 662 Z " /><path fill="rgb(0,0,0)" stroke="rgb(0,0,0)" stroke-width="1" opacity="0.8196078431372549" d="M 922 662 L 924 662.5 L 924 672 L 922 671.5 L 922 662 Z " /><path fill="rgb(0,0,0)" stroke="rgb(0,0,0)" stroke-width="1" opacity="0.8196078431372549" d="M 296 664 Q 299 663 298 666 Q 295 667 296 664 Z " /><path fill="rgb(0,0,0)" stroke="rgb(0,0,0)" stroke-width="1" opacity="0.8196078431372549" d="M 726 664 Q 729 663 728 666 Q 725 667 726 664 Z " /><path fill="rgb(0,0,0)" stroke="rgb(0,0,0)" stroke-width="1" opacity="0.8196078431372549" d="M 300 666 L 302 666 L 304 670 L 302 670 L 300 666 Z " /><path fill="rgb(0,0,0)" stroke="rgb(0,0,0)" stroke-width="1" opacity="0.8196078431372549" d="M 722 666 Q 725 665 724 668 L 720 670 L 722 666 Z " /><path fill="rgb(0,0,0)" stroke="rgb(0,0,0)" stroke-width="1" opacity="0.8196078431372549" d="M 306 670 Q 309 669 308 672 Q 305 673 306 670 Z " /><path fill="rgb(0,0,0)" stroke="rgb(0,0,0)" stroke-width="1" opacity="0.8196078431372549" d="M 716 670 Q 719 669 718 672 Q 715 673 716 670 Z " /><path fill="rgb(0,0,0)" stroke="rgb(0,0,0)" stroke-width="1" opacity="0.8196078431372549" d="M 310 672 Q 313 671 312 674 Q 309 675 310 672 Z " /><path fill="rgb(0,0,0)" stroke="rgb(0,0,0)" stroke-width="1" opacity="0.8196078431372549" d="M 712 672 Q 715 671 714 674 Q 711 675 712 672 Z " /><path fill="rgb(0,0,0)" stroke="rgb(0,0,0)" stroke-width="1" opacity="0.8196078431372549" d="M 314 674 Q 317 673 316 676 Q 313 677 314 674 Z " /><path fill="rgb(0,0,0)" stroke="rgb(0,0,0)" stroke-width="1" opacity="0.8196078431372549" d="M 708 674 Q 711 673 710 676 Q 707 677 708 674 Z " /><path fill="rgb(0,0,0)" stroke="rgb(0,0,0)" stroke-width="1" opacity="0.8196078431372549" d="M 318 676 Q 321 675 320 678 L 324 678 L 324 680 L 320 680 L 318 676 Z " /><path fill="rgb(0,0,0)" stroke="rgb(0,0,0)" stroke-width="1" opacity="0.8196078431372549" d="M 704 676 Q 707 675 706 678 Q 703 677 704 680 L 700 680 L 700 682 L 696 682 L 696 680 L 700 680 L 700 678 Q 705.2 679.7 704 676 Z " /><path fill="rgb(0,0,0)" stroke="rgb(0,0,0)" stroke-width="1" opacity="0.8196078431372549" d="M 102 678 Q 105 677 104 680 Q 101 681 102 678 Z " /><path fill="rgb(0,0,0)" stroke="rgb(0,0,0)" stroke-width="1" opacity="0.8196078431372549" d="M 920 678 Q 923 677 922 680 Q 919 681 920 678 Z " /><path fill="rgb(0,0,0)" stroke="rgb(0,0,0)" stroke-width="1" opacity="0.8196078431372549" d="M 326 680 Q 329 679 328 682 Q 325 683 326 680 Z " /><path fill="rgb(0,0,0)" stroke="rgb(0,0,0)" stroke-width="1" opacity="0.8196078431372549" d="M 330 682 Q 333 681 332 684 Q 329 685 330 682 Z " /><path fill="rgb(0,0,0)" stroke="rgb(0,0,0)" stroke-width="1" opacity="0.8196078431372549" d="M 692 682 Q 695 681 694 684 Q 691 685 692 682 Z " /><path fill="rgb(0,0,0)" stroke="rgb(0,0,0)" stroke-width="1" opacity="0.8196078431372549" d="M 104 684 Q 107 683 106 686 Q 103 687 104 684 Z " /><path fill="rgb(0,0,0)" stroke="rgb(0,0,0)" stroke-width="1" opacity="0.8196078431372549" d="M 334 684 Q 337 683 336 686 Q 333 687 334 684 Z " /><path fill="rgb(0,0,0)" stroke="rgb(0,0,0)" stroke-width="1" opacity="0.8196078431372549" d="M 688 684 Q 691 683 690 686 Q 687 687 688 684 Z " /><path fill="rgb(0,0,0)" stroke="rgb(0,0,0)" stroke-width="1" opacity="0.8196078431372549" d="M 918 684 Q 921 683 920 686 Q 917 687 918 684 Z " /><path fill="rgb(0,0,0)" stroke="rgb(0,0,0)" stroke-width="1" opacity="0.8196078431372549" d="M 338 686 Q 341 685 340 688 Q 337 689 338 686 Z " /><path fill="rgb(0,0,0)" stroke="rgb(0,0,0)" stroke-width="1" opacity="0.8196078431372549" d="M 684 686 Q 687 685 686 688 Q 683 689 684 686 Z " /><path fill="rgb(0,0,0)" stroke="rgb(0,0,0)" stroke-width="1" opacity="0.8196078431372549" d="M 106 688 L 108 688 L 110 692 L 108 692 L 106 688 Z " /><path fill="rgb(0,0,0)" stroke="rgb(0,0,0)" stroke-width="1" opacity="0.8196078431372549" d="M 342 688 Q 345 687 344 690 Q 341 691 342 688 Z " /><path fill="rgb(0,0,0)" stroke="rgb(0,0,0)" stroke-width="1" opacity="0.8196078431372549" d="M 680 688 Q 683 687 682 690 Q 679 691 680 688 Z " /><path fill="rgb(0,0,0)" stroke="rgb(0,0,0)" stroke-width="1" opacity="0.8196078431372549" d="M 916 688 Q 919 687 918 690 L 914 692 L 916 688 Z " /><path fill="rgb(0,0,0)" stroke="rgb(0,0,0)" stroke-width="1" opacity="0.8196078431372549" d="M 346 690 Q 349 689 348 692 Q 345 693 346 690 Z " /><path fill="rgb(0,0,0)" stroke="rgb(0,0,0)" stroke-width="1" opacity="0.8196078431372549" d="M 676 690 Q 679 689 678 692 Q 675 693 676 690 Z " /><path fill="rgb(0,0,0)" stroke="rgb(0,0,0)" stroke-width="1" opacity="0.8196078431372549" d="M 350 692 Q 353.7 690.8 352 696 Q 348.3 697.2 350 692 Z " /><path fill="rgb(0,0,0)" stroke="rgb(0,0,0)" stroke-width="1" opacity="0.8196078431372549" d="M 672 692 Q 675.7 690.8 674 696 Q 670.3 697.2 672 692 Z " /><path fill="rgb(0,0,0)" stroke="rgb(0,0,0)" stroke-width="1" opacity="0.8196078431372549" d="M 348 698 Q 351.7 696.8 350 702 Q 346.3 703.2 348 698 Z " /><path fill="rgb(0,0,0)" stroke="rgb(0,0,0)" stroke-width="1" opacity="0.8196078431372549" d="M 674 698 Q 677.7 696.8 676 702 Q 672.3 703.2 674 698 Z " /><path fill="rgb(0,0,0)" stroke="rgb(0,0,0)" stroke-width="1" opacity="0.8196078431372549" d="M 118 700 L 120 700 L 122 704 L 120 704 L 118 700 Z " /><path fill="rgb(0,0,0)" stroke="rgb(0,0,0)" stroke-width="1" opacity="0.8196078431372549" d="M 904 700 Q 907 699 906 702 L 902 704 L 904 700 Z " /><path fill="rgb(0,0,0)" stroke="rgb(0,0,0)" stroke-width="1" opacity="0.8196078431372549" d="M 164 702 Q 167 701 166 704 L 162 706 L 164 702 Z " /><path fill="rgb(0,0,0)" stroke="rgb(0,0,0)" stroke-width="1" opacity="0.8196078431372549" d="M 858 702 L 860 702 L 862 706 L 860 706 L 858 702 Z " /><path fill="rgb(0,0,0)" stroke="rgb(0,0,0)" stroke-width="1" opacity="0.8196078431372549" d="M 124 704 Q 127 703 126 706 Q 123 707 124 704 Z " /><path fill="rgb(0,0,0)" stroke="rgb(0,0,0)" stroke-width="1" opacity="0.8196078431372549" d="M 346 704 Q 349.7 702.8 348 708 Q 344.3 709.2 346 704 Z " /><path fill="rgb(0,0,0)" stroke="rgb(0,0,0)" stroke-width="1" opacity="0.8196078431372549" d="M 676 704 Q 679.7 702.8 678 708 Q 674.3 709.2 676 704 Z " /><path fill="rgb(0,0,0)" stroke="rgb(0,0,0)" stroke-width="1" opacity="0.8196078431372549" d="M 898 704 Q 901 703 900 706 Q 897 707 898 704 Z " /><path fill="rgb(0,0,0)" stroke="rgb(0,0,0)" stroke-width="1" opacity="0.8196078431372549" d="M 128 706 Q 133.2 704.3 132 708 Q 126.8 709.7 128 706 Z " /><path fill="rgb(0,0,0)" stroke="rgb(0,0,0)" stroke-width="1" opacity="0.8196078431372549" d="M 156 706 Q 161.2 704.3 160 708 Q 154.8 709.7 156 706 Z " /><path fill="rgb(0,0,0)" stroke="rgb(0,0,0)" stroke-width="1" opacity="0.8196078431372549" d="M 864 706 Q 869.2 704.3 868 708 Q 862.8 709.7 864 706 Z " /><path fill="rgb(0,0,0)" stroke="rgb(0,0,0)" stroke-width="1" opacity="0.8196078431372549" d="M 892 706 Q 897.2 704.3 896 708 Q 890.8 709.7 892 706 Z " /><path fill="rgb(0,0,0)" stroke="rgb(0,0,0)" stroke-width="1" opacity="0.8196078431372549" d="M 134 708 L 151.5 708 L 152 710 L 134.5 710 L 134 708 Z " /><path fill="rgb(0,0,0)" stroke="rgb(0,0,0)" stroke-width="1" opacity="0.8196078431372549" d="M 872 708 L 889.5 708 L 890 710 L 872.5 710 L 872 708 Z " /><path fill="rgb(0,0,0)" stroke="rgb(0,0,0)" stroke-width="1" opacity="0.8196078431372549" d="M 344 710 Q 347 709 346 712 Q 343 713 344 710 Z " /><path fill="rgb(0,0,0)" stroke="rgb(0,0,0)" stroke-width="1" opacity="0.8196078431372549" d="M 678 710 Q 681 709 680 712 Q 677 713 678 710 Z " /><path fill="rgb(0,0,0)" stroke="rgb(0,0,0)" stroke-width="1" opacity="0.8196078431372549" d="M 342 716 Q 345 715 344 718 Q 341 719 342 716 Z " /><path fill="rgb(0,0,0)" stroke="rgb(0,0,0)" stroke-width="1" opacity="0.8196078431372549" d="M 680 716 Q 683 715 682 718 Q 679 719 680 716 Z " /><path fill="rgb(0,0,0)" stroke="rgb(0,0,0)" stroke-width="1" opacity="0.8196078431372549" d="M 440 718 L 446 718 L 446 720 L 440 720 L 440 718 Z " /><path fill="rgb(0,0,0)" stroke="rgb(0,0,0)" stroke-width="1" opacity="0.8196078431372549" d="M 580 718 L 586 718 L 586 720 L 580 720 L 580 718 Z " /><path fill="rgb(0,0,0)" stroke="rgb(0,0,0)" stroke-width="1" opacity="0.8196078431372549" d="M 430 720 Q 433.7 718.8 432 724 Q 428.3 725.2 430 720 Z " /><path fill="rgb(0,0,0)" stroke="rgb(0,0,0)" stroke-width="1" opacity="0.8196078431372549" d="M 450 720 L 457.5 720 L 458 722 L 450.5 722 L 450 720 Z " /><path fill="rgb(0,0,0)" stroke="rgb(0,0,0)" stroke-width="1" opacity="0.8196078431372549" d="M 566 720 L 573.5 720 L 574 722 L 566.5 722 L 566 720 Z " /><path fill="rgb(0,0,0)" stroke="rgb(0,0,0)" stroke-width="1" opacity="0.8196078431372549" d="M 592 720 Q 595.7 718.8 594 724 Q 590.3 725.2 592 720 Z " /><path fill="rgb(0,0,0)" stroke="rgb(0,0,0)" stroke-width="1" opacity="0.8196078431372549" d="M 340 722 Q 343 721 342 724 Q 339 725 340 722 Z " /><path fill="rgb(0,0,0)" stroke="rgb(0,0,0)" stroke-width="1" opacity="0.8196078431372549" d="M 466 722 L 477.5 722 L 478 724 L 466.5 724 L 466 722 Z " /><path fill="rgb(0,0,0)" stroke="rgb(0,0,0)" stroke-width="1" opacity="0.8196078431372549" d="M 546 722 L 557.5 722 L 558 724 L 546.5 724 L 546 722 Z " /><path fill="rgb(0,0,0)" stroke="rgb(0,0,0)" stroke-width="1" opacity="0.8196078431372549" d="M 682 722 Q 685 721 684 724 Q 681 725 682 722 Z " /><path fill="rgb(0,0,0)" stroke="rgb(0,0,0)" stroke-width="1" opacity="0.8196078431372549" d="M 492 724 L 531.5 724 L 532 726 L 492.5 726 L 492 724 Z " /><path fill="rgb(0,0,0)" stroke="rgb(0,0,0)" stroke-width="1" opacity="0.8196078431372549" d="M 428 726 Q 431.7 724.8 430 730 Q 426.3 731.2 428 726 Z " /><path fill="rgb(0,0,0)" stroke="rgb(0,0,0)" stroke-width="1" opacity="0.8196078431372549" d="M 594 726 Q 597.7 724.8 596 730 Q 592.3 731.2 594 726 Z " /><path fill="rgb(0,0,0)" stroke="rgb(0,0,0)" stroke-width="1" opacity="0.8196078431372549" d="M 338 728 Q 341 727 340 730 Q 337 731 338 728 Z " /><path fill="rgb(0,0,0)" stroke="rgb(0,0,0)" stroke-width="1" opacity="0.8196078431372549" d="M 684 728 Q 687 727 686 730 Q 683 731 684 728 Z " /><path fill="rgb(0,0,0)" stroke="rgb(0,0,0)" stroke-width="1" opacity="0.8196078431372549" d="M 336 732 Q 339.7 730.8 338 736 Q 334.3 737.2 336 732 Z " /><path fill="rgb(0,0,0)" stroke="rgb(0,0,0)" stroke-width="1" opacity="0.8196078431372549" d="M 426 732 Q 429 731 428 734 Q 425 735 426 732 Z " /><path fill="rgb(0,0,0)" stroke="rgb(0,0,0)" stroke-width="1" opacity="0.8196078431372549" d="M 596 732 Q 599.7 730.8 598 736 Q 594.3 737.2 596 732 Z " /><path fill="rgb(0,0,0)" stroke="rgb(0,0,0)" stroke-width="1" opacity="0.8196078431372549" d="M 686 732 Q 689.7 730.8 688 736 Q 684.3 737.2 686 732 Z " /><path fill="rgb(0,0,0)" stroke="rgb(0,0,0)" stroke-width="1" opacity="0.8196078431372549" d="M 334 738 Q 337.7 736.8 336 742 Q 332.3 743.2 334 738 Z " /><path fill="rgb(0,0,0)" stroke="rgb(0,0,0)" stroke-width="1" opacity="0.8196078431372549" d="M 424 738 Q 427 737 426 740 Q 423 741 424 738 Z " /><path fill="rgb(0,0,0)" stroke="rgb(0,0,0)" stroke-width="1" opacity="0.8196078431372549" d="M 598 738 Q 601 737 600 740 Q 597 741 598 738 Z " /><path fill="rgb(0,0,0)" stroke="rgb(0,0,0)" stroke-width="1" opacity="0.8196078431372549" d="M 688 738 Q 691.7 736.8 690 742 Q 686.3 743.2 688 738 Z " /><path fill="rgb(0,0,0)" stroke="rgb(0,0,0)" stroke-width="1" opacity="0.8196078431372549" d="M 332 744 Q 335.7 742.8 334 748 Q 330.3 749.2 332 744 Z " /><path fill="rgb(0,0,0)" stroke="rgb(0,0,0)" stroke-width="1" opacity="0.8196078431372549" d="M 422 744 Q 425 743 424 746 Q 421 747 422 744 Z " /><path fill="rgb(0,0,0)" stroke="rgb(0,0,0)" stroke-width="1" opacity="0.8196078431372549" d="M 600 744 Q 603 743 602 746 Q 599 747 600 744 Z " /><path fill="rgb(0,0,0)" stroke="rgb(0,0,0)" stroke-width="1" opacity="0.8196078431372549" d="M 690 744 Q 693.7 742.8 692 748 Q 688.3 749.2 690 744 Z " /><path fill="rgb(0,0,0)" stroke="rgb(0,0,0)" stroke-width="1" opacity="0.8196078431372549" d="M 330 750 Q 333.7 748.8 332 754 Q 328.3 755.2 330 750 Z " /><path fill="rgb(0,0,0)" stroke="rgb(0,0,0)" stroke-width="1" opacity="0.8196078431372549" d="M 420 750 Q 423 749 422 752 Q 419 753 420 750 Z " /><path fill="rgb(0,0,0)" stroke="rgb(0,0,0)" stroke-width="1" opacity="0.8196078431372549" d="M 602 750 Q 605 749 604 752 Q 601 753 602 750 Z " /><path fill="rgb(0,0,0)" stroke="rgb(0,0,0)" stroke-width="1" opacity="0.8196078431372549" d="M 692 750 Q 695 749 694 752 Q 691 753 692 750 Z " /><path fill="rgb(0,0,0)" stroke="rgb(0,0,0)" stroke-width="1" opacity="0.8196078431372549" d="M 418 754 Q 421.7 752.8 420 758 Q 416.3 759.2 418 754 Z " /><path fill="rgb(0,0,0)" stroke="rgb(0,0,0)" stroke-width="1" opacity="0.8196078431372549" d="M 604 754 Q 607.7 752.8 606 758 Q 602.3 759.2 604 754 Z " /><path fill="rgb(0,0,0)" stroke="rgb(0,0,0)" stroke-width="1" opacity="0.8196078431372549" d="M 328 756 Q 331 755 330 758 Q 327 759 328 756 Z " /><path fill="rgb(0,0,0)" stroke="rgb(0,0,0)" stroke-width="1" opacity="0.8196078431372549" d="M 694 756 Q 697 755 696 758 Q 693 759 694 756 Z " /><path fill="rgb(0,0,0)" stroke="rgb(0,0,0)" stroke-width="1" opacity="0.8196078431372549" d="M 416 760 Q 419.7 758.8 418 764 Q 414.3 765.2 416 760 Z " /><path fill="rgb(0,0,0)" stroke="rgb(0,0,0)" stroke-width="1" opacity="0.8196078431372549" d="M 606 760 Q 609.7 758.8 608 764 Q 604.3 765.2 606 760 Z " /><path fill="rgb(0,0,0)" stroke="rgb(0,0,0)" stroke-width="1" opacity="0.8196078431372549" d="M 326 762 Q 329 761 328 764 Q 325 765 326 762 Z " /><path fill="rgb(0,0,0)" stroke="rgb(0,0,0)" stroke-width="1" opacity="0.8196078431372549" d="M 696 762 Q 699 761 698 764 Q 695 765 696 762 Z " /><path fill="rgb(0,0,0)" stroke="rgb(0,0,0)" stroke-width="1" opacity="0.8196078431372549" d="M 414 766 Q 417.7 764.8 416 770 Q 412.3 771.2 414 766 Z " /><path fill="rgb(0,0,0)" stroke="rgb(0,0,0)" stroke-width="1" opacity="0.8196078431372549" d="M 608 766 Q 611.7 764.8 610 770 Q 606.3 771.2 608 766 Z " /><path fill="rgb(0,0,0)" stroke="rgb(0,0,0)" stroke-width="1" opacity="0.8196078431372549" d="M 324 768 Q 327 767 326 770 Q 323 771 324 768 Z " /><path fill="rgb(0,0,0)" stroke="rgb(0,0,0)" stroke-width="1" opacity="0.8196078431372549" d="M 698 768 Q 701 767 700 770 Q 697 771 698 768 Z " /><path fill="rgb(0,0,0)" stroke="rgb(0,0,0)" stroke-width="1" opacity="0.8196078431372549" d="M 322 772 Q 325.7 770.8 324 776 Q 320.3 777.2 322 772 Z " /><path fill="rgb(0,0,0)" stroke="rgb(0,0,0)" stroke-width="1" opacity="0.8196078431372549" d="M 412 772 Q 415.7 770.8 414 776 Q 410.3 777.2 412 772 Z " /><path fill="rgb(0,0,0)" stroke="rgb(0,0,0)" stroke-width="1" opacity="0.8196078431372549" d="M 610 772 Q 613.7 770.8 612 776 Q 608.3 777.2 610 772 Z " /><path fill="rgb(0,0,0)" stroke="rgb(0,0,0)" stroke-width="1" opacity="0.8196078431372549" d="M 700 774 Q 703 773 702 776 Q 699 777 700 774 Z " /><path fill="rgb(0,0,0)" stroke="rgb(0,0,0)" stroke-width="1" opacity="0.8196078431372549" d="M 410 778 Q 413 777 412 780 Q 409 781 410 778 Z " /><path fill="rgb(0,0,0)" stroke="rgb(0,0,0)" stroke-width="1" opacity="0.8196078431372549" d="M 612 778 Q 615 777 614 780 Q 611 781 612 778 Z " /><path fill="rgb(0,0,0)" stroke="rgb(0,0,0)" stroke-width="1" opacity="0.8196078431372549" d="M 320 780 L 322 780 L 322 786 L 320 786 L 320 780 Z " /><path fill="rgb(0,0,0)" stroke="rgb(0,0,0)" stroke-width="1" opacity="0.8196078431372549" d="M 702 780 L 704 780 L 704 786 L 702 786 L 702 780 Z " /><path fill="rgb(0,0,0)" stroke="rgb(0,0,0)" stroke-width="1" opacity="0.8196078431372549" d="M 408 784 Q 411 783 410 786 Q 407 787 408 784 Z " /><path fill="rgb(0,0,0)" stroke="rgb(0,0,0)" stroke-width="1" opacity="0.8196078431372549" d="M 614 784 Q 617 783 616 786 Q 613 787 614 784 Z " /><path fill="rgb(0,0,0)" stroke="rgb(0,0,0)" stroke-width="1" opacity="0.8196078431372549" d="M 406 790 Q 409 789 408 792 Q 405 793 406 790 Z " /><path fill="rgb(0,0,0)" stroke="rgb(0,0,0)" stroke-width="1" opacity="0.8196078431372549" d="M 616 790 Q 619 789 618 792 Q 615 793 616 790 Z " /><path fill="rgb(0,0,0)" stroke="rgb(0,0,0)" stroke-width="1" opacity="0.8196078431372549" d="M 702 792 L 704 792.5 L 704 800 L 702 799.5 L 702 792 Z " /><path fill="rgb(0,0,0)" stroke="rgb(0,0,0)" stroke-width="1" opacity="0.8196078431372549" d="M 320 794 L 322 794 L 322 800 L 320 800 L 320 794 Z " /><path fill="rgb(0,0,0)" stroke="rgb(0,0,0)" stroke-width="1" opacity="0.8196078431372549" d="M 404 796 Q 407 795 406 798 Q 403 799 404 796 Z " /><path fill="rgb(0,0,0)" stroke="rgb(0,0,0)" stroke-width="1" opacity="0.8196078431372549" d="M 618 796 Q 621 795 620 798 Q 617 799 618 796 Z " /><path fill="rgb(0,0,0)" stroke="rgb(0,0,0)" stroke-width="1" opacity="0.8196078431372549" d="M 402 800 Q 405.7 798.8 404 804 Q 400.3 805.2 402 800 Z " /><path fill="rgb(0,0,0)" stroke="rgb(0,0,0)" stroke-width="1" opacity="0.8196078431372549" d="M 620 800 Q 623.7 798.8 622 804 Q 618.3 805.2 620 800 Z " /><path fill="rgb(0,0,0)" stroke="rgb(0,0,0)" stroke-width="1" opacity="0.8196078431372549" d="M 322 802 Q 325.7 800.8 324 806 Q 320.3 807.2 322 802 Z " /><path fill="rgb(0,0,0)" stroke="rgb(0,0,0)" stroke-width="1" opacity="0.8196078431372549" d="M 700 802 Q 703.7 800.8 702 806 Q 698.3 807.2 700 802 Z " /><path fill="rgb(0,0,0)" stroke="rgb(0,0,0)" stroke-width="1" opacity="0.8196078431372549" d="M 400 806 Q 403 805 402 808 Q 399 809 400 806 Z " /><path fill="rgb(0,0,0)" stroke="rgb(0,0,0)" stroke-width="1" opacity="0.8196078431372549" d="M 622 806 Q 625 805 624 808 Q 621 809 622 806 Z " /><path fill="rgb(0,0,0)" stroke="rgb(0,0,0)" stroke-width="1" opacity="0.8196078431372549" d="M 324 808 Q 327 807 326 810 Q 323 811 324 808 Z " /><path fill="rgb(0,0,0)" stroke="rgb(0,0,0)" stroke-width="1" opacity="0.8196078431372549" d="M 698 808 Q 701 807 700 810 Q 697 811 698 808 Z " /><path fill="rgb(0,0,0)" stroke="rgb(0,0,0)" stroke-width="1" opacity="0.8196078431372549" d="M 398 810 Q 401 809 400 812 Q 397 813 398 810 Z " /><path fill="rgb(0,0,0)" stroke="rgb(0,0,0)" stroke-width="1" opacity="0.8196078431372549" d="M 624 810 Q 627 809 626 812 Q 623 813 624 810 Z " /><path fill="rgb(0,0,0)" stroke="rgb(0,0,0)" stroke-width="1" opacity="0.8196078431372549" d="M 328 814 L 330 814 L 330 816 L 332 816 L 332 818 L 334 818 L 334 820 L 336 820 L 338 824 L 336 824 L 336 822 L 334 822 L 334 820 L 332 820 L 332 818 L 330 818 L 328 814 Z " /><path fill="rgb(0,0,0)" stroke="rgb(0,0,0)" stroke-width="1" opacity="0.8196078431372549" d="M 694 814 Q 697 813 696 816 L 694 816 L 694 818 L 692 818 L 692 820 L 690 820 L 690 822 L 686 824 L 686 822 L 688 822 L 688 820 L 690 820 L 690 818 L 692 818 L 694 814 Z " /><path fill="rgb(0,0,0)" stroke="rgb(0,0,0)" stroke-width="1" opacity="0.8196078431372549" d="M 394 816 Q 397 815 396 818 L 394 818 L 394 820 L 392 820 L 392 822 L 388 824 L 388 822 L 390 822 L 390 820 L 392 820 L 394 816 Z " /><path fill="rgb(0,0,0)" stroke="rgb(0,0,0)" stroke-width="1" opacity="0.8196078431372549" d="M 628 816 L 630 816 L 630 818 L 632 818 L 632 820 L 634 820 L 636 824 L 634 824 L 634 822 L 632 822 L 632 820 L 630 820 L 628 816 Z " /><path fill="rgb(0,0,0)" stroke="rgb(0,0,0)" stroke-width="1" opacity="0.8196078431372549" d="M 384 824 Q 387 823 386 826 Q 383 827 384 824 Z " /><path fill="rgb(0,0,0)" stroke="rgb(0,0,0)" stroke-width="1" opacity="0.8196078431372549" d="M 638 824 Q 641 823 640 826 Q 637 827 638 824 Z " /><path fill="rgb(0,0,0)" stroke="rgb(0,0,0)" stroke-width="1" opacity="0.8196078431372549" d="M 342 826 Q 345 825 344 828 Q 341 829 342 826 Z " /><path fill="rgb(0,0,0)" stroke="rgb(0,0,0)" stroke-width="1" opacity="0.8196078431372549" d="M 380 826 Q 383 825 382 828 Q 379 829 380 826 Z " /><path fill="rgb(0,0,0)" stroke="rgb(0,0,0)" stroke-width="1" opacity="0.8196078431372549" d="M 642 826 Q 645 825 644 828 Q 641 829 642 826 Z " /><path fill="rgb(0,0,0)" stroke="rgb(0,0,0)" stroke-width="1" opacity="0.8196078431372549" d="M 680 826 Q 683 825 682 828 Q 679 829 680 826 Z " /><path fill="rgb(0,0,0)" stroke="rgb(0,0,0)" stroke-width="1" opacity="0.8196078431372549" d="M 346 828 Q 351.2 826.3 350 830 Q 344.8 831.7 346 828 Z " /><path fill="rgb(0,0,0)" stroke="rgb(0,0,0)" stroke-width="1" opacity="0.8196078431372549" d="M 376 828 Q 379 827 378 830 Q 375 831 376 828 Z " /><path fill="rgb(0,0,0)" stroke="rgb(0,0,0)" stroke-width="1" opacity="0.8196078431372549" d="M 646 828 Q 649 827 648 830 Q 645 831 646 828 Z " /><path fill="rgb(0,0,0)" stroke="rgb(0,0,0)" stroke-width="1" opacity="0.8196078431372549" d="M 674 828 Q 679.2 826.3 678 830 Q 672.8 831.7 674 828 Z " /><path fill="rgb(0,0,0)" stroke="rgb(0,0,0)" stroke-width="1" opacity="0.8196078431372549" d="M 352 830 L 359.5 830 L 360 832 L 352.5 832 L 352 830 Z " /><path fill="rgb(0,0,0)" stroke="rgb(0,0,0)" stroke-width="1" opacity="0.8196078431372549" d="M 366 830 L 372 830 L 372 832 L 366 832 L 366 830 Z " /><path fill="rgb(0,0,0)" stroke="rgb(0,0,0)" stroke-width="1" opacity="0.8196078431372549" d="M 652 830 L 658 830 L 658 832 L 652 832 L 652 830 Z " /><path fill="rgb(0,0,0)" stroke="rgb(0,0,0)" stroke-width="1" opacity="0.8196078431372549" d="M 664 830 L 671.5 830 L 672 832 L 664.5 832 L 664 830 Z " /><path fill="rgb(0,0,0)" stroke="rgb(0,0,0)" stroke-width="1" opacity="1" d="M 124 384 L 131.5 384 L 132.5 386 L 141.5 386 Q 140.7 389.3 146 388 L 146 390 L 150 390 L 152 394 L 156 394 L 156 396 L 158 396 L 158 398 L 162 400 L 162 404 Q 165.7 402.8 164 408 L 168 410 L 168 414 L 170 414 L 170 417.5 Q 173.3 416.7 172 422 L 176 424 L 176 427.5 Q 179.2 426.7 178 432 L 182 434 L 182 438 L 186 440 L 186 444 L 190 446 L 190 450 L 194 452 L 194 456 L 196 456 L 196 458 L 200 460 L 200 464 L 204 466 L 204 470 L 206 470 L 206 472 L 208 472 L 208 474 L 212 476 L 212 480 L 214 480 L 214 482 L 216 482 L 216 484 L 220 486 L 220 490 L 222 490 L 222 492 L 224 492 L 224 494 L 226 494 L 226 496 L 228 496 L 228 498 L 232 500 L 232 504 L 234 504 L 234 506 L 236 506 L 236 508 L 238 508 L 238 510 L 240 510 L 240 512 L 242 512 L 242 514 L 244 514 L 244 516 L 246 516 L 246 518 L 248 518 L 248 520 L 250 520 L 250 522 L 252 522 L 252 524 L 254 524 L 254 526 L 256 526 L 256 528 L 258 528 L 258 530 L 260 530 L 260 532 L 262 532 L 262 534 L 264 534 L 264 536 L 268 538 L 268 540 L 270 540 L 270 542 L 272 542 L 272 544 L 274 544 L 274 546 L 278 546 L 278 548 L 280 548 L 280 550 L 282 550 L 282 552 L 284 552 L 286 556 L 290 556 L 290 558 L 292 558 L 292 560 L 294 560 L 294 562 L 296 562 L 298 566 L 302 566 L 304 570 L 308 570 L 308 572 L 310 572 L 312 576 L 316 576 L 318 580 L 322 580 L 324 584 L 328 584 L 330 588 L 334 588 L 336 592 L 340 592 L 340 594 L 343.5 594 Q 342.7 597.3 348 596 L 350 600 L 354 600 L 354 602 L 358 602 L 358 604 L 362 604 L 362 606 L 366 606 L 366 608 L 370 608 L 370 610 Q 375.2 608.3 374 612 L 380 612 L 380 614 Q 385.3 612.8 384.5 616 L 390 616 L 390 618 Q 395.2 616.3 394 620 L 400 620 L 400 622 L 406 622 L 406 624 L 412 624 L 412 626 L 418 626 L 418 628 L 424 628 L 424.5 630 L 431.5 630 Q 430.7 633.4 439.5 632 L 440.5 634 L 449.5 634 L 450.5 636 L 461.5 636 L 462.5 638 L 477.5 638 L 478.5 640 L 546 640 L 546.5 638 L 561.5 638 L 562.5 636 L 573.5 636 L 574.5 634 L 583.5 634 L 584.5 632 L 591.5 632 Q 590.7 628.6 599.5 630 L 600 628 L 606 628 L 606 626 L 612 626 L 612 624 L 618 624 L 618 622 L 624 622 L 624 620 L 630 620 L 630 618 Q 635.2 619.7 634 616 L 639.5 616 Q 638.7 612.8 644 614 L 644 612 L 650 612 L 650 610 L 654 610 L 654 608 L 658 608 L 658 606 L 662 606 L 662 604 L 666 604 L 666 602 L 669.5 602 Q 668.7 598.8 674 600 L 676 596 L 680 596 L 680 594 L 683.5 594 Q 682.7 590.8 688 592 L 690 588 L 694 588 L 696 584 L 700 584 L 702 580 L 706 580 L 708 576 L 712 576 L 712 574 L 714 574 L 716 570 L 720 570 L 722 566 L 726 566 L 726 564 L 728 564 L 728 562 L 730 562 L 732 558 L 736 558 L 736 556 L 738 556 L 738 554 L 740 554 L 740 552 L 742 552 L 742 550 L 744 550 L 746 546 L 750 546 L 750 544 L 752 544 L 752 542 L 754 542 L 754 540 L 756 540 L 756 538 L 758 538 L 758 536 L 760 536 L 760 534 L 762 534 L 762 532 L 764 532 L 764 530 L 766 530 L 766 528 L 768 528 L 768 526 L 770 526 L 770 524 L 772 524 L 772 522 L 774 522 L 774 520 L 776 520 L 776 518 L 778 518 L 778 516 L 780 516 L 780 514 L 782 514 L 782 512 L 786 510 L 786 508 L 788 508 L 788 506 L 790 506 L 790 504 L 792 504 L 792 500 L 794 500 L 794 498 L 796 498 L 796 496 L 798 496 L 798 494 L 800 494 L 800 492 L 804 490 L 804 486 L 806 486 L 806 484 L 808 484 L 808 482 L 812 480 L 812 476 L 814 476 L 814 474 L 816 474 L 816 472 L 820 470 L 820 466 L 824 464 L 824 460 L 826 460 L 826 458 L 830 456 L 830 452 L 834 450 L 834 446 L 838 444 L 838 440 L 842 438 L 842 434 L 846 432 L 846 428.5 Q 849.3 429.3 848 424 L 852 422 L 852 418 L 854 418 L 854 414.5 Q 857.3 415.3 856 410 L 860 408 L 860 404.5 Q 863.3 405.3 862 400 L 864 400 L 864 398 L 866 398 L 868 394 L 872 394 L 874 390 L 877.5 390 Q 876.7 386.8 882 388 L 882 386 L 891.5 386 L 892.5 384 L 900 384 L 900.5 386 L 910 386 L 910 388 L 913.5 388 Q 912.7 391.3 918 390 L 920 394 L 924 394 L 924 396 L 928 398 L 928 402 L 932 404 L 932 408 L 934 408 Q 932.3 413.2 936 412 L 936 418 L 938 418.5 L 938 434 L 936 434 L 936 442 L 934 442 L 934 446 L 932 446 L 932 450 L 930 450 L 930 453.5 Q 926.8 452.7 928 458 L 924 460 L 924 463.5 Q 920.8 462.7 922 468 L 918 470 L 918 473.5 Q 914.8 472.7 916 478 L 912 480 L 912 484 L 908 486 L 908 490 L 904 492 L 904 496 L 900 498 L 900 502 L 898 502 L 898 504 L 894 506 L 894 510 L 890 512 L 890 516 L 888 516 L 888 518 L 884 520 L 884 524 L 882 524 L 882 526 L 880 526 L 880 528 L 876 530 L 876 534 L 874 534 L 874 536 L 872 536 L 872 538 L 868 540 L 868 544 L 866 544 L 866 546 L 864 546 L 864 548 L 862 548 L 862 550 L 860 550 L 860 552 L 856 554 L 856 558 L 854 558 L 854 560 L 852 560 L 852 562 L 850 562 L 850 564 L 848 564 L 848 566 L 844 568 L 844 572 L 846 572 L 846 574 L 848 574 L 848 576 L 850 576 L 850 578 L 852 578 L 852 580 L 854 580 L 854 582 L 856 582 L 856 584 L 858 584 L 858 586 L 860 586 L 860 588 L 862 588 L 862 590 L 864 590 L 864 592 L 866 592 L 866 594 L 868 594 L 868 596 L 870 596 L 870 598 L 872 598 L 872 600 L 874 600 L 874 602 L 876 602 L 876 604 L 878 604 L 878 606 L 880 606 L 880 608 L 882 608 L 882 610 L 884 610 L 884 612 L 886 612 L 886 614 L 888 614 L 888 616 L 890 616 L 890 618 L 892 618 L 892 620 L 894 620 L 894 622 L 896 622 L 896 624 L 898 624 L 898 626 L 900 626 L 900 628 L 902 628 L 902 630 L 904 630 L 904 632 L 906 632 L 906 634 L 908 634 L 908 636 L 910 636 L 912 640 L 914 640 L 914 644 L 918 646 Q 916.3 651.2 920 650 L 920 658 L 922 658.5 L 922 678 L 920 678 L 920 684 Q 916.3 682.8 918 688 L 914 690 L 914 694 L 912 694 L 912 696 L 910 696 L 908 700 L 904 700 L 902 704 Q 896.7 702.8 897.5 706 L 892 706 L 891.5 708 L 868 708 L 868 706 L 862 706 L 860 702 L 856 702 L 856 700 L 854 700 L 854 698 L 852 698 L 852 696 L 850 696 L 850 694 L 848 694 L 848 692 L 846 692 L 846 690 L 844 690 L 844 688 L 842 688 L 842 686 L 840 686 L 840 684 L 838 684 L 838 682 L 836 682 L 836 680 L 834 680 L 834 678 L 832 678 L 832 676 L 830 676 L 830 674 L 828 674 L 828 672 L 826 672 L 826 670 L 824 670 L 824 668 L 822 668 L 822 666 L 820 666 L 820 664 L 818 664 L 818 662 L 816 662 L 816 660 L 814 660 L 814 658 L 812 658 L 812 656 L 810 656 L 810 654 L 808 654 L 808 652 L 806 652 L 806 650 L 804 650 L 804 648 L 802 648 L 802 646 L 800 646 L 800 644 L 798 644 L 798 642 L 796 642 L 796 640 L 794 640 L 794 638 L 792 638 L 792 636 L 790 636 L 790 634 L 788 634 L 788 632 L 784 630 L 784 628 L 780 628 Q 781.2 631.7 776 630 L 776 632 L 774 632 L 772 636 L 768 636 L 768 638 L 766 638 L 764 642 L 760 642 L 758 646 L 754 646 L 752 650 L 748 650 L 746 654 L 742 654 L 740 658 L 736.5 658 Q 737.3 661.3 732 660 L 730 664 L 726.5 664 Q 727.3 667.2 722 666 L 720 670 L 716 670 L 716 672 L 712 672 L 712 674 L 708 674 L 708 676 L 704 676 L 704 678 L 700 678 L 700 680 L 696 680 L 696 682 L 692 682 L 692 684 L 688 684 L 688 686 L 684 686 L 684 688 L 680 688 L 680 690 L 676.5 690 Q 677.3 693.3 672 692 L 672 696 L 674 696 L 674 701.5 L 676 702 L 676 708 L 678 708 Q 676.3 713.2 680 712 L 680 717.5 L 682 718 L 682 724 L 684 724 L 684 730 L 686 730 L 686 736 L 688 736 L 688 742 L 690 742 L 690 748 L 692 748 Q 690.3 753.2 694 752 L 694 758 L 696 758 L 696 764 L 698 764 L 698 770 L 700 770 L 700 776 L 702 776.5 L 702 785.5 L 704 786 L 704 792 L 702 792 L 702 801.5 L 700 802 L 700 807.5 Q 696.7 806.7 698 812 L 696 812 L 696 814 L 694 814 L 694 816 L 692 816 L 692 818 L 690 818 L 690 820 L 688 820 L 688 822 L 686 822 L 684 826 Q 678.7 824.8 679.5 828 L 674 828 L 673.5 830 L 664.5 830 L 664 832 L 658 832 L 658 830 L 648.5 830 Q 649.3 826.8 644 828 L 644 826 L 640 826 L 640 824 L 636 824 L 636 822 L 634 822 L 634 820 L 632 820 L 632 818 L 630 818 L 630 816 L 626 814 L 626 810 L 624 810 Q 625.7 804.8 622 806 L 622 800 L 620 800 Q 621.7 794.8 618 796 L 618 790 L 616 790 L 616 784 L 614 784 L 614 778 L 612 778 L 612 772 L 610 772 L 610 766 L 608 766 L 608 760 L 606 759.5 L 606 754 L 604 754 Q 605.7 748.8 602 750 L 602 744.5 L 600 744 L 600 738 L 598 738 L 598 732 L 596 732 L 596 726 L 594 726 L 594 720 Q 590.9 720.8 591.5 718 L 580 718 L 579.5 720 L 566.5 720 L 565.5 722 L 546.5 722 L 545.5 724 L 478 724 L 477.5 722 L 458.5 722 L 457.5 720 L 446.5 720 L 445.5 718 L 432 718 Q 432.8 721.1 430 720.5 L 430 726 L 428 726 L 428 732 L 426 732 L 426 738 L 424 738 L 424 744 L 422 744 L 422 750 L 420 750 Q 421.7 755.2 418 754 L 418 760 L 416 760 L 416 766 L 414 766 L 414 772 L 412 772 L 412 778 L 410 778 L 410 784 L 408 784 L 408 790 L 406 790.5 L 406 796 L 404 796 Q 405.7 801.2 402 800 L 402 806 L 400 806 L 400 809.5 Q 396.8 808.7 398 814 L 396 814 L 396 816 L 394 816 L 394 818 L 392 818 L 392 820 L 390 820 L 388 824 L 384 824 L 384 826 L 380 826 L 380 828 Q 374.8 826.3 376 830 L 366.5 830 L 366 832 L 360 832 L 360 830 L 350.5 830 L 350 828 L 344.5 828 Q 345.3 824.8 340 826 L 340 824 L 338 824 L 338 822 L 336 822 L 336 820 L 334 820 L 334 818 L 332 818 L 332 816 L 330 816 L 330 814 L 326 812 Q 327.2 806.7 324 807.5 L 324 802 L 322 801.5 L 322 794 L 320 793.5 L 320 786 L 322 786 L 322 776 L 324 776 L 324 770.5 L 326 770 L 326 764 L 328 764 L 328 758 L 330 758 Q 328.3 752.8 332 754 L 332 748 L 334 748 L 334 742 L 336 742 L 336 736 L 338 736 L 338 730 L 340 730 L 340 724 L 342 724 L 342 718 L 344 718 L 344 712 L 346 712 Q 344.3 706.8 348 708 L 348 702.5 L 350 702 L 350 696.5 Q 353.3 697.3 352 692 L 348 692 L 348 690 L 344 690 L 344 688 L 340 688 L 340 686 L 336 686 L 336 684 L 332 684 L 332 682 L 328 682 L 328 680 L 324 680 L 324 678 L 320 678 L 320 676 L 316 676 L 316 674 L 312 674 L 312 672 L 308.5 672 Q 309.3 668.8 304 670 L 302 666 L 298 666 L 298 664 L 294.5 664 Q 295.3 660.8 290 662 L 288 658 L 284 658 L 282 654 L 278 654 L 276 650 L 272 650 L 270 646 L 266 646 L 264 642 L 260 642 L 260 640 L 258 640 L 256 636 L 252 636 L 252 634 L 250 634 L 248 630 L 244.5 630 Q 245.3 626.8 240 628 L 240 630 L 238 630 L 238 632 L 236 632 L 236 634 L 234 634 L 234 636 L 232 636 L 232 638 L 230 638 L 230 640 L 228 640 L 228 642 L 226 642 L 226 644 L 224 644 L 224 646 L 222 646 L 222 648 L 220 648 L 220 650 L 218 650 L 218 652 L 216 652 L 216 654 L 214 654 L 214 656 L 212 656 L 212 658 L 210 658 L 210 660 L 208 660 L 208 662 L 206 662 L 206 664 L 204 664 L 204 666 L 202 666 L 202 668 L 200 668 L 200 670 L 198 670 L 198 672 L 196 672 L 196 674 L 194 674 L 194 676 L 192 676 L 192 678 L 190 678 L 190 680 L 188 680 L 188 682 L 186 682 L 186 684 L 184 684 L 184 686 L 182 686 L 182 688 L 180 688 L 180 690 L 178 690 L 178 692 L 176 692 L 176 694 L 174 694 L 174 696 L 172 696 L 170 700 L 168 700 L 168 702 L 164 702 L 162 706 L 156 706 L 155.5 708 L 132 708 L 132 706 L 126 706 Q 127.2 702.3 122 704 L 120 700 L 116 700 L 116 698 L 114 698 L 114 696 L 110 694 L 110 690 L 106 688 Q 107.2 682.7 104 683.5 L 104 678 L 102 677.5 L 102 656 L 104 656 L 104 650 Q 107.7 651.2 106 646 L 110 644 L 110 640 L 112 640 L 112 638 L 114 638 L 114 636 L 116 636 L 116 634 L 118 634 L 118 632 L 120 632 L 120 630 L 122 630 L 122 628 L 124 628 L 124 626 L 126 626 L 126 624 L 128 624 L 128 622 L 130 622 L 130 620 L 132 620 L 132 618 L 134 618 L 134 616 L 136 616 L 136 614 L 138 614 L 138 612 L 140 612 L 140 610 L 142 610 L 142 608 L 144 608 L 144 606 L 146 606 L 146 604 L 148 604 L 148 602 L 150 602 L 150 600 L 152 600 L 152 598 L 154 598 L 154 596 L 156 596 L 156 594 L 158 594 L 158 592 L 160 592 L 160 590 L 162 590 L 162 588 L 164 588 L 164 586 L 166 586 L 166 584 L 168 584 L 168 582 L 170 582 L 170 580 L 172 580 L 172 578 L 174 578 L 174 576 L 176 576 L 178 572 L 180 572 L 180 568 L 178 568 L 178 566 L 176 566 L 176 564 L 174 564 L 174 562 L 172 562 L 172 560 L 168 558 L 168 554 L 166 554 L 166 552 L 164 552 L 164 550 L 162 550 L 162 548 L 160 548 L 160 546 L 156 544 L 156 540 L 154 540 L 154 538 L 152 538 L 152 536 L 148 534 L 148 530 L 146 530 L 146 528 L 142 526 L 142 522 L 140 522 L 140 520 L 138 520 L 138 518 L 134 516 L 134 512 L 130 510 L 130 506 L 128 506 L 128 504 L 124 502 L 124 498 L 120 496 L 120 492 L 116 490 L 116 486 L 112 484 L 112 480 L 108 478 L 108 474.5 Q 104.8 475.3 106 470 L 102 468 L 102 464.5 Q 98.8 465.3 100 460 L 96 458 L 96 454 L 94 454 L 94 450 L 92 450 L 92 446 L 90 446 Q 91.7 440.8 88 442 L 88 434.5 L 86 433.5 L 86 418 L 88 418 L 88 412 L 90 412 L 90 408 L 92 408 L 92 404.5 Q 95.3 405.3 94 400 L 96 400 L 96 398 L 98 398 L 100 394 L 104 394 L 106 390 L 110 390 L 110 388 Q 115.2 389.7 114 386 L 123.5 386 L 124 384 Z " /></svg>