<svg width="512" height="452" viewBox="0 0 512 452" fill="none" xmlns="http://www.w3.org/2000/svg">
<path d="M327.324 128.323C337.486 138.494 345.341 150.852 350.889 165.397C356.436 179.947 358.535 194.55 357.185 209.208C357.185 214.02 355.455 218.095 351.995 221.431C348.532 224.767 344.395 226.435 339.585 226.435C334.775 226.435 330.703 224.767 327.368 221.431C324.034 218.095 322.366 214.02 322.366 209.208C323.971 198.208 323.067 187.782 319.653 177.933C316.239 168.087 310.99 159.62 303.904 152.531C296.818 145.442 288.274 140.06 278.27 136.386C268.267 132.712 257.717 131.757 246.622 133.521C241.812 133.684 237.66 132.072 234.168 128.686C230.67 125.304 228.843 121.207 228.684 116.395C228.522 111.583 230.068 107.427 233.323 103.929C236.579 100.434 240.611 98.6075 245.421 98.449C259.976 96.781 274.604 98.6805 289.305 104.147C304.006 109.619 316.679 117.677 327.324 128.323ZM255.375 62.6949C246.493 62.6949 237.779 63.1286 229.235 63.996C220.69 64.8592 212.185 66.2853 203.72 68.2744C198.397 69.367 193.604 68.606 189.34 65.9913C185.076 63.3767 182.143 59.6153 180.543 54.7071C178.938 49.6405 179.468 44.822 182.131 40.2516C184.79 35.6812 188.652 32.8497 193.716 31.7571C203.786 29.351 213.959 27.6517 224.233 26.6592C234.511 25.6626 244.892 25.1643 255.375 25.1643C309.11 25.1643 358.47 39.134 403.457 67.0735C448.439 95.0129 483.032 132.817 507.236 180.485C508.903 183.658 510.114 186.857 510.868 190.08C511.623 193.304 512 196.713 512 200.307C512 203.902 511.687 207.311 511.062 210.534C510.437 213.758 509.291 216.956 507.624 220.13C499.963 236.168 490.649 251.124 479.683 264.997C468.716 278.871 456.644 291.615 443.464 303.229C439.588 306.694 435.157 308.128 430.172 307.532C425.183 306.94 421.086 304.446 417.88 300.051C414.675 295.656 413.345 290.942 413.891 285.908C414.437 280.871 416.649 276.619 420.525 273.154C431.812 262.921 442.105 251.735 451.404 239.595C460.703 227.452 468.719 214.356 475.45 200.307C454.61 158.189 424.495 124.725 385.107 99.9128C345.718 75.1008 302.474 62.6949 255.375 62.6949ZM255.375 375.45C202.728 375.45 154.474 361.376 110.613 333.228C66.752 305.08 31.8859 268.006 6.01456 222.006C3.93051 218.833 2.40707 215.384 1.44424 211.66C0.481413 207.94 0 204.156 0 200.307C0 196.458 0.416809 192.736 1.25043 189.142C2.08405 185.551 3.54288 182.04 5.62692 178.608C14.9259 161.607 25.4587 145.414 37.2252 130.031C48.9917 114.652 62.5214 100.868 77.8141 88.6786L21.351 31.8009C17.8915 28.0812 16.1847 23.663 16.2305 18.5464C16.2806 13.4297 18.1166 9.05948 21.7387 5.43569C25.3607 1.8119 29.7539 0 34.9182 0C40.0783 0 44.4694 1.8119 48.0914 5.43569L462.658 420.199C466.122 423.664 467.958 427.953 468.166 433.066C468.375 438.182 466.539 442.682 462.658 446.564C459.036 450.188 454.643 452 449.479 452C444.319 452 439.927 450.188 436.305 446.564L348.294 359.281C333.543 364.989 318.384 369.112 302.816 371.647C287.252 374.182 271.439 375.45 255.375 375.45ZM104.173 115.044C89.5181 126.37 76.3469 139.176 64.6596 153.463C52.9723 167.754 43.1856 183.368 35.2996 200.307C56.14 242.425 86.2545 275.89 125.643 300.702C165.031 325.513 208.275 337.919 255.375 337.919C266.116 337.919 276.688 337.198 287.092 335.755C297.495 334.312 307.828 332.083 318.09 329.068L286.442 296.636C281.377 298.85 276.319 300.349 271.268 301.133C266.22 301.921 260.923 302.315 255.375 302.315C226.998 302.315 202.911 292.411 183.113 272.604C163.314 252.796 153.415 228.697 153.415 200.307C153.415 194.757 153.848 189.457 154.715 184.407C155.582 179.353 157.041 174.292 159.092 169.226L104.173 115.044Z" fill="black"/>
</svg>
