<svg width="512" height="457" viewBox="0 0 512 457" fill="none" xmlns="http://www.w3.org/2000/svg">
<path d="M323.88 140.258C334.001 150.374 341.825 163.525 347.351 179.712C352.877 195.903 354.17 211.671 351.231 227.016C351.231 231.292 349.907 234.753 347.258 237.399C344.605 240.049 341.18 241.374 336.982 241.374C332.781 241.374 329.316 240.049 326.589 237.399C323.857 234.753 322.491 231.292 322.491 227.016C325.941 213.712 325.902 201.174 322.373 189.404C318.844 177.634 312.751 167.633 304.095 159.4C295.854 150.753 285.699 144.771 273.63 141.453C261.557 138.135 249.069 138.28 236.165 141.888C232.047 141.888 228.543 140.603 225.653 138.031C222.764 135.464 221.238 132.084 221.076 127.891C220.918 123.694 222.164 120.152 224.813 117.266C227.466 114.379 230.851 112.936 234.97 112.936C250.651 109.68 266.738 110.773 283.233 116.214C299.727 121.651 313.276 129.666 323.88 140.258ZM259.93 62.7387C247.122 62.7387 234.355 63.4002 221.63 64.7232C208.901 66.0462 196.343 68.6217 183.954 72.4496C180.089 73.6316 176.265 73.4243 172.483 71.8275C168.697 70.2308 166.004 67.7113 164.406 64.269C162.812 60.8226 162.812 57.3119 164.406 53.7369C166.004 50.166 168.607 47.7897 172.215 46.6077C185.787 42.365 199.735 39.2876 214.058 37.3757C228.381 35.4596 242.953 34.5016 257.775 34.5016C311.298 34.5016 360.294 48.9218 404.762 77.7623C449.235 106.603 483.528 144.854 507.641 192.515C508.886 195.161 509.924 197.792 510.755 200.409C511.585 203.026 512 205.786 512 208.689C512 211.592 511.647 214.352 510.941 216.969C510.24 219.586 509.266 222.218 508.021 224.864C498.949 243.589 488.091 260.84 475.445 276.616C462.799 292.393 448.396 306.9 432.238 320.138C429.299 322.66 426.104 323.522 422.654 322.726C419.208 321.926 416.352 320.138 414.085 317.364C411.814 314.589 410.951 311.518 411.494 308.15C412.038 304.787 413.78 301.844 416.719 299.323C431.665 287.043 445.117 273.412 457.073 258.432C469.034 243.456 478.704 226.875 486.081 208.689C465.58 164.28 435.018 128.851 394.394 102.404C353.77 75.9604 308.948 62.7387 259.93 62.7387ZM255.377 382.877C202.269 382.877 153.807 368.353 109.99 339.305C66.1734 310.257 31.123 272.525 4.83877 226.108C3.02034 223.363 1.76031 220.602 1.05868 217.828C0.352894 215.053 0 212.007 0 208.689C0 205.371 0.456686 202.325 1.37005 199.551C2.27927 196.776 3.43551 194.016 4.83877 191.27C15.2844 171.84 27.1249 153.592 40.3604 136.526C53.6001 119.46 68.762 104.067 85.8461 90.3474L19.4983 24.3116C16.7208 21.5329 15.357 18.2545 15.4068 14.4763C15.4525 10.6939 16.8163 7.33663 19.4983 4.40447C22.4377 1.46816 25.8234 0 29.6553 0C33.4873 0 36.873 1.46816 39.8124 4.40447L469.174 433.317C471.694 435.834 472.954 438.88 472.954 442.455C472.954 446.026 471.694 449.28 469.174 452.216C466.492 455.405 463.232 457 459.396 457C455.564 457 452.181 455.534 449.245 452.602L358.804 363.642C342.259 370.497 325.349 375.418 308.074 378.404C290.795 381.386 273.229 382.877 255.377 382.877ZM105.151 110.255C87.0127 122.439 71.0682 136.86 57.3179 153.515C43.5717 170.167 32.5615 188.558 24.2872 208.689C45.7181 254.024 77.5676 289.682 119.836 315.665C162.1 341.648 208.461 354.64 258.921 354.64C272.559 354.64 286.037 354.09 299.356 352.991C312.67 351.892 325.364 348.328 337.437 342.297L293.272 298.172C287.297 301.299 281.101 303.319 274.682 304.231C268.264 305.139 261.829 305.594 255.377 305.594C228.454 305.594 205.555 296.167 186.682 277.313C167.808 258.459 158.372 235.585 158.372 208.689C158.372 202.244 158.93 195.855 160.047 189.522C161.168 183.189 163.086 176.96 165.801 170.835L105.151 110.255Z" fill="black"/>
</svg>
