<svg width="512" height="350" viewBox="0 0 512 350" fill="none" xmlns="http://www.w3.org/2000/svg">
<path d="M324.967 243.869C343.915 224.877 353.39 201.896 353.39 174.925C353.39 147.954 343.89 124.998 324.892 106.056C305.894 87.1146 282.905 77.6437 255.925 77.6437C228.945 77.6437 205.981 87.1396 187.033 106.131C168.085 125.123 158.61 148.104 158.61 175.075C158.61 202.046 168.11 225.002 187.108 243.944C206.106 262.885 229.095 272.356 256.075 272.356C283.055 272.356 306.019 262.86 324.967 243.869ZM206.777 224.063C193.389 210.579 186.695 194.175 186.695 174.85C186.695 155.525 193.437 139.173 206.921 125.794C220.409 112.41 236.818 105.719 256.15 105.719C275.482 105.719 291.839 112.458 305.223 125.937C318.611 139.421 325.305 155.825 325.305 175.15C325.305 194.475 318.563 210.827 305.079 224.206C291.591 237.59 275.182 244.281 255.85 244.281C236.518 244.281 220.161 237.542 206.777 224.063ZM111.044 306.106C67.3126 276.844 32.0443 239.312 5.23929 193.512C3.41366 190.542 2.08405 187.529 1.25043 184.475C0.416809 181.421 0 178.246 0 174.95C0 171.65 0.416809 168.485 1.25043 165.456C2.08405 162.427 3.41366 159.438 5.23929 156.488C32.0443 110.688 67.3126 73.1562 111.044 43.8937C154.78 14.6312 203.099 0 256 0C308.901 0 357.22 14.6312 400.956 43.8937C444.687 73.1562 479.956 110.688 506.761 156.488C508.586 159.458 509.916 162.471 510.75 165.525C511.583 168.579 512 171.754 512 175.05C512 178.35 511.583 181.515 510.75 184.544C509.916 187.573 508.586 190.562 506.761 193.512C479.956 239.312 444.687 276.844 400.956 306.106C357.22 335.369 308.901 350 256 350C203.099 350 154.78 335.369 111.044 306.106ZM392.703 281.781C434.209 255.21 465.847 219.617 487.617 175C465.847 130.383 434.244 94.7896 392.809 68.2188C351.374 41.6521 305.807 28.3688 256.106 28.3688C206.402 28.3688 160.799 41.6521 119.297 68.2188C77.7912 94.7896 46.0241 130.383 23.9957 175C46.0241 219.617 77.7557 255.21 119.191 281.781C160.626 308.348 206.193 321.631 255.894 321.631C305.598 321.631 351.201 308.348 392.703 281.781Z" fill="black"/>
</svg>
