<svg width="512" height="352" viewBox="0 0 512 352" fill="none" xmlns="http://www.w3.org/2000/svg">
<path d="M328.549 248.65C348.426 228.746 358.365 204.529 358.365 176C358.365 147.471 348.426 123.254 328.549 103.35C308.672 83.4449 284.489 73.4926 256 73.4926C227.511 73.4926 203.328 83.4449 183.451 103.35C163.574 123.254 153.635 147.471 153.635 176C153.635 204.529 163.574 228.746 183.451 248.65C203.328 268.555 227.511 278.507 256 278.507C284.489 278.507 308.672 268.555 328.549 248.65ZM207.981 224.086C194.8 210.886 188.209 194.857 188.209 176C188.209 157.143 194.8 141.114 207.981 127.914C221.163 114.714 237.169 108.114 256 108.114C274.831 108.114 290.837 114.714 304.019 127.914C317.2 141.114 323.791 157.143 323.791 176C323.791 194.857 317.2 210.886 304.019 224.086C290.837 237.286 274.831 243.886 256 243.886C237.169 243.886 221.163 237.286 207.981 224.086ZM110.977 309.641C67.151 281.405 32.1695 244.257 6.03216 198.195C3.93984 194.583 2.41035 190.947 1.4437 187.289C0.481232 183.631 0 179.868 0 176C0 172.132 0.481232 168.369 1.4437 164.711C2.41035 161.053 3.93984 157.417 6.03216 153.805C32.1695 107.743 67.151 70.5949 110.977 42.3594C154.803 14.1198 203.144 0 256 0C308.856 0 357.197 14.1198 401.023 42.3594C444.849 70.5949 479.83 107.743 505.968 153.805C508.06 157.417 509.59 161.053 510.556 164.711C511.519 168.369 512 172.132 512 176C512 179.868 511.519 183.631 510.556 187.289C509.59 190.947 508.06 194.583 505.968 198.195C479.83 244.257 444.849 281.405 401.023 309.641C357.197 337.88 308.856 352 256 352C203.144 352 154.803 337.88 110.977 309.641ZM386.247 276.886C425.792 251.952 456.026 218.324 476.949 176C456.026 133.676 425.792 100.048 386.247 75.1143C346.702 50.1809 303.286 37.7143 256 37.7143C208.713 37.7143 165.298 50.1809 125.753 75.1143C86.2079 100.048 55.9738 133.676 35.0506 176C55.9738 218.324 86.2079 251.952 125.753 276.886C165.298 301.819 208.713 314.286 256 314.286C303.286 314.286 346.702 301.819 386.247 276.886Z" fill="black"/>
</svg>
